SplineFontDB: 1.0
FontName: Garuda-Bold
FullName: Garuda Bold
FamilyName: Garuda
Weight: Bold
Copyright: Generated by NECTEC for Public Domain\n\nModified under GNU General Public License by TLWG
Version: 2.5: 2007-03-22
ItalicAngle: 0
UnderlinePosition: -27
UnderlineWidth: 20
Ascent: 872
Descent: 128
NeedsXUIDChange: 1
FSType: 0
OS2Version: 0
OS2_WeightWidthSlopeOnly: 0
OS2_UseTypoMetrics: 0
CreationTime: 1153661448
ModificationTime: 1175521720
PfmFamily: 33
TTFWeight: 700
TTFWidth: 5
LineGap: 0
VLineGap: 0
Panose: 2 11 7 4 2 2 2 2 2 4
OS2TypoAscent: 0
OS2TypoAOffset: 1
OS2TypoDescent: 0
OS2TypoDOffset: 1
OS2TypoLinegap: 0
OS2WinAscent: 0
OS2WinAOffset: 1
OS2WinDescent: 0
OS2WinDOffset: 1
HheadAscent: 0
HheadAOffset: 1
HheadDescent: 0
HheadDOffset: 1
OS2Vendor: 'PfEd'
ScriptLang: 3
 1 latn 1 dflt 
 1 thai 4 KUY  PAL  THA  dflt 
 1 thai 1 PAL  
ChainSub: class 0 1 'ccmp' 8 8 1 9
  Class: 414 uni0E01 uni0E02 uni0E03 uni0E04 uni0E05 uni0E06 uni0E07 uni0E08 uni0E09 uni0E0A uni0E0B uni0E0C uni0E0D uni0E0E uni0E0F uni0E10 uni0E11 uni0E12 uni0E13 uni0E14 uni0E15 uni0E16 uni0E17 uni0E18 uni0E19 uni0E1A uni0E1B uni0E1C uni0E1D uni0E1E uni0E1F uni0E20 uni0E21 uni0E22 uni0E23 uni0E24 uni0E25 uni0E26 uni0E27 uni0E28 uni0E29 uni0E2A uni0E2B uni0E2C uni0E2D uni0E2E uni0E10.descless uni0E0D.descless dottedcircle
  Class: 7 uni0E33
  Class: 7 uni0E48
  Class: 7 uni0E49
  Class: 7 uni0E4A
  Class: 7 uni0E4B
  Class: 7 uni0E4C
  BClass: 414 uni0E01 uni0E02 uni0E03 uni0E04 uni0E05 uni0E06 uni0E07 uni0E08 uni0E09 uni0E0A uni0E0B uni0E0C uni0E0D uni0E0E uni0E0F uni0E10 uni0E11 uni0E12 uni0E13 uni0E14 uni0E15 uni0E16 uni0E17 uni0E18 uni0E19 uni0E1A uni0E1B uni0E1C uni0E1D uni0E1E uni0E1F uni0E20 uni0E21 uni0E22 uni0E23 uni0E24 uni0E25 uni0E26 uni0E27 uni0E28 uni0E29 uni0E2A uni0E2B uni0E2C uni0E2D uni0E2E uni0E10.descless uni0E0D.descless dottedcircle
  BClass: 7 uni0E33
  BClass: 7 uni0E48
  BClass: 7 uni0E49
  BClass: 7 uni0E4A
  BClass: 7 uni0E4B
  BClass: 7 uni0E4C
 2 1 0

StartChar: .notdef
Encoding: 0 -1 0
Width: 766
VWidth: 2048
Flags: HW
HStem: 0 95<192 671> 1242 95<95 575>
VStem: 95 97<0 1242> 575 96<95 1337>
Fore
95 0 m 1
 95 1337 l 1
 671 1337 l 1
 671 0 l 1
 95 0 l 1
192 95 m 1
 575 95 l 1
 575 1242 l 1
 192 1242 l 1
 192 95 l 1
EndSplineSet
EndChar
StartChar: exclam
Encoding: 33 33 2
Width: 308
Flags: HW
HStem: 2 145<161 163> 677 20G<98 221>
VStem: 98 120<212 697>
Fore
218 212 m 1
 98 212 l 1
 98 697 l 1
 221 697 l 1
 218 212 l 1
227 75 m 0
 227 41 207 2 161 2 c 0
 115 2 94 41 94 75 c 0
 94 109 115 147 161 147 c 0
 207 147 227 109 227 75 c 0
EndSplineSet
EndChar
StartChar: quotedbl
Encoding: 34 34 3
Width: 458
Flags: HW
HStem: 677 20G<61 162 296 397>
VStem: 61 101<577 697> 296 101<577 697>
Fore
360 455 m 1
 334 455 l 1
 296 578 l 1
 296 697 l 1
 397 697 l 1
 397 578 l 1
 360 455 l 1
124 455 m 1
 98 455 l 1
 61 578 l 1
 61 697 l 1
 162 697 l 1
 162 578 l 1
 124 455 l 1
EndSplineSet
EndChar
StartChar: numbersign
Encoding: 35 35 4
Width: 597
Flags: HW
HStem: 0 265<31 184 238 386> 166 99<31 120 238 325 441 540> 412 103<72 166 282 374 484 567>
Fore
441 265 m 1x60
 540 265 l 1
 540 166 l 1
 422 166 l 1x60
 386 0 l 1
 290 0 l 1xa0
 325 166 l 1
 218 166 l 1x60
 184 0 l 1
 86 0 l 1xa0
 120 166 l 1
 31 166 l 1x60
 31 265 l 1
 139 265 l 1xa0
 166 412 l 1
 72 412 l 1
 72 515 l 1
 182 515 l 1
 216 700 l 1
 316 700 l 1
 282 515 l 1
 388 515 l 1
 426 700 l 1
 521 700 l 1
 484 515 l 1
 567 515 l 1
 567 412 l 1
 469 412 l 1
 441 265 l 1x60
238 265 m 1xa0
 343 265 l 1
 374 412 l 1
 264 412 l 1
 238 265 l 1xa0
EndSplineSet
EndChar
StartChar: dollar
Encoding: 36 36 5
Width: 574
Flags: HW
HStem: 679 20G<264 359>
VStem: 264 95<-75 2 106 264 411 532 635 699>
Fore
264 636 m 0
 264 699 l 1
 359 699 l 1
 359 636 l 1
 449 624 530 550 517 454 c 0
 515 435 498 434 497 434 c 2
 426 434 l 2
 423 434 408 435 406 454 c 0
 406 489 395 521 359 532 c 1
 359 377 l 1
 391 366 454 342 487 302 c 0
 543 239 538 133 494 75 c 0
 454 23 394 5 359 2 c 1
 359 -75 l 1
 264 -75 l 1
 264 2 l 1
 159 11 100 72 94 175 c 0
 92 189 95 210 113 210 c 2
 182 210 l 2
 185 210 201 208 202 192 c 1
 204 184 l 1
 208 139 216 120 264 106 c 1
 264 285 l 1
 230 291 166 310 123 357 c 0
 86 399 74 509 135 575 c 0
 170 612 215 633 264 636 c 0
265 434 m 0
 265 434 l 0
 265 460 265 535 265 535 c 1
 236 530 202 509 202 461 c 0
 202 423 267 395 265 411 c 0
 265 406 265 428 265 434 c 0
359 264 m 1
 359 104 l 1
 385 110 415 133 414 189 c 0
 414 231 382 254 359 264 c 1
EndSplineSet
EndChar
StartChar: percent
Encoding: 37 37 6
Width: 697
Flags: HW
HStem: -8 62<544 554> 311 58<544 554> 322 61<178 186> 642 57<178 186>
VStem: 41 85<510 537> 231 86<487 521> 406 86<182 201> 598 86<167 201>
Fore
41 510 m 0xbf
 41 510 l 0
 41 607 81 699 178 699 c 0
 276 699 317 607 317 510 c 0
 317 415 277 322 178 322 c 0
 81 322 41 417 41 510 c 0xbf
225 598 m 0
 225 598 l 0
 219 624 204 642 178 642 c 0
 123 642 126 549 126 510 c 0
 126 477 124 383 178 383 c 0
 235 383 231 469 231 507 c 0
 231 536 233 569 225 598 c 0
406 182 m 0
 406 182 l 0
 406 276 446 369 544 369 c 0xdf
 642 369 684 279 684 182 c 0
 684 86 642 -8 544 -8 c 0
 446 -8 406 87 406 182 c 0
544 311 m 0
 544 311 l 0
 489 311 492 219 492 182 c 0
 492 147 490 54 544 54 c 0
 599 54 598 139 598 176 c 0
 598 215 602 311 544 311 c 0
507 699 m 1
 624 699 l 1
 215 -2 l 1
 95 -2 l 1
 507 699 l 1
EndSplineSet
EndChar
StartChar: ampersand
Encoding: 38 38 7
Width: 717
Flags: HW
HStem: -8 95<271 293> 635 72<318 336>
VStem: 136 114<550 569> 426 86<540 556>
Fore
635 2 m 0
 635 2 l 0
 576 2 535 18 489 81 c 1
 412 14 353 -8 271 -8 c 0
 213 -8 153 3 107 38 c 0
 60 75 31 152 31 219 c 0
 31 314 101 351 212 394 c 1
 187 426 179 438 172 449 c 0
 152 480 136 510 136 552 c 0
 136 659 228 707 328 707 c 0
 432 707 512 651 512 540 c 0
 512 460 466 412 371 372 c 1
 500 235 l 1
 544 288 563 342 573 389 c 1
 679 374 l 1
 661 299 622 228 566 155 c 1
 598 116 622 97 661 100 c 2
 684 101 l 1
 684 8 l 1
 667 3 651 2 635 2 c 0
331 635 m 0
 331 635 l 0
 296 635 250 612 250 556 c 0
 250 515 282 483 307 457 c 1
 330 429 l 1
 377 449 426 478 426 540 c 0
 426 601 380 635 331 635 c 0
270 326 m 1
 201 314 158 276 162 219 c 0
 167 141 225 87 291 87 c 0
 336 87 380 107 431 149 c 1
 270 326 l 1
EndSplineSet
EndChar
StartChar: quotesingle
Encoding: 39 39 8
Width: 298
Flags: HW
VStem: 100 99<611 731>
Fore
162 489 m 1
 136 489 l 1
 100 612 l 1
 100 731 l 1
 199 731 l 1
 199 612 l 1
 162 489 l 1
EndSplineSet
EndChar
StartChar: parenleft
Encoding: 40 40 9
Width: 378
Flags: HW
Fore
156 276 m 0
 156 124 192 -34 258 -167 c 1
 190 -167 l 1
 107 -37 57 120 57 281 c 0
 57 441 104 604 193 731 c 1
 261 731 l 1
 189 592 156 435 156 276 c 0
EndSplineSet
EndChar
StartChar: parenright
Encoding: 41 41 10
Width: 378
Flags: HW
Fore
146 -167 m 1
 78 -167 l 1
 144 -34 179 124 179 276 c 0
 179 435 147 592 75 731 c 1
 143 731 l 1
 231 604 279 441 279 281 c 0
 279 120 228 -37 146 -167 c 1
EndSplineSet
EndChar
StartChar: asterisk
Encoding: 42 42 11
Width: 597
Flags: HW
Fore
325 524 m 1
 422 386 l 1
 388 359 l 1
 299 504 l 1
 210 359 l 1
 176 386 l 1
 276 524 l 1
 121 572 l 1
 135 616 l 1
 284 558 l 1
 277 731 l 1
 320 731 l 1
 314 558 l 1
 463 618 l 1
 477 572 l 1
 325 524 l 1
EndSplineSet
EndChar
StartChar: plus
Encoding: 43 43 12
Width: 565
Flags: HW
HStem: 264 90<66 247 330 510>
VStem: 247 83<64 264 354 553>
Fore
330 264 m 1
 330 64 l 1
 247 64 l 1
 247 264 l 1
 66 264 l 1
 66 354 l 1
 247 354 l 1
 247 553 l 1
 330 553 l 1
 330 354 l 1
 510 354 l 1
 510 264 l 1
 330 264 l 1
EndSplineSet
EndChar
StartChar: comma
Encoding: 44 44 13
Width: 252
Flags: HW
Fore
121 -71 m 0
 135 -43 133 -29 132 0 c 1
 14 -3 26 164 124 159 c 0
 195 155 210 80 205 29 c 0
 193 -71 156 -143 52 -161 c 1
 52 -110 l 1
 80 -106 107 -98 121 -71 c 0
EndSplineSet
EndChar
StartChar: hyphen
Encoding: 45 45 14
AltUni: 8208
Width: 455
Flags: HW
HStem: 241 81<40 412>
Fore
40 241 m 1
 40 322 l 1
 412 322 l 1
 412 241 l 1
 40 241 l 1
EndSplineSet
EndChar
StartChar: period
Encoding: 46 46 15
Width: 217
Flags: HW
HStem: 2 21G<95 141>
Fore
185 75 m 0
 185 41 164 2 118 2 c 0
 72 2 51 41 51 75 c 0
 51 109 72 147 118 147 c 0
 164 147 185 109 185 75 c 0
EndSplineSet
EndChar
StartChar: slash
Encoding: 47 47 16
Width: 597
Flags: HW
HStem: -2 21G<32 161> 679 20G<445 570>
Fore
445 699 m 1
 570 699 l 1
 161 -2 l 1
 32 -2 l 1
 445 699 l 1
EndSplineSet
EndChar
StartChar: zero
Encoding: 48 48 17
Width: 697
Flags: HW
HStem: 0 77<353.649 386> 619 81<367 386>
VStem: 536 126<335 385>
Fore
662 353 m 0
 662 353 l 0
 658 181 613 2 369 0 c 0
 155 -2 81 173 81 351 c 0
 81 512 155 699 369 700 c 0
 601 704 665 517 662 353 c 0
374 619 m 0
 242 618 208 468 205 351 c 0
 204 241 236 77 372 77 c 0
 510 77 536 233 536 349 c 0
 536 466 517 621 374 619 c 0
EndSplineSet
EndChar
StartChar: one
Encoding: 49 49 18
Width: 697
Flags: HW
HStem: -5 21G<376 504> 682 20G<348 504>
VStem: 376 128<-5 702>
Fore
376 -5 m 1
 376 624 l 1
 340 584 323 566 293 541 c 0
 270 521 247 501 219 481 c 1
 162 540 l 1
 185 556 l 2
 210 575 319 665 334 690 c 0
 337 696 340 702 348 702 c 2
 504 702 l 1
 504 -5 l 1
 376 -5 l 1
EndSplineSet
EndChar
StartChar: two
Encoding: 50 50 19
Width: 697
Flags: HW
HStem: -3 101<267 622.761>
Fore
667 -3 m 1
 116 -3 l 1
 120 80 124 155 182 216 c 0
 250 290 323 328 409 372 c 1
 766 549 353 717 251 566 c 0
 227 527 228 492 251 445 c 1
 135 400 l 1
 107 441 103 480 106 521 c 0
 110 575 155 639 213 671 c 0
 337 739 527 725 612 638 c 0
 739 506 632 391 575 354 c 0
 526 322 489 297 452 276 c 0
 395 244 336 205 284 144 c 0
 271 130 268 116 267 98 c 1
 372 98 638 98 668 100 c 1
 667 -3 l 1
EndSplineSet
EndChar
StartChar: three
Encoding: 51 51 20
Width: 697
Flags: HW
Fore
245 504 m 1
 248 501 l 1
 126 506 l 1
 132 566 141 596 182 636 c 0
 267 716 498 737 592 648 c 0
 673 572 668 478 625 432 c 0
 601 408 556 383 524 377 c 1
 524 368 l 1
 559 363 607 343 639 305 c 0
 688 247 693 166 651 98 c 0
 569 -40 236 -41 141 84 c 0
 112 121 104 162 101 212 c 1
 227 212 l 1
 231 175 235 150 251 129 c 0
 316 49 544 51 547 201 c 0
 550 328 415 328 322 326 c 1
 322 412 l 1
 360 408 388 406 417 412 c 0
 466 422 521 438 535 483 c 0
 541 500 558 619 394 618 c 0
 326 618 270 587 250 523 c 0
 248 518 248 512 247 507 c 0
 247 506 245 504 245 504 c 1
EndSplineSet
EndChar
StartChar: four
Encoding: 52 52 21
Width: 697
Flags: HW
HStem: -5 21G<458 587> 178 83<189 458 586 700> 685 20G<418 586>
VStem: 458 129<-5 178 261 705>
Fore
587 178 m 1
 587 -5 l 1
 458 -5 l 1
 458 178 l 1
 69 178 l 1
 69 271 l 1
 418 705 l 1
 586 705 l 1
 586 261 l 1
 700 261 l 1
 700 178 l 1
 587 178 l 1
457 612 m 1
 189 261 l 1
 457 261 l 1
 457 612 l 1
EndSplineSet
EndChar
StartChar: five
Encoding: 53 53 22
Width: 697
Flags: HW
HStem: -15 89<373 423> 601 96<176 651>
Fore
403 -15 m 0
 265 -15 196 26 161 72 c 0
 135 104 127 138 118 184 c 1
 247 184 l 1
 259 100 317 72 402 74 c 0
 515 75 555 139 563 222 c 0
 579 411 342 446 239 314 c 1
 121 314 l 1
 176 697 l 1
 638 697 l 1
 651 601 l 1
 284 601 l 1
 281 593 279 586 277 578 c 0
 267 526 258 481 248 429 c 1
 270 441 311 471 334 478 c 0
 362 487 403 498 460 495 c 0
 615 487 685 374 688 235 c 0
 693 87 610 -15 403 -15 c 0
EndSplineSet
EndChar
StartChar: six
Encoding: 54 54 23
Width: 697
Flags: HW
HStem: -15 21G<394 394> 628 82<411 435.964>
VStem: 556 120<208 242>
Fore
394 -15 m 0
 394 -15 l 0
 133 -3 100 202 109 377 c 0
 118 533 195 707 411 710 c 0
 530 711 628 670 664 550 c 1
 550 550 l 1
 524 605 475 628 415 628 c 0
 305 632 254 541 242 446 c 0
 239 423 239 405 239 382 c 1
 245 385 250 388 254 392 c 2
 262 400 l 2
 303 440 356 455 411 458 c 0
 579 463 676 368 676 224 c 0
 676 92 589 -23 394 -15 c 0
395 380 m 0
 316 379 239 322 245 215 c 0
 248 135 296 71 399 71 c 0
 507 71 556 139 556 221 c 0
 556 333 475 383 395 380 c 0
EndSplineSet
EndChar
StartChar: seven
Encoding: 55 55 24
Width: 697
Flags: HW
HStem: -2 21G<231 376> 609 85<132 552>
Fore
423 253 m 0
 388 158 379 101 376 -2 c 1
 231 -2 l 1
 244 133 273 224 337 339 c 0
 391 435 466 524 552 609 c 1
 132 609 l 1
 132 694 l 1
 661 694 l 1
 661 601 l 1
 559 507 471 376 423 253 c 0
EndSplineSet
EndChar
StartChar: eight
Encoding: 56 56 25
Width: 697
Flags: HW
HStem: -6 73<381 414.946> 348 87<388 399> 639 66<389 399>
Fore
665 218 m 0
 665 218 l 0
 668 92 581 -9 389 -6 c 0
 195 -5 109 101 110 219 c 0
 112 349 244 380 277 385 c 1
 277 408 l 1
 198 417 136 468 143 556 c 0
 150 661 271 705 389 705 c 0
 515 705 630 664 636 555 c 0
 641 469 587 422 510 408 c 1
 512 385 l 1
 543 379 662 349 665 218 c 0
547 218 m 0
 547 218 l 0
 543 282 501 348 388 348 c 0
 279 348 233 288 228 218 c 0
 224 146 284 69 388 67 c 0
 498 64 553 143 547 218 c 0
389 639 m 0
 323 639 267 612 262 546 c 0
 256 483 305 434 388 435 c 0
 483 435 521 480 518 544 c 0
 517 612 460 639 389 639 c 0
EndSplineSet
EndChar
StartChar: nine
Encoding: 57 57 26
Width: 697
Flags: HW
HStem: -8 74<352 374>
VStem: 113 117<471 489>
Fore
671 333 m 0
 671 333 l 0
 662 179 587 -6 374 -8 c 0
 193 -9 143 90 129 135 c 2
 126 144 l 1
 233 144 l 1
 258 89 308 66 369 66 c 0
 431 64 480 94 515 161 c 0
 561 251 558 253 558 337 c 1
 540 328 533 316 521 303 c 0
 481 265 431 250 377 248 c 0
 212 244 113 333 113 475 c 0
 113 605 199 719 391 710 c 0
 648 699 681 509 671 333 c 0
388 628 m 0
 277 628 230 559 230 478 c 0
 230 271 552 284 540 484 c 0
 536 564 489 628 388 628 c 0
EndSplineSet
EndChar
StartChar: colon
Encoding: 58 58 27
Width: 294
Flags: HW
HStem: 2 145<143 156> 383 146<143 156>
Fore
208 455 m 0
 208 455 l 0
 208 422 189 383 143 383 c 0
 97 383 75 422 75 455 c 0
 75 489 97 529 143 529 c 0
 189 529 208 489 208 455 c 0
208 75 m 0
 208 41 189 2 143 2 c 0
 97 2 75 41 75 75 c 0
 75 109 97 147 143 147 c 0
 189 147 208 109 208 75 c 0
EndSplineSet
EndChar
StartChar: semicolon
Encoding: 59 59 28
Width: 320
Flags: HW
HStem: 379 145<147 159>
Fore
215 451 m 0
 215 451 l 0
 215 417 193 379 147 379 c 0
 101 379 80 417 80 451 c 0
 80 484 101 524 147 524 c 0
 193 524 215 484 215 451 c 0
144 -71 m 0
 159 -43 156 -23 155 5 c 1
 38 5 60 169 156 158 c 0
 202 153 238 107 228 25 c 0
 216 -75 187 -143 83 -161 c 1
 83 -110 l 1
 110 -106 130 -98 144 -71 c 0
EndSplineSet
EndChar
StartChar: less
Encoding: 60 60 29
Width: 597
Flags: HW
Fore
74 247 m 1
 74 349 l 1
 524 533 l 1
 524 435 l 1
 173 299 l 1
 524 161 l 1
 524 63 l 1
 74 247 l 1
EndSplineSet
EndChar
StartChar: equal
Encoding: 61 61 30
Width: 544
Flags: HW
HStem: 138 92<66 497> 402 90<66 497>
Fore
66 402 m 1
 66 492 l 1
 497 492 l 1
 497 402 l 1
 66 402 l 1
66 138 m 1
 66 230 l 1
 497 230 l 1
 497 138 l 1
 66 138 l 1
EndSplineSet
EndChar
StartChar: greater
Encoding: 62 62 31
Width: 597
Flags: HW
Fore
74 63 m 1
 74 161 l 1
 423 299 l 1
 74 435 l 1
 74 533 l 1
 524 349 l 1
 524 247 l 1
 74 63 l 1
EndSplineSet
EndChar
StartChar: question
Encoding: 63 63 32
Width: 538
Flags: HW
HStem: -2 115<268 272>
Fore
422 653 m 0
 422 653 l 0
 503 584 504 431 403 325 c 0
 359 279 305 244 305 173 c 0
 305 167 305 162 303 141 c 1
 222 139 l 1
 225 184 227 205 231 227 c 0
 236 248 244 268 261 305 c 0
 294 377 365 418 368 504 c 0
 374 628 221 664 162 581 c 0
 153 567 136 532 147 500 c 1
 250 559 287 440 241 395 c 0
 189 346 121 372 89 417 c 0
 37 490 64 621 146 671 c 0
 225 723 345 719 422 653 c 0
268 113 m 0
 345 113 345 -2 268 -2 c 0
 192 -2 192 113 268 113 c 0
EndSplineSet
EndChar
StartChar: at
Encoding: 64 64 33
Width: 784
Flags: HW
HStem: -26 80<398 442> 138 95<356 380> 440 96<387 406> 644 79<386 426>
VStem: 57 92<324 375> 204 104<309 328> 653 75<386 420>
Fore
512 135 m 0
 512 135 l 0
 480 135 452 153 451 195 c 1
 411 152 383 138 356 138 c 0
 274 138 204 215 204 310 c 0
 204 428 276 536 388 536 c 0
 429 536 461 523 501 472 c 1
 510 530 l 1
 590 530 l 1
 575 420 561 328 546 225 c 0
 544 213 546 199 563 199 c 0
 602 199 653 277 653 388 c 0
 653 556 546 644 406 644 c 0
 251 644 149 520 149 349 c 0
 149 167 265 54 422 54 c 0
 487 54 546 80 595 121 c 1
 679 121 l 1
 607 32 535 -28 414 -26 c 0
 198 -25 57 130 57 346 c 0
 57 558 205 723 408 723 c 0
 586 723 728 590 728 420 c 0
 728 340 720 282 677 222 c 0
 630 156 599 135 512 135 c 0
308 326 m 0
 308 276 334 233 380 233 c 0
 438 233 475 288 475 351 c 0
 475 403 446 440 400 440 c 0
 346 440 308 383 308 326 c 0
EndSplineSet
EndChar
StartChar: A
Encoding: 65 65 34
Width: 628
Flags: HW
HStem: 3 21G<25 141 460 590> 155 96<210 418> 684 20G<230 391>
Fore
460 3 m 1
 418 155 l 1
 184 155 l 1
 141 3 l 1
 25 3 l 1
 230 704 l 1
 391 704 l 1
 590 3 l 1
 460 3 l 1
303 596 m 1
 210 251 l 1
 392 251 l 1
 303 596 l 1
EndSplineSet
EndChar
StartChar: B
Encoding: 66 66 35
Width: 646
Flags: HW
HStem: 3 97<202 367> 319 90<202 365> 612 92<83 372>
VStem: 83 119<3 319 3 612> 458 124<513 531> 472 129<182 213>
Fore
527 40 m 0xf4
 527 40 l 0
 483 5 425 3 365 3 c 2
 83 3 l 1
 83 704 l 1
 365 704 l 2
 414 704 466 705 510 674 c 0
 558 641 582 592 582 529 c 0xf8
 582 457 535 392 457 369 c 1
 455 360 l 1
 544 340 601 268 601 182 c 0
 601 126 570 75 527 40 c 0xf4
415 599 m 0
 415 599 l 0
 388 616 346 612 316 612 c 2
 202 612 l 1
 202 409 l 1
 328 409 l 2
 360 409 394 408 422 431 c 0
 446 451 458 483 458 515 c 0
 458 547 445 581 415 599 c 0
425 302 m 0
 400 319 365 319 337 319 c 2
 202 319 l 1
 202 100 l 1
 330 100 l 2
 363 100 400 100 429 120 c 0
 457 139 472 176 472 213 c 0xf4
 472 248 454 284 425 302 c 0
EndSplineSet
EndChar
StartChar: C
Encoding: 67 67 36
Width: 646
Flags: HW
HStem: -3 100<339 361.182> 615 101<337 356>
VStem: 51 138<332 366>
Fore
339 -3 m 0
 152 -3 51 161 51 357 c 0
 51 555 155 716 343 716 c 0
 495 716 573 627 595 471 c 1
 469 461 l 1
 464 538 432 616 339 615 c 0
 224 613 189 446 189 349 c 0
 189 238 236 92 346 97 c 0
 428 98 466 167 478 235 c 1
 595 227 l 1
 573 80 478 -3 339 -3 c 0
EndSplineSet
EndChar
StartChar: D
Encoding: 68 68 37
Width: 646
Flags: HW
HStem: 3 21G<55 259> 596 108<55 280>
VStem: 55 121<3 596> 469 124<338 372>
Fore
510 100 m 0
 510 100 l 0
 449 25 351 3 259 3 c 2
 55 3 l 1
 55 704 l 1
 233 704 l 2
 330 704 429 696 497 625 c 0
 564 555 593 458 593 356 c 0
 593 261 567 169 510 100 c 0
415 540 m 0
 374 599 305 596 248 596 c 2
 176 596 l 1
 176 109 l 1
 247 109 l 2
 316 109 388 118 428 190 c 0
 457 242 469 302 469 360 c 0
 469 423 452 489 415 540 c 0
EndSplineSet
EndChar
StartChar: E
Encoding: 69 69 38
Width: 568
Flags: HW
HStem: 2 93<199 523> 293 98<199 454> 596 101<80 523>
VStem: 80 119<2 293 2 596>
Fore
80 2 m 1
 80 697 l 1
 523 697 l 1
 523 596 l 1
 199 596 l 1
 199 391 l 1
 454 391 l 1
 454 293 l 1
 199 293 l 1
 199 95 l 1
 523 95 l 1
 523 2 l 1
 80 2 l 1
EndSplineSet
EndChar
StartChar: F
Encoding: 70 70 39
Width: 530
Flags: HW
HStem: 2 21G<78 198> 288 104<198 454> 595 105<78 520>
VStem: 78 120<2 288 2 595>
Fore
198 595 m 1
 198 392 l 1
 454 392 l 1
 454 288 l 1
 198 288 l 1
 198 2 l 1
 78 2 l 1
 78 700 l 1
 520 700 l 1
 520 595 l 1
 198 595 l 1
EndSplineSet
EndChar
StartChar: G
Encoding: 71 71 40
Width: 646
Flags: HW
HStem: -6 98<334 368> 261 96<356 481> 615 96<332 357>
VStem: 31 124<329 363> 495 100<0 76.1965>
Fore
495 0 m 1
 495 18 495 86 495 75 c 1
 469 5 406 -6 334 -6 c 0
 152 -6 31 155 31 346 c 0
 31 541 141 716 349 711 c 0
 480 710 575 632 599 497 c 1
 487 480 l 1
 475 552 426 613 345 615 c 0
 213 616 155 445 155 342 c 0
 155 250 222 92 353 92 c 0
 432 92 486 153 481 261 c 1
 356 261 l 1
 356 357 l 1
 595 357 l 1
 595 0 l 1
 495 0 l 1
EndSplineSet
EndChar
StartChar: H
Encoding: 72 72 41
Width: 657
Flags: HW
HStem: 308 107<181 480> 684 20G<60 181 480 605>
VStem: 60 121<3 308 3 704> 480 125<3 704>
Fore
480 3 m 1
 480 308 l 1
 181 308 l 1
 181 3 l 1
 60 3 l 1
 60 704 l 1
 181 704 l 1
 181 415 l 1
 480 415 l 1
 480 704 l 1
 605 704 l 1
 605 3 l 1
 480 3 l 1
EndSplineSet
EndChar
StartChar: I
Encoding: 73 73 42
Width: 294
Flags: HW
HStem: 3 21G<83 202> 684 20G<83 202>
VStem: 83 119<3 704>
Fore
83 3 m 1
 83 704 l 1
 202 704 l 1
 202 3 l 1
 83 3 l 1
EndSplineSet
EndChar
StartChar: J
Encoding: 74 74 43
Width: 482
Flags: HW
HStem: 680 20G<326 445>
VStem: 29 117<180 274> 326 119<219 700>
Fore
351 29 m 0
 302 -3 235 -8 208 0 c 1
 63 9 29 136 29 187 c 2
 29 274 l 1
 146 274 l 1
 146 190 l 2
 146 84 307 71 323 196 c 0
 326 221 326 245 326 265 c 2
 326 700 l 1
 445 700 l 1
 445 182 l 1
 432 123 405 64 351 29 c 0
EndSplineSet
EndChar
StartChar: K
Encoding: 75 75 44
Width: 628
Flags: HW
HStem: 0 21G<83 198 458 593> 679 20G<83 198>
VStem: 83 115<0 130 0 699>
Fore
458 0 m 1
 320 326 l 1
 198 130 l 1
 198 0 l 1
 83 0 l 1
 83 699 l 1
 198 699 l 1
 198 317 l 1
 434 697 l 1
 434 697 541 697 561 697 c 1
 406 438 l 1
 593 0 l 1
 458 0 l 1
EndSplineSet
EndChar
StartChar: L
Encoding: 76 76 45
Width: 490
Flags: HW
HStem: 3 107<195 466> 684 20G<75 196>
VStem: 75 121<3 704>
Fore
75 3 m 1
 75 704 l 1
 196 704 l 1
 196 110 l 1
 466 110 l 1
 466 3 l 1
 75 3 l 1
EndSplineSet
EndChar
StartChar: M
Encoding: 77 77 46
Width: 862
Flags: HW
HStem: 3 21G<80 176 374 454 658 777> 607 97<80 210 563 658>
VStem: 80 96<3 607> 658 119<3 704>
Fore
658 3 m 1
 658 607 l 1
 621 607 l 1
 454 3 l 1
 374 3 l 1
 210 607 l 1
 176 607 l 1
 176 3 l 1
 80 3 l 1
 80 704 l 1
 294 704 l 1
 426 208 l 1
 563 704 l 1
 777 704 l 1
 777 3 l 1
 658 3 l 1
EndSplineSet
EndChar
StartChar: N
Encoding: 78 78 47
Width: 646
Flags: HW
HStem: 3 21G<80 164 455 561> 684 20G<80 219 475 561>
VStem: 80 84<3 529> 475 86<236 704>
Fore
455 3 m 1
 198 529 l 1
 164 529 l 1
 164 3 l 1
 80 3 l 1
 80 704 l 1
 219 704 l 1
 445 236 l 1
 475 236 l 1
 475 704 l 1
 561 704 l 1
 561 3 l 1
 455 3 l 1
EndSplineSet
EndChar
StartChar: O
Encoding: 79 79 48
Width: 646
Flags: HW
HStem: -3 104<318 337> 616 100<318 337>
VStem: 32 129<357 382> 480 119<332 382>
Fore
535 112 m 0
 535 112 l 0
 484 35 408 -3 320 -3 c 0
 235 -3 156 26 107 103 c 0
 61 173 32 268 32 357 c 0
 32 549 136 716 320 716 c 0
 406 716 484 694 533 619 c 0
 578 552 599 445 599 359 c 0
 599 276 576 178 535 112 c 0
448 532 m 0
 426 589 382 616 325 616 c 0
 261 616 216 570 192 512 c 0
 170 463 161 405 161 357 c 0
 161 254 204 101 326 101 c 0
 389 101 425 141 452 198 c 0
 475 247 480 307 480 357 c 0
 480 412 469 478 448 532 c 0
EndSplineSet
EndChar
StartChar: P
Encoding: 80 80 49
Width: 625
Flags: HW
HStem: 0 21G<63 182> 276 93<182 336> 605 95<63 336>
VStem: 63 119<0 276 0 605> 448 122<479 497>
Fore
504 320 m 0
 504 320 l 0
 478 297 452 285 423 281 c 0
 392 274 359 276 325 276 c 2
 182 276 l 1
 182 0 l 1
 63 0 l 1
 63 700 l 1
 320 700 l 2
 380 700 438 700 490 662 c 0
 543 622 570 564 570 495 c 0
 570 428 549 362 504 320 c 0
408 581 m 0
 379 605 345 605 311 605 c 2
 182 605 l 1
 182 369 l 1
 313 369 l 2
 331 369 349 369 368 374 c 0
 386 379 405 389 420 408 c 0
 440 431 448 460 448 487 c 0
 448 521 435 558 408 581 c 0
EndSplineSet
EndChar
StartChar: Q
Encoding: 81 81 50
Width: 646
Flags: HW
HStem: 612 99<326 335>
VStem: 46 129<353 376> 477 127<353 376>
Fore
455 28 m 0
 455 28 l 0
 451 -41 494 -64 535 -60 c 2
 573 -57 l 1
 573 -150 l 1
 561 -152 547 -153 536 -153 c 0
 443 -153 400 -124 386 -2 c 1
 325 -8 l 2
 241 -17 164 29 113 106 c 0
 67 178 46 264 46 353 c 0
 46 544 141 711 326 711 c 0
 411 711 483 685 532 610 c 0
 576 541 604 438 604 353 c 0
 604 221 555 94 455 28 c 0
441 527 m 0
 418 584 383 612 326 612 c 0
 262 612 218 573 196 515 c 0
 179 466 175 400 175 353 c 0
 175 250 210 95 333 95 c 0
 395 95 434 129 454 189 c 0
 469 238 477 302 477 353 c 0
 477 408 461 474 441 527 c 0
EndSplineSet
EndChar
StartChar: R
Encoding: 82 82 51
Width: 659
Flags: HW
HStem: -2 21G<54 170 506 630 506 506> 281 114<170 391> 582 115<54 407>
VStem: 54 116<-2 281 -2 582>
Fore
506 -2 m 1
 506 -2 l 0
 481 63 477 84 478 150 c 0
 480 225 480 281 380 281 c 2
 170 281 l 1
 170 -2 l 1
 54 -2 l 1
 54 697 l 1
 374 697 l 2
 481 697 595 674 604 506 c 0
 609 417 582 395 518 343 c 1
 664 241 538 112 630 37 c 1
 630 -2 l 1
 506 -2 l 1
376 582 m 2
 170 582 l 1
 170 395 l 1
 368 395 l 2
 426 395 475 386 484 469 c 0
 497 581 432 582 376 582 c 2
EndSplineSet
EndChar
StartChar: S
Encoding: 83 83 52
Width: 588
Flags: HW
HStem: -6 110<265 299> 607 106<272 299>
VStem: 54 131<501 526> 406 129<189 219>
Fore
460 48 m 1
 409 6 340 -6 274 -6 c 0
 159 -6 60 44 26 162 c 1
 26 162 139 198 147 198 c 1
 172 123 219 104 288 104 c 0
 320 104 403 118 406 189 c 0
 406 231 385 256 359 270 c 0
 333 282 307 287 279 293 c 0
 158 320 54 357 54 501 c 0
 54 566 74 618 118 659 c 0
 162 699 221 713 279 713 c 0
 386 713 471 676 510 572 c 1
 403 535 l 1
 385 579 363 607 288 607 c 0
 236 607 187 587 185 526 c 0
 185 489 195 469 218 457 c 0
 239 446 264 440 287 435 c 0
 342 423 411 405 454 372 c 0
 504 336 535 284 535 219 c 0
 535 153 506 89 460 48 c 1
EndSplineSet
EndChar
StartChar: T
Encoding: 84 84 53
Width: 530
Flags: HW
HStem: 2 21G<202 322> 595 107<31 202 31 490>
VStem: 202 120<2 595>
Fore
322 595 m 1
 322 2 l 1
 202 2 l 1
 202 595 l 1
 31 595 l 1
 31 702 l 1
 490 702 l 1
 490 595 l 1
 322 595 l 1
EndSplineSet
EndChar
StartChar: U
Encoding: 85 85 54
Width: 646
Flags: HW
HStem: -6 104<324 342> 679 20G<69 204 460 586>
VStem: 69 135<274 699> 460 126<274 699>
Fore
586 215 m 0
 582 159 558 107 521 64 c 1
 471 11 399 -6 326 -6 c 0
 256 -6 181 5 133 51 c 0
 72 107 69 185 69 274 c 2
 69 699 l 1
 204 699 l 1
 204 274 l 2
 204 236 202 185 221 152 c 0
 247 103 297 98 337 98 c 0
 371 98 414 103 440 139 c 0
 464 178 460 230 460 274 c 2
 460 699 l 1
 586 699 l 1
 586 274 l 2
 586 215 l 0
EndSplineSet
EndChar
StartChar: V
Encoding: 86 86 55
Width: 588
Flags: HW
HStem: 0 21G<222 374> 680 20G<31 161>
Fore
374 0 m 1
 222 0 l 1
 31 700 l 1
 161 700 l 1
 303 126 l 1
 445 699 l 1
 463 700 558 700 558 700 c 1
 374 0 l 1
EndSplineSet
EndChar
StartChar: W
Encoding: 87 87 56
Width: 882
Flags: HW
HStem: -2 203<253 316> 677 20G<26 149>
Fore
691 -2 m 1
 561 -2 l 1
 449 501 l 1
 449 501 435 501 437 501 c 1
 316 -2 l 1
 190 -2 l 1
 26 697 l 1
 149 697 l 1
 241 256 l 1
 253 202 l 1
 250 201 259 201 268 201 c 1
 383 699 l 1
 383 699 506 704 503 699 c 1
 619 208 l 1
 632 202 l 1
 644 256 l 1
 745 697 l 1
 852 699 l 1
 691 -2 l 1
EndSplineSet
EndChar
StartChar: X
Encoding: 88 88 57
Width: 628
Flags: HW
HStem: 0 21G<41 170 440 579> 680 20G<66 205>
Fore
440 0 m 1
 308 268 l 1
 170 0 l 1
 41 0 l 1
 245 363 l 1
 66 700 l 1
 205 700 l 1
 319 471 l 1
 435 699 l 1
 422 699 529 699 559 699 c 1
 388 372 l 1
 579 0 l 1
 440 0 l 1
EndSplineSet
EndChar
StartChar: Y
Encoding: 89 89 58
Width: 588
Flags: HW
HStem: 0 21G<235 356> 680 20G<35 176 437 556>
VStem: 235 119<0 282>
Fore
354 282 m 1
 356 0 l 1
 235 0 l 1
 235 297 l 1
 35 700 l 1
 176 700 l 1
 305 418 l 1
 437 700 l 1
 556 700 l 1
 354 282 l 1
EndSplineSet
EndChar
StartChar: Z
Encoding: 90 90 59
Width: 646
Flags: HW
HStem: -2 102<222 593> 599 100<110 446>
Fore
86 -2 m 1
 86 98 l 1
 446 599 l 1
 110 599 l 1
 110 699 l 1
 582 699 l 1
 582 599 l 1
 222 100 l 1
 593 100 l 1
 593 -2 l 1
 86 -2 l 1
EndSplineSet
EndChar
StartChar: bracketleft
Encoding: 91 91 60
Width: 372
Flags: HW
HStem: -190 60<176 274> 638 61<98 274>
VStem: 98 78<-190 638>
Fore
98 -190 m 1
 98 699 l 1
 274 699 l 1
 274 638 l 1
 176 638 l 1
 176 -130 l 1
 274 -130 l 1
 274 -190 l 1
 98 -190 l 1
EndSplineSet
EndChar
StartChar: backslash
Encoding: 92 92 61
Width: 415
Flags: HW
Fore
248 3 m 1
 40 704 l 1
 139 702 l 1
 360 2 l 1
 248 3 l 1
EndSplineSet
EndChar
StartChar: bracketright
Encoding: 93 93 62
Width: 372
Flags: HW
HStem: -201 68<98 274> 632 67<98 196>
VStem: 196 78<-133 699>
Fore
98 -201 m 1
 98 -133 l 1
 196 -133 l 1
 196 632 l 1
 98 632 l 1
 98 699 l 1
 274 699 l 1
 274 -201 l 1
 98 -201 l 1
EndSplineSet
EndChar
StartChar: asciicircum
Encoding: 94 94 63
Width: 588
Flags: HW
HStem: 684 20G<244 340>
Fore
422 285 m 1
 293 642 l 1
 166 285 l 1
 95 285 l 1
 244 704 l 1
 340 704 l 1
 492 285 l 1
 422 285 l 1
EndSplineSet
EndChar
StartChar: underscore
Encoding: 95 95 64
Width: 556
VWidth: 2048
Flags: HW
HStem: -199 64<-15 569>
Fore
-15 -199 m 1
 -15 -135 l 1
 569 -135 l 5
 569 -199 l 1
 -15 -199 l 1
EndSplineSet
EndChar
StartChar: grave
Encoding: 96 96 65
Width: 372
Flags: HW
Fore
274 619 m 1
 87 691 l 1
 104 768 l 1
 287 671 l 1
 274 619 l 1
EndSplineSet
EndChar
StartChar: a
Encoding: 97 97 66
Width: 536
Flags: HW
HStem: -5 74<187 257> 452 74<255 282>
VStem: 48 116<130 149> 357 107<186 371>
Fore
187 -5 m 0
 187 -5 l 0
 104 -5 48 40 48 130 c 0
 48 199 86 254 146 279 c 0
 172 291 207 302 241 308 c 0
 274 313 310 314 357 319 c 1
 357 340 l 2
 357 371 357 395 339 420 c 0
 322 445 291 452 267 452 c 0
 221 452 175 434 164 380 c 1
 66 380 l 1
 81 487 172 526 282 526 c 0
 359 526 392 510 428 478 c 0
 461 449 463 412 464 369 c 0
 464 354 464 339 464 322 c 2
 464 159 l 2
 464 144 464 138 464 124 c 0
 463 63 520 61 523 61 c 0
 527 61 524 -8 523 0 c 1
 513 0 434 -5 411 26 c 0
 389 54 385 69 385 69 c 1
 342 -15 253 -5 187 -5 c 0
357 250 m 1
 274 241 164 236 164 147 c 0
 164 92 192 69 244 69 c 0
 281 69 316 92 336 126 c 0
 357 164 357 182 357 225 c 2
 357 250 l 1
EndSplineSet
EndChar
StartChar: b
Encoding: 98 98 67
Width: 541
Flags: HW
HStem: -3 69<268 310> 682 20G<63 170>
VStem: 63 99<0 49> 63 109<0 302 0 702> 399 113<256 270>
Fore
310 -3 m 0xd8
 310 -3 l 0
 245 -3 182 6 162 49 c 1
 162 11 162 66 162 31 c 0
 162 21 164 6 162 0 c 1
 63 0 l 1xe8
 63 702 l 1
 170 702 l 1
 170 468 l 1
 176 466 l 1
 202 523 271 527 328 524 c 0
 452 518 512 385 512 256 c 0
 512 113 443 -3 310 -3 c 0xd8
271 435 m 0
 190 435 172 359 172 290 c 2
 172 212 l 2xd8
 172 181 173 141 192 109 c 0
 208 80 235 66 268 66 c 0
 360 66 399 187 399 256 c 0
 399 325 362 435 271 435 c 0
EndSplineSet
EndChar
StartChar: c
Encoding: 99 99 68
Width: 530
Flags: HW
HStem: 0 90<277 293> 441 89<277 303>
VStem: 46 127<255 275>
Fore
279 0 m 0
 139 -3 46 106 46 258 c 0
 46 417 143 530 287 530 c 0
 408 530 468 457 484 353 c 1
 382 353 l 1
 376 400 349 441 291 441 c 0
 199 441 173 354 173 273 c 0
 173 195 192 90 287 90 c 0
 343 90 374 135 383 184 c 1
 487 182 l 1
 469 72 408 2 279 0 c 0
EndSplineSet
EndChar
StartChar: d
Encoding: 100 100 69
Width: 530
Flags: HW
HStem: -6 78<230 293> 422 101<233 291> 684 20G<377 484>
VStem: 48 114<233 267> 377 107<212 704>
Fore
383 0 m 1
 385 48 l 0
 386 49 371 51 374 46 c 1
 345 -18 287 -6 230 -6 c 0
 109 -6 48 123 48 251 c 0
 48 383 109 523 233 523 c 0
 285 523 326 530 379 458 c 1
 377 704 l 1
 484 704 l 1
 484 0 l 1
 383 0 l 1
377 284 m 2
 377 290 368 422 291 422 c 0
 198 422 162 320 162 247 c 0
 162 178 202 72 284 72 c 0
 320 72 342 92 357 121 c 1
 369 150 379 185 377 213 c 1
 377 284 l 2
EndSplineSet
EndChar
StartChar: e
Encoding: 101 101 70
Width: 530
Flags: HW
HStem: 0 87<266 284> 261 78<166 478> 440 86<254 284>
Fore
159 261 m 1
 161 216 l 0
 164 141 204 87 279 87 c 0
 325 87 363 109 374 162 c 1
 366 162 452 161 477 162 c 1
 461 116 425 0 271 0 c 0
 132 0 43 116 43 270 c 0
 43 423 113 526 256 526 c 0
 362 526 423 489 449 434 c 0
 478 368 478 326 478 261 c 1
 159 261 l 1
276 440 m 0
 222 440 173 428 166 339 c 1
 376 339 l 1
 371 420 333 440 276 440 c 0
EndSplineSet
EndChar
StartChar: f
Encoding: 102 102 71
Width: 294
Flags: HW
HStem: 3 21G<86 193> 415 83<28 86 193 282>
VStem: 86 107<3 415 498 548>
Fore
265 628 m 2
 198 633 193 589 193 529 c 2
 193 498 l 1
 282 498 l 1
 282 415 l 1
 193 415 l 1
 193 3 l 1
 86 3 l 1
 86 415 l 1
 28 415 l 1
 28 498 l 1
 86 498 l 1
 86 541 86 566 87 590 c 0
 90 615 95 635 106 651 c 0
 135 699 192 717 245 713 c 2
 294 710 l 1
 294 627 l 1
 265 628 l 2
EndSplineSet
EndChar
StartChar: g
Encoding: 103 103 72
Width: 525
Flags: HW
VStem: 372 97<40 103>
Fore
377 460 m 0
 377 460 l 0
 372 483 377 524 377 524 c 1
 379 524 445 524 469 524 c 1
 469 103 l 2
 469 -64 457 -216 268 -230 c 0
 162 -238 46 -189 35 -69 c 1
 34 -55 l 1
 132 -55 l 1
 139 -92 138 -115 182 -133 c 0
 198 -141 218 -149 242 -150 c 0
 281 -152 291 -146 314 -136 c 1
 354 -115 360 -90 369 -51 c 0
 374 -29 365 20 372 40 c 0
 372 41 371 48 376 49 c 1
 337 17 290 -5 222 -2 c 0
 189 2 153 5 113 37 c 1
 -8 118 0 336 75 441 c 0
 86 457 149 526 238 523 c 0
 290 520 339 506 377 460 c 0
330 388 m 2
 323 394 l 1
 310 414 265 429 247 431 c 0
 109 432 89 218 147 135 c 0
 189 75 282 61 333 116 c 0
 392 182 385 334 330 388 c 2
EndSplineSet
EndChar
StartChar: h
Encoding: 104 104 73
Width: 530
Flags: HW
HStem: -3 21G<64 172 365 472> 679 20G<64 172>
VStem: 64 108<-3 270 -3 699> 365 107<-3 350>
Fore
365 -3 m 1
 365 242 l 2
 365 273 366 300 366 337 c 0
 365 388 351 415 308 417 c 0
 261 418 204 382 189 346 c 0
 173 313 172 274 172 242 c 2
 172 -3 l 1
 64 -3 l 1
 64 699 l 1
 172 699 l 1
 172 441 l 1
 175 437 l 1
 201 504 293 526 346 524 c 0
 388 523 425 506 449 469 c 0
 461 452 468 432 471 408 c 0
 474 383 472 357 472 333 c 2
 472 -3 l 1
 365 -3 l 1
EndSplineSet
EndChar
StartChar: i
Encoding: 105 105 74
Width: 254
Flags: HW
HStem: -2 21G<72 179> 593 104<72 179>
VStem: 72 107<-2 523 593 697>
Fore
72 593 m 1
 72 697 l 1
 179 697 l 1
 179 593 l 1
 72 593 l 1
72 -2 m 1
 72 523 l 1
 179 523 l 1
 179 -2 l 1
 72 -2 l 1
EndSplineSet
EndChar
StartChar: j
Encoding: 106 106 75
Width: 254
Flags: HW
HStem: 523 69<71 179> 592 105<66 179>
Fore
66 592 m 1
 66 697 l 1
 179 697 l 1
 179 592 l 1
 66 592 l 1
175 -78 m 0
 175 -104 170 -124 161 -144 c 0
 139 -190 98 -205 43 -205 c 0
 23 -205 -3 -212 -23 -207 c 1
 -23 -120 l 1
 -8 -121 l 2
 83 -129 72 -51 72 6 c 2
 72 523 l 1
 179 523 l 1
 179 6 l 2
 179 -20 176 -51 175 -78 c 0
EndSplineSet
EndChar
StartChar: k
Encoding: 107 107 76
Width: 548
Flags: HW
HStem: 0 21G<74 181 397 517> 684 20G<74 181>
VStem: 74 107<0 121 0 704>
Fore
397 0 m 1
 284 259 l 1
 181 121 l 1
 181 0 l 1
 74 0 l 1
 74 704 l 1
 181 704 l 1
 181 264 l 1
 261 359 l 1
 388 523 l 1
 415 521 504 523 503 523 c 1
 366 354 l 1
 517 0 l 1
 397 0 l 1
EndSplineSet
EndChar
StartChar: l
Encoding: 108 108 77
Width: 254
Flags: HW
HStem: 3 21G<72 179> 684 20G<72 179>
VStem: 72 107<3 704>
Fore
72 3 m 1
 72 704 l 1
 179 704 l 1
 179 3 l 1
 72 3 l 1
EndSplineSet
EndChar
StartChar: m
Encoding: 109 109 78
Width: 804
Flags: HW
HStem: 0 21G<66 173 348 455 630 737> 434 89<273 313 545 596>
VStem: 66 101<0 523> 348 107<0 250> 630 107<0 362>
Fore
630 0 m 1
 630 250 l 2
 630 261 630 281 630 299 c 0
 630 317 630 349 630 362 c 0
 625 417 598 432 549 432 c 0
 507 432 472 382 458 348 c 0
 451 334 455 265 455 250 c 2
 455 0 l 1
 348 0 l 1
 348 250 l 2
 348 282 348 313 348 345 c 0
 345 417 313 434 273 434 c 0
 227 434 195 385 182 349 c 0
 173 319 173 282 173 250 c 2
 173 0 l 1
 66 0 l 1
 66 523 l 1
 167 523 l 1
 167 457 l 1
 169 449 l 1
 207 518 254 523 313 523 c 0
 360 523 411 475 422 435 c 1
 472 529 540 523 596 523 c 0
 636 523 688 498 714 466 c 0
 727 449 734 399 737 372 c 0
 739 345 737 317 737 290 c 2
 737 0 l 1
 630 0 l 1
EndSplineSet
EndChar
StartChar: n
Encoding: 110 110 79
Width: 530
Flags: HW
HStem: 0 21G<67 175 356 463> 428 95<280 333>
VStem: 67 108<0 289 0 523> 356 107<0 337>
Fore
356 0 m 1
 356 270 l 2
 356 300 359 337 351 368 c 0
 342 402 328 428 282 428 c 0
 248 428 204 391 190 360 c 0
 172 325 175 273 175 239 c 2
 175 0 l 1
 67 0 l 1
 67 523 l 1
 173 523 l 1
 173 443 l 1
 173 443 170 445 175 445 c 1
 236 535 282 523 333 523 c 0
 376 523 414 507 438 471 c 0
 464 434 463 366 463 322 c 2
 463 0 l 1
 356 0 l 1
EndSplineSet
EndChar
StartChar: o
Encoding: 111 111 80
Width: 536
Flags: HW
HStem: -3 78<262 281> 443 83<264.125 282.733>
VStem: 40 118<252 286> 353 142<256 385> 377 118<236 279>
Fore
264 -3 m 0xf0
 264 -3 l 0
 123 -3 40 110 40 261 c 0
 40 412 123 526 264 526 c 0
 406 526 495 409 495 256 c 0
 495 109 399 -3 264 -3 c 0xf0
353 385 m 1
 353 379 340 445 264 443 c 0
 175 440 158 349 158 277 c 0
 158 208 175 75 268 75 c 0
 360 75 377 179 377 254 c 0xe8
 377 297 368 340 353 385 c 1
EndSplineSet
EndChar
StartChar: p
Encoding: 112 112 81
Width: 536
Flags: HW
HStem: -5 80<259 297> 432 95<264 313>
VStem: 54 98<-179 523> 54 107<-179 38 -179 318> 380 115<236 270>
Fore
297 -5 m 0xe8
 297 -5 l 0
 268 -5 198 -12 175 40 c 1
 161 38 l 1
 161 -179 l 1xd8
 54 -179 l 1
 54 523 l 1
 152 523 l 1
 152 489 l 1
 153 475 150 438 150 438 c 1
 187 507 250 529 313 527 c 0
 374 526 418 500 449 443 c 0
 478 389 495 325 495 258 c 0
 495 124 426 -5 297 -5 c 0xe8
264 432 m 0
 227 432 198 412 181 379 c 0
 164 343 161 325 161 291 c 2
 161 238 l 2
 161 198 161 161 181 126 c 0
 198 97 230 75 261 75 c 0
 346 75 380 193 380 256 c 0
 380 322 346 432 264 432 c 0
EndSplineSet
EndChar
StartChar: q
Encoding: 113 113 82
Width: 530
Flags: HW
HStem: -5 85<242 277>
VStem: 34 115<259 270> 374 107<-179 445> 382 99<454 499>
Fore
481 445 m 0xe0
 481 -179 l 1
 374 -179 l 1
 374 46 l 1xe0
 336 -8 288 -5 242 -5 c 0
 109 -5 34 120 34 259 c 0
 34 399 103 523 239 523 c 0
 302 523 353 515 382 454 c 1
 383 497 379 483 382 523 c 1
 388 526 477 521 481 521 c 1xd0
 481 526 481 463 481 445 c 0xe0
377 307 m 2
 377 362 349 432 276 435 c 0
 184 438 149 331 149 259 c 0
 149 224 153 175 169 138 c 0
 182 103 225 80 264 80 c 0
 297 80 331 103 345 126 c 0
 366 161 377 189 377 224 c 2
 377 307 l 2
EndSplineSet
EndChar
StartChar: r
Encoding: 114 114 83
Width: 346
Flags: HW
HStem: 0 21G<49 155>
VStem: 49 106<0 273 0 524>
Fore
155 455 m 1
 185 498 230 524 264 524 c 2
 319 524 l 1
 319 417 l 1
 291 415 258 415 231 406 c 1
 179 382 155 339 155 254 c 2
 155 0 l 1
 49 0 l 1
 49 524 l 1
 155 524 l 1
 155 455 l 1
EndSplineSet
EndChar
StartChar: s
Encoding: 115 115 84
Width: 482
Flags: HW
HStem: -11 86<255 268> 438 91<223 240>
Fore
359 12 m 0
 333 0 299 -8 265 -11 c 1
 129 -11 35 20 32 184 c 1
 127 184 l 1
 135 94 193 75 268 75 c 1
 314 81 356 94 356 147 c 0
 356 170 349 189 314 199 c 0
 253 218 198 239 139 265 c 0
 97 282 46 300 46 379 c 0
 46 484 136 529 238 529 c 0
 374 529 429 468 434 349 c 1
 336 349 l 1
 334 414 307 438 230 438 c 0
 156 438 124 374 181 346 c 0
 254 311 325 310 395 265 c 0
 500 201 457 57 359 12 c 0
EndSplineSet
EndChar
StartChar: t
Encoding: 116 116 85
Width: 372
Flags: HW
HStem: 3 21G<234.5 267.5> 435 86<23 104 212 319> 679 20G<110 212>
VStem: 104 108<169 435>
Fore
331 11 m 1
 305 8 281 3 254 3 c 0
 215 3 166 9 139 34 c 0
 103 66 104 126 104 175 c 2
 104 435 l 1
 23 435 l 1
 23 521 l 1
 109 521 l 1
 110 699 l 1
 212 699 l 1
 212 523 l 1
 322 523 l 1
 319 435 l 1
 212 435 l 1
 212 198 l 2
 212 132 213 83 302 90 c 2
 326 92 l 1
 326 -6 l 1
 339 14 l 1
 331 11 l 1
EndSplineSet
EndChar
StartChar: u
Encoding: 117 117 86
Width: 530
Flags: HW
HStem: 0 100<199 253>
VStem: 72 107<196 521> 362 96<-2 521>
Fore
362 -2 m 1
 362 69 l 1
 340 69 l 1
 299 6 259 0 199 0 c 0
 152 0 116 15 94 55 c 0
 69 98 72 149 72 196 c 2
 72 521 l 1
 179 521 l 1
 179 196 l 2
 179 141 189 100 253 100 c 0
 294 100 326 129 342 169 c 0
 353 198 351 216 351 247 c 2
 351 521 l 1
 458 521 l 1
 458 -2 l 1
 362 -2 l 1
EndSplineSet
EndChar
StartChar: v
Encoding: 118 118 87
Width: 469
Flags: HW
HStem: 0 21G<185 296>
Fore
296 0 m 1
 185 0 l 1
 28 523 l 1
 143 523 l 1
 248 170 l 1
 343 523 l 1
 454 523 l 1
 296 0 l 1
EndSplineSet
EndChar
StartChar: w
Encoding: 119 119 88
Width: 726
Flags: HW
HStem: 2 21G<458 559> 374 150<363 371>
Fore
559 2 m 1
 458 2 l 1
 371 374 l 1
 363 374 l 1
 276 2 l 1
 167 3 l 1
 26 524 l 1
 141 524 l 1
 225 162 l 1
 231 164 l 1
 313 524 l 1
 316 524 440 526 423 523 c 1
 510 164 l 1
 515 162 l 1
 601 523 l 1
 699 523 l 1
 559 2 l 1
EndSplineSet
EndChar
StartChar: x
Encoding: 120 120 89
Width: 530
Flags: HW
HStem: 0 21G<49 162 353 477>
Fore
353 0 m 1
 259 184 l 1
 162 0 l 1
 49 0 l 1
 204 270 l 2
 207 274 64 523 64 523 c 1
 189 523 l 1
 267 360 l 1
 346 523 l 1
 454 523 l 1
 320 281 l 1
 477 0 l 1
 353 0 l 1
EndSplineSet
EndChar
StartChar: y
Encoding: 121 121 90
Width: 470
Flags: HW
Fore
307 35 m 2
 297 5 288 -25 279 -52 c 0
 253 -135 201 -185 109 -192 c 2
 43 -196 l 1
 44 -94 l 1
 124 -101 175 -92 199 14 c 1
 38 523 l 1
 153 523 l 1
 253 150 l 1
 354 523 l 1
 449 523 l 1
 307 35 l 2
EndSplineSet
EndChar
StartChar: z
Encoding: 122 122 91
Width: 412
Flags: HW
HStem: 0 87<129 379> 438 85<41 261>
Fore
23 0 m 1
 23 103 l 1
 261 438 l 1
 41 438 l 1
 41 523 l 1
 368 523 l 1
 368 445 l 1
 129 87 l 1
 379 87 l 1
 379 0 l 1
 23 0 l 1
EndSplineSet
EndChar
StartChar: braceleft
Encoding: 123 123 92
Width: 372
Flags: HW
HStem: -182 56<274 305> 645 57<241 305>
VStem: 147 77<-71 171 357 589>
Fore
241 -182 m 2
 213 -182 147 -146 147 -67 c 2
 147 161 l 2
 147 224 100 238 67 239 c 1
 67 291 l 1
 100 293 147 305 147 359 c 2
 147 587 l 2
 147 665 213 702 241 702 c 2
 305 702 l 1
 305 645 l 1
 288 645 l 2
 225 645 224 601 224 573 c 2
 224 362 l 2
 224 302 176 277 130 273 c 1
 130 254 l 1
 176 251 224 236 224 159 c 2
 224 -54 l 2
 224 -81 225 -126 288 -126 c 2
 305 -126 l 1
 305 -182 l 1
 241 -182 l 2
EndSplineSet
EndChar
StartChar: bar
Encoding: 124 124 93
Width: 294
Flags: HW
HStem: 3 21G<107 187> 684 20G<107 187>
VStem: 107 80<3 704>
Fore
107 3 m 1
 107 704 l 1
 187 704 l 1
 187 3 l 1
 107 3 l 1
EndSplineSet
EndChar
StartChar: braceright
Encoding: 125 125 94
Width: 372
Flags: HW
HStem: -185 56<67 132> 679 20G<67 132>
VStem: 149 76<-74 168 354 586>
Fore
225 158 m 2
 225 -71 l 2
 225 -149 159 -185 132 -185 c 2
 67 -185 l 1
 67 -129 l 1
 86 -129 l 2
 147 -129 149 -83 149 -57 c 2
 149 156 l 2
 149 233 192 247 239 250 c 1
 239 271 l 1
 192 276 149 299 149 359 c 2
 149 570 l 2
 149 596 147 642 86 642 c 2
 67 642 l 1
 67 699 l 1
 132 699 l 2
 159 699 225 662 225 584 c 2
 225 356 l 2
 225 302 273 290 305 288 c 1
 305 236 l 1
 273 235 225 221 225 158 c 2
EndSplineSet
EndChar
StartChar: asciitilde
Encoding: 126 126 95
Width: 588
Flags: HW
Fore
345 242 m 0
 273 284 172 363 144 314 c 0
 135 297 135 273 135 253 c 1
 46 253 l 1
 49 302 57 348 87 389 c 0
 158 483 297 366 354 331 c 0
 445 274 452 319 455 391 c 1
 541 391 l 1
 538 342 532 296 501 254 c 0
 475 219 411 204 345 242 c 0
EndSplineSet
EndChar
StartChar: uni0E10.descless
Encoding: 128 63232 96
Width: 613
Flags: HW
HStem: 445 50<66 195>
Fore
590 532 m 1
 590 532 l 0
 587 530 556 495 483 497 c 0
 399 498 353 540 268 533 c 0
 210 529 196 495 195 495 c 0
 199 495 270 495 363 466 c 0
 458 435 503 402 524 353 c 0
 540 320 536 300 535 273 c 1
 526 133 l 1
 523 80 504 38 451 14 c 0
 397 -12 297 -6 264 18 c 0
 228 41 213 57 208 110 c 1
 202 170 l 1
 143 158 74 195 77 271 c 0
 80 336 130 380 202 372 c 0
 270 366 305 325 310 247 c 2
 317 115 l 2
 319 89 325 72 363 72 c 0
 397 72 411 78 412 104 c 2
 422 268 l 1
 425 299 422 323 399 351 c 0
 371 382 300 409 218 423 c 0
 132 438 67 445 66 445 c 1
 66 448 69 507 136 561 c 0
 201 612 290 607 337 599 c 0
 399 590 443 569 494 572 c 0
 541 573 555 598 555 598 c 1
 590 532 l 1
181 305 m 0
 133 305 133 233 181 233 c 0
 230 233 230 305 181 305 c 0
EndSplineSet
EndChar
StartChar: uni0E34.left
Encoding: 129 63233 97
Width: 0
Flags: HW
HStem: 855 66<-523.34 -497.125 -497 -478.933>
Fore
-497 921 m 0
 -497 921 l 0
 -303 920 -239 702 -244 645 c 1
 -244 645 -328 717 -510 725 c 0
 -659 733 -740 690 -742 690 c 1
 -734 800 -659 923 -497 921 c 0
-497 855 m 0
 -610 858 -630 774 -630 774 c 1
 -630 774 -578 788 -503 785 c 0
 -420 782 -351 756 -351 756 c 1
 -351 756 -382 854 -497 855 c 0
EndSplineSet
EndChar
StartChar: uni0E35.left
Encoding: 130 63234 98
Width: 0
Flags: HW
HStem: 923 20G<-368 -253>
Fore
-736 670 m 0
 -736 670 l 0
 -733 780 -653 872 -558 894 c 0
 -483 912 -412 894 -368 868 c 1
 -368 943 l 1
 -253 943 l 5
 -253 710 l 1
 -253 710 -248 693 -245 671 c 0
 -241 648 -238 628 -238 625 c 1
 -238 625 -322 697 -503 705 c 0
 -653 713 -734 670 -736 670 c 0
-490 835 m 0
 -604 838 -624 754 -624 754 c 1
 -624 754 -572 768 -497 765 c 0
 -414 762 -345 736 -345 736 c 1
 -345 736 -376 834 -490 835 c 0
EndSplineSet
EndChar
StartChar: uni0E36.left
Encoding: 131 63235 99
Width: 0
Flags: HW
Fore
-757 668 m 0
 -757 668 l 0
 -757 720 -733 803 -653 851 c 0
 -578 895 -490 887 -449 874 c 1
 -449 877 -448 909 -408 937 c 0
 -368 963 -308 949 -281 924 c 0
 -248 895 -244 864 -253 826 c 0
 -261 791 -279 769 -311 754 c 1
 -299 733 -290 717 -282 693 c 0
 -273 664 -271 693 -270 636 c 1
 -270 636 -351 681 -532 688 c 0
 -682 696 -756 668 -757 668 c 0
-518 819 m 0
 -518 819 l 0
 -633 822 -653 737 -653 737 c 1
 -653 737 -601 751 -524 748 c 0
 -443 745 -372 719 -372 719 c 1
 -372 719 -405 817 -518 819 c 0
-349 803 m 0
 -284 805 -285 903 -351 903 c 0
 -417 903 -415 802 -349 803 c 0
EndSplineSet
EndChar
StartChar: uni0E37.left
Encoding: 132 63236 100
Width: 0
Flags: HW
HStem: 842 12<-501 -356> 842 108<-506 -484.168>
Fore
-746 676 m 0x40
 -746 676 l 0
 -746 681 -745 768 -677 838 c 0
 -604 914 -520 907 -506 907 c 1
 -506 950 l 1
 -414 950 l 1x40
 -414 891 l 1
 -408 889 -397 881 -386 875 c 0
 -376 869 -357 854 -356 854 c 1x80
 -356 950 l 1
 -256 950 l 1
 -256 684 l 1
 -248 632 l 1
 -248 632 -333 704 -513 711 c 0
 -664 719 -745 676 -746 676 c 0x40
-501 842 m 0x80
 -615 845 -635 760 -635 760 c 1
 -635 760 -582 774 -506 771 c 0
 -425 768 -354 742 -354 742 c 1
 -354 742 -386 840 -501 842 c 0x80
EndSplineSet
EndChar
StartChar: ellipsis
Encoding: 133 8230 101
Width: 637
VWidth: 2048
Flags: HW
HStem: 0 21G<94 125.5 304 348.5 516 547>
VStem: 49 135<66 81> 261 133<50.686 81> 472 133<66 81>
Fore
116 133 m 0
 161 133 184 110 184 66 c 0
 184 48 178 32 164 18 c 0
 152 6 135 0 116 0 c 0
 72 0 49 21 49 66 c 0
 49 110 72 133 116 133 c 0
326 133 m 0
 371 133 394 110 394 66 c 0
 394 21 371 0 326 0 c 0
 282 0 261 21 261 66 c 0
 261 110 282 133 326 133 c 0
538 133 m 0
 582 133 605 110 605 66 c 0
 605 48 599 32 586 18 c 0
 572 6 556 0 538 0 c 0
 494 0 472 21 472 66 c 0
 472 110 494 133 538 133 c 0
EndSplineSet
EndChar
StartChar: uni0E48.low_left
Encoding: 134 63237 102
Width: 0
Flags: HW
VStem: -402 118<668 923>
Fore
-402 668 m 1
 -402 923 l 1
 -284 923 l 1
 -284 668 l 5
 -402 668 l 1
EndSplineSet
EndChar
StartChar: uni0E49.low_left
Encoding: 135 63238 103
Width: 0
Flags: HW
HStem: 766 49<-488 -478>
Fore
-510 716 m 0
 -510 716 l 0
 -490 742 -486 766 -486 766 c 1
 -512 766 -550 782 -566 814 c 0
 -589 868 -559 944 -486 947 c 0
 -428 949 -385 917 -377 868 c 0
 -369 809 -400 753 -418 740 c 1
 -388 745 -360 753 -328 768 c 0
 -291 786 -273 802 -250 823 c 0
 -202 868 -175 923 -175 923 c 1
 -175 785 l 1
 -175 785 -230 728 -322 699 c 0
 -403 673 -509 667 -559 673 c 1
 -559 673 -530 690 -510 716 c 0
-478 815 m 0
 -425 815 -428 898 -481 898 c 0
 -535 898 -532 815 -478 815 c 0
EndSplineSet
EndChar
StartChar: uni0E4A.low_left
Encoding: 136 63239 104
Width: 0
Flags: HW
HStem: 705 21G<-537 -493> 773 26<-540 -507> 832 55<-438 -435> 858 65<-382 -357>
Fore
-535 834 m 0xe0
 -535 834 l 0
 -543 819 -540 802 -540 799 c 1
 -538 799 -507 814 -475 799 c 0
 -435 779 -434 714 -463 688 c 0
 -504 650 -570 676 -592 722 c 0
 -621 785 -601 906 -527 921 c 0
 -469 932 -437 887 -435 887 c 0xe0
 -434 887 -400 923 -357 923 c 0
 -317 923 -277 895 -273 837 c 0
 -267 789 -290 750 -290 750 c 1
 -285 751 -253 769 -230 809 c 0
 -208 849 -204 898 -204 917 c 1
 -124 875 l 1
 -124 875 -146 769 -236 719 c 0
 -294 685 -380 674 -405 674 c 0
 -400 674 -354 704 -343 768 c 0
 -336 812 -343 858 -382 858 c 0xd0
 -405 858 -438 832 -438 832 c 2
 -440 832 -468 860 -501 860 c 0
 -521 860 -529 848 -535 834 c 0xe0
-515 705 m 0
 -471 705 -471 773 -515 773 c 0
 -559 773 -559 705 -515 705 c 0
EndSplineSet
EndChar
StartChar: uni0E4B.low_left
Encoding: 137 63240 105
Width: 0
Flags: HW
HStem: 788 83<-586 -468 -356 -236>
VStem: -468 112<679 788 871 981>
Fore
-468 981 m 1
 -356 981 l 1
 -356 871 l 1
 -236 871 l 1
 -236 788 l 1
 -356 788 l 1
 -356 679 l 1
 -468 679 l 1
 -468 788 l 1
 -586 788 l 1
 -586 871 l 1
 -468 871 l 1
 -468 981 l 1
EndSplineSet
EndChar
StartChar: uni0E4C.low_left
Encoding: 138 63241 106
Width: 0
Flags: HW
HStem: 800 43<-402 -390>
Fore
-342 874 m 0
 -342 874 l 0
 -395 869 -400 843 -402 843 c 0
 -399 843 -303 843 -305 746 c 0
 -305 667 -423 642 -472 700 c 0
 -517 753 -503 846 -445 887 c 0
 -386 927 -336 914 -288 949 c 0
 -264 967 -264 1013 -264 1018 c 1
 -179 1018 l 1
 -179 1013 -187 953 -212 926 c 0
 -238 898 -268 880 -342 874 c 0
-392 713 m 0
 -334 713 -334 800 -392 800 c 0
 -451 800 -451 713 -392 713 c 0
EndSplineSet
EndChar
StartChar: uni0E48.low
Encoding: 139 63242 107
Width: 0
Flags: HW
HStem: 918 20G<-202 -84>
VStem: -202 118<684 938>
AnchorPoint: "AboveBase" -87 613 mark 0
Fore
-202 684 m 1
 -202 938 l 1
 -84 938 l 1
 -84 684 l 1
 -202 684 l 1
EndSplineSet
Substitution: 0 65534 'amn0' uni0E4D
Substitution: 0 65534 'amni' uni0E4D
EndChar
StartChar: uni0E49.low
Encoding: 140 63243 108
Width: 0
Flags: HW
HStem: 791 58<-358 -346>
AnchorPoint: "AboveBase" -87 613 mark 0
Fore
-382 731 m 0
 -382 731 l 0
 -359 762 -356 791 -356 791 c 1
 -385 791 -429 809 -448 848 c 0
 -477 914 -440 999 -356 1004 c 0
 -287 1007 -236 969 -227 910 c 0
 -216 843 -253 776 -273 760 c 1
 -238 765 -205 774 -169 792 c 0
 -124 815 -106 831 -77 858 c 0
 -20 912 11 976 11 976 c 1
 11 814 l 1
 11 814 -54 746 -161 711 c 0
 -258 679 -380 674 -440 681 c 1
 -440 681 -406 699 -382 731 c 0
-346 849 m 0
 -282 851 -285 947 -349 946 c 0
 -412 944 -409 848 -346 849 c 0
EndSplineSet
Substitution: 0 65534 'amn0' uni0E4D
Substitution: 0 65534 'amni' uni0E4D
EndChar
StartChar: uni0E4A.low
Encoding: 141 63244 109
Width: 0
Flags: HW
HStem: 797 32<-405 -366> 898 77<-221 -189>
AnchorPoint: "AboveBase" -87 613 mark 0
Fore
-400 871 m 0
 -400 871 l 0
 -411 849 -405 834 -405 829 c 1
 -403 829 -368 849 -330 829 c 0
 -282 805 -279 731 -314 700 c 0
 -365 655 -441 682 -468 737 c 0
 -503 812 -478 952 -391 972 c 0
 -319 989 -282 935 -282 933 c 0
 -282 932 -241 975 -189 975 c 0
 -143 975 -98 943 -90 874 c 0
 -84 817 -112 771 -112 771 c 1
 -106 774 -69 794 -41 842 c 0
 -15 889 -9 946 -9 966 c 1
 84 920 l 1
 84 920 58 794 -48 734 c 0
 -116 694 -218 681 -245 682 c 1
 -239 685 -189 716 -173 792 c 0
 -164 845 -173 898 -221 898 c 0
 -247 898 -285 868 -285 868 c 2
 -287 868 -319 903 -359 901 c 0
 -382 900 -392 887 -400 871 c 0
-374 717 m 0
 -322 717 -322 797 -374 797 c 0
 -426 797 -426 717 -374 717 c 0
EndSplineSet
Substitution: 0 65534 'amn0' uni0E4D
Substitution: 0 65534 'amni' uni0E4D
EndChar
StartChar: uni0E4B.low
Encoding: 142 63245 110
Width: 0
Flags: HW
HStem: 808 98<-343 -204 -86 54>
VStem: -204 118<682 808 906 1033>
AnchorPoint: "AboveBase" -87 613 mark 0
Fore
-204 1033 m 1
 -86 1033 l 1
 -86 906 l 1
 54 906 l 1
 54 808 l 1
 -86 808 l 1
 -86 682 l 1
 -204 682 l 1
 -204 808 l 1
 -343 808 l 1
 -343 906 l 1
 -204 906 l 1
 -204 1033 l 1
EndSplineSet
Substitution: 0 65534 'amn0' uni0E4D
Substitution: 0 65534 'amni' uni0E4D
EndChar
StartChar: uni0E4C.low
Encoding: 143 63246 111
Width: 0
Flags: HW
HStem: 814 47<-196 -185>
AnchorPoint: "AboveBase" -87 613 mark 0
Fore
-130 895 m 0
 -130 895 l 0
 -190 891 -195 861 -196 861 c 0
 -192 861 -87 861 -89 756 c 0
 -92 665 -222 639 -276 705 c 1
 -326 763 -313 863 -245 910 c 0
 -179 955 -123 940 -72 979 c 0
 -44 1001 -44 1052 -44 1056 c 1
 51 1056 l 1
 51 1052 44 986 15 953 c 0
 -14 921 -51 901 -130 895 c 0
-187 716 m 0
 -123 716 -123 814 -187 814 c 0
 -253 814 -253 716 -187 716 c 0
EndSplineSet
EndChar
StartChar: uni0E0D.descless
Encoding: 144 63247 112
Width: 875
Flags: HW
HStem: -2 59<222 238> 0 78<402 694> 136 66<222 238> 518 81<306 333>
VStem: 104 118<130 287> 441 118<78 415> 674 118<111 595>
Fore
792 147 m 1x7e
 792 147 l 0
 792 118 792 75 771 48 c 0
 756 26 728 0 694 0 c 2
 402 0 l 1
 402 78 l 1
 441 78 l 1x7e
 441 399 l 2
 441 475 409 518 322 518 c 0
 247 518 204 483 204 483 c 1
 207 481 225 471 258 448 c 0
 285 426 308 402 308 402 c 1
 305 402 276 389 247 356 c 0
 224 326 222 291 222 276 c 2
 222 202 l 1
 224 202 319 205 326 113 c 0
 334 25 268 -2 222 -2 c 0xbe
 149 -2 104 46 104 130 c 2
 104 276 l 2
 104 287 107 330 127 357 c 0
 150 386 178 397 178 397 c 1
 178 397 153 423 115 445 c 0
 83 463 49 480 44 481 c 1
 64 509 158 598 319 599 c 0
 500 601 559 506 559 411 c 2
 559 78 l 1
 628 78 l 2
 642 78 651 77 665 89 c 0
 677 101 674 113 674 123 c 2
 674 595 l 1
 792 595 l 1
 792 147 l 1x7e
238 136 m 0
 195 136 193 57 238 57 c 0xbe
 285 57 285 136 238 136 c 0
EndSplineSet
EndChar
StartChar: quoteleft
Encoding: 145 8216 113
Width: 295
Flags: HW
Fore
143 645 m 0
 127 625 124 596 124 593 c 1
 149 599 173 593 192 576 c 0
 225 547 218 475 173 458 c 0
 121 437 83 461 71 486 c 0
 44 535 61 624 103 670 c 0
 127 699 158 717 196 723 c 1
 196 684 l 1
 182 681 162 668 143 645 c 0
EndSplineSet
EndChar
StartChar: quoteright
Encoding: 146 8217 114
Width: 280
Flags: HW
Fore
138 538 m 0
 155 558 158 587 158 590 c 1
 132 584 109 590 89 607 c 0
 57 636 64 708 107 725 c 0
 161 746 201 722 215 697 c 0
 239 648 221 561 178 513 c 0
 153 484 124 468 84 460 c 1
 84 500 l 1
 98 503 118 515 138 538 c 0
EndSplineSet
EndChar
StartChar: quotedblleft
Encoding: 147 8220 115
Width: 487
Flags: HW
Fore
147 655 m 0
 147 655 l 0
 132 615 139 598 139 595 c 1
 141 595 204 596 215 532 c 0
 221 494 196 448 139 448 c 0
 66 448 54 521 63 573 c 0
 78 670 123 736 208 740 c 1
 208 687 l 1
 198 687 159 685 147 655 c 0
362 655 m 0
 345 615 354 598 354 595 c 1
 356 595 418 596 428 532 c 0
 434 494 411 448 354 448 c 0
 279 448 268 521 276 573 c 0
 293 670 336 736 422 740 c 1
 422 687 l 1
 412 687 374 685 362 655 c 0
EndSplineSet
EndChar
StartChar: quotedblright
Encoding: 148 8221 116
Width: 493
Flags: HW
Fore
356 535 m 0
 356 535 l 0
 371 575 363 592 363 595 c 1
 362 595 299 593 288 658 c 0
 282 696 307 742 363 742 c 0
 437 742 449 668 440 616 c 0
 423 520 380 454 294 449 c 1
 294 503 l 1
 305 503 343 504 356 535 c 0
141 535 m 0
 158 575 149 592 149 595 c 1
 147 595 84 593 75 658 c 0
 67 696 92 742 149 742 c 0
 224 742 235 668 225 616 c 0
 210 520 167 454 80 449 c 1
 80 503 l 1
 90 503 129 504 141 535 c 0
EndSplineSet
EndChar
StartChar: bullet
Encoding: 149 8226 117
Width: 531
Flags: HW
Fore
281 437 m 0
 506 437 506 100 281 100 c 0
 57 100 57 437 281 437 c 0
EndSplineSet
EndChar
StartChar: endash
Encoding: 150 8211 118
Width: 665
Flags: HW
HStem: 248 97<48 609>
Fore
609 248 m 1
 48 248 l 1
 48 345 l 1
 609 345 l 1
 609 248 l 1
EndSplineSet
EndChar
StartChar: emdash
Encoding: 151 8212 119
Width: 1056
Flags: HW
HStem: 248 97<49 1007>
Fore
1007 248 m 1
 49 248 l 1
 49 345 l 1
 1007 345 l 1
 1002 313 1007 270 1007 248 c 1
EndSplineSet
EndChar
StartChar: uni0E31.left
Encoding: 152 63248 120
Width: 0
Flags: HW
Fore
9 788 m 1
 9 788 l 0
 8 788 -51 725 -169 699 c 0
 -274 674 -388 687 -434 704 c 0
 -544 748 -535 872 -471 910 c 0
 -408 950 -314 918 -302 845 c 0
 -293 789 -326 757 -326 757 c 1
 -322 757 -245 753 -169 783 c 0
 -37 834 9 914 9 914 c 1
 9 788 l 1
-363 828 m 0
 -365 889 -457 886 -455 825 c 0
 -454 765 -362 766 -363 828 c 0
EndSplineSet
EndChar
StartChar: uni0E4D.left
Encoding: 153 63249 121
Width: 0
Flags: HW
HStem: 696 66<-406.997 -392> 877 69<-406.997 -392>
Fore
-395 946 m 0
 -395 946 l 0
 -228 946 -228 696 -395 696 c 0
 -563 696 -563 946 -395 946 c 0
-395 762 m 0
 -319 762 -319 877 -395 877 c 0
 -472 877 -472 762 -395 762 c 0
EndSplineSet
EndChar
StartChar: uni0E47.left
Encoding: 154 63250 122
Width: 0
Flags: HW
HStem: 806 55<-344 -334>
Fore
-201 1061 m 1
 -201 1061 l 1
 -201 1061 -195 932 -297 917 c 0
 -376 904 -422 929 -497 926 c 0
 -543 923 -564 881 -564 840 c 0
 -564 802 -533 789 -533 789 c 1
 -533 792 -530 837 -494 846 c 0
 -455 857 -411 805 -411 805 c 1
 -411 805 -399 861 -337 861 c 0
 -290 861 -259 819 -265 760 c 0
 -268 717 -299 691 -337 690 c 0
 -406 687 -434 766 -471 765 c 0
 -517 763 -503 690 -503 688 c 1
 -561 690 -613 716 -632 769 c 0
 -661 849 -638 953 -553 981 c 0
 -484 1002 -388 972 -322 990 c 0
 -288 998 -293 1033 -290 1061 c 1
 -201 1061 l 1
-336 806 m 0
 -369 806 -374 746 -336 746 c 0
 -299 746 -303 806 -336 806 c 0
EndSplineSet
EndChar
StartChar: uni0E48.left
Encoding: 155 63251 123
Width: 0
Flags: HW
VStem: -374 118<999 1202>
Fore
-374 999 m 1
 -374 1202 l 1
 -256 1202 l 1
 -256 999 l 1
 -374 999 l 1
EndSplineSet
EndChar
StartChar: uni0E49.left
Encoding: 156 63252 124
Width: 0
Flags: HW
HStem: 1056 48<-355 -345>
Fore
-376 1019 m 0
 -376 1019 l 0
 -356 1045 -353 1056 -353 1056 c 1
 -377 1056 -415 1070 -429 1102 c 0
 -452 1154 -423 1229 -353 1232 c 0
 -294 1234 -253 1203 -245 1154 c 0
 -236 1097 -267 1053 -285 1041 c 1
 -256 1044 -228 1053 -198 1068 c 0
 -161 1085 -143 1101 -120 1122 c 0
 -74 1165 -48 1220 -48 1220 c 1
 -48 1087 l 1
 -48 1087 -101 1032 -192 1002 c 0
 -270 978 -374 972 -423 978 c 1
 -423 978 -395 993 -376 1019 c 0
-345 1104 m 0
 -293 1104 -294 1183 -348 1183 c 0
 -400 1183 -397 1104 -345 1104 c 0
EndSplineSet
EndChar
StartChar: uni0E4A.left
Encoding: 157 63253 125
Width: 0
Flags: HW
HStem: 1090 27<-420 -386> 1151 55<-319 -316> 1177 65<-262 -236>
Fore
-415 1153 m 0xc0
 -415 1153 l 0
 -422 1136 -420 1120 -420 1117 c 1
 -418 1117 -386 1133 -356 1117 c 0
 -314 1097 -314 1033 -342 1007 c 0
 -383 969 -451 993 -471 1039 c 0
 -501 1104 -480 1225 -408 1239 c 0
 -348 1251 -317 1206 -316 1206 c 0xc0
 -314 1206 -279 1242 -236 1242 c 0
 -196 1242 -158 1214 -152 1156 c 0
 -147 1108 -170 1068 -170 1068 c 1
 -166 1070 -132 1087 -110 1128 c 0
 -87 1168 -83 1217 -83 1235 c 1
 -3 1194 l 1
 -3 1194 -26 1088 -116 1036 c 0
 -175 1004 -261 992 -284 992 c 1
 -279 993 -233 1022 -224 1087 c 0
 -216 1131 -224 1177 -262 1177 c 0xa0
 -284 1177 -319 1151 -319 1151 c 2
 -320 1151 -346 1179 -380 1179 c 0
 -400 1179 -409 1166 -415 1153 c 0xc0
-394 1024 m 0
 -349 1024 -349 1090 -394 1090 c 0
 -438 1090 -438 1024 -394 1024 c 0
EndSplineSet
EndChar
StartChar: uni0E4B.left
Encoding: 158 63254 126
Width: 0
Flags: HW
HStem: 1073 69<-466 -365 -252 -150>
Fore
-366 1223 m 1
 -253 1223 l 1
 -251 1142 l 1
 -150 1142 l 1
 -150 1073 l 1
 -251 1073 l 1
 -253 996 l 1
 -366 996 l 1
 -365 1073 l 1
 -466 1073 l 1
 -466 1142 l 1
 -365 1142 l 1
 -366 1223 l 1
EndSplineSet
EndChar
StartChar: uni0E4C.left
Encoding: 159 63255 127
Width: 0
Flags: HW
HStem: 1009 39<-290 -280>
Fore
-235 1076 m 0
 -235 1076 l 0
 -285 1071 -290 1048 -290 1048 c 1
 -285 1048 -198 1048 -199 958 c 0
 -199 881 -313 858 -359 915 c 0
 -399 963 -388 1052 -331 1090 c 0
 -276 1128 -228 1116 -184 1150 c 0
 -162 1165 -162 1209 -162 1214 c 1
 -80 1214 l 1
 -80 1209 -86 1151 -112 1125 c 0
 -136 1101 -167 1082 -235 1076 c 0
-282 924 m 0
 -227 924 -227 1009 -282 1009 c 0
 -337 1009 -337 924 -282 924 c 0
EndSplineSet
EndChar
StartChar: uni0E01
Encoding: 161 3585 129
Width: 674
Flags: HW
HStem: 0 21G<116 233 474 592> 524 74<318 362>
VStem: 116 117<0 289> 474 118<0 417>
Fore
116 0 m 1
 116 276 l 2
 116 287 120 330 139 357 c 0
 162 386 190 397 190 397 c 1
 190 397 166 423 126 445 c 0
 94 463 61 477 57 478 c 1
 75 506 176 598 336 598 c 4
 518 598 592 506 592 411 c 2
 592 0 l 1
 474 0 l 1
 474 409 l 2
 474 486 426 524 339 524 c 0
 259 524 216 483 216 483 c 1
 219 481 238 471 270 448 c 0
 297 426 320 402 320 402 c 1
 317 402 287 389 259 356 c 0
 235 326 233 291 233 276 c 2
 233 0 l 1
 116 0 l 1
EndSplineSet
EndChar
StartChar: uni0E02
Encoding: 162 3586 130
Width: 659
Flags: HW
HStem: 0 78<120 449> 342 70<139.063 141>
VStem: 190 118<78 232> 463 116<127 595>
Fore
579 133 m 1
 579 133 l 0
 579 115 576 71 549 38 c 0
 515 2 472 0 449 0 c 2
 120 0 l 1
 120 78 l 1
 190 78 l 1
 190 224 l 2
 190 277 231 308 265 356 c 0
 297 402 297 441 285 474 c 0
 262 540 215 530 196 530 c 1
 204 526 231 509 241 466 c 0
 253 414 221 342 141 342 c 0
 77 342 28 385 29 455 c 0
 31 530 86 589 170 596 c 0
 277 607 346 572 377 501 c 0
 397 455 386 395 363 354 c 0
 326 290 308 268 308 230 c 2
 308 78 l 1
 411 78 l 2
 426 78 440 81 452 95 c 0
 461 106 463 121 463 135 c 2
 463 595 l 1
 579 595 l 5
 579 133 l 1
139 412 m 0
 187 409 190 489 141 490 c 0
 95 490 92 415 139 412 c 0
EndSplineSet
EndChar
StartChar: uni0E03
Encoding: 163 3587 131
Width: 669
Flags: HW
HStem: 0 78<132 432> 458 85<221 225>
VStem: 204 118<78 225> 464 117<111 595>
Fore
581 120 m 1
 581 120 l 0
 581 106 576 55 544 29 c 0
 512 5 475 0 432 0 c 2
 132 0 l 1
 132 78 l 1
 204 78 l 1
 204 221 l 2
 204 273 248 316 290 386 c 0
 333 460 293 498 282 500 c 0
 256 504 222 458 221 458 c 0
 219 458 207 487 178 506 c 0
 152 523 124 524 110 509 c 0
 100 497 98 483 98 481 c 1
 98 481 116 487 143 477 c 0
 198 457 215 386 187 336 c 0
 153 271 55 274 23 339 c 0
 -5 391 8 463 25 507 c 0
 44 558 86 595 133 596 c 0
 185 598 224 543 225 543 c 0
 230 541 264 596 307 596 c 0
 366 596 402 523 406 472 c 0
 409 438 400 382 368 333 c 0
 330 277 322 256 322 215 c 2
 322 78 l 1
 409 78 l 2
 422 78 440 80 454 92 c 0
 468 104 464 123 464 132 c 2
 464 595 l 1
 581 595 l 5
 581 120 l 1
141 389 m 0
 141 411 129 429 107 429 c 0
 64 429 66 353 109 351 c 0
 129 351 139 369 141 389 c 0
EndSplineSet
EndChar
StartChar: uni0E04
Encoding: 164 3588 132
Width: 702
Flags: HW
HStem: 0 21G<147 267 503 619> 348 66<354 363.385> 510 88<340 377.649>
VStem: 147 120<0 23> 503 116<0 401>
Fore
619 0 m 1
 503 0 l 1
 503 374 l 2
 503 446 487 513 340 510 c 0
 224 509 184 449 178 382 c 0
 173 310 210 173 213 169 c 1
 213 173 224 302 248 348 c 0
 268 386 293 412 354 414 c 0
 412 414 446 374 455 331 c 0
 464 285 448 231 394 213 c 0
 342 195 300 221 300 221 c 1
 297 205 287 176 281 135 c 0
 273 83 267 31 267 0 c 1
 147 0 l 1
 147 21 l 2
 147 43 139 104 124 144 c 0
 106 199 64 284 71 380 c 0
 77 504 164 593 343 598 c 0
 520 602 619 517 619 380 c 2
 619 0 l 1
354 348 m 0
 303 348 303 273 354 273 c 0
 403 273 403 348 354 348 c 0
EndSplineSet
EndChar
StartChar: uni0E05
Encoding: 165 3589 133
Width: 698
Flags: HW
HStem: 0 21G<136 254 494 612> 325 67<337 346>
VStem: 494 118<0 417>
Fore
612 0 m 1
 494 0 l 1
 494 374 l 2
 494 399 498 440 480 471 c 0
 463 501 434 501 428 498 c 2
 339 452 l 1
 245 497 l 2
 231 503 176 472 169 383 c 0
 161 311 199 173 202 169 c 1
 202 173 216 284 235 320 c 0
 253 354 276 392 343 392 c 0
 400 394 440 356 446 310 c 0
 452 262 441 216 383 192 c 0
 337 172 290 195 290 195 c 1
 284 172 277 153 273 127 c 0
 265 78 258 48 254 0 c 1
 136 0 l 1
 136 25 l 2
 136 43 132 100 116 144 c 0
 97 199 54 282 61 379 c 0
 75 570 236 602 245 598 c 2
 339 541 l 1
 437 598 l 2
 441 599 520 595 570 535 c 0
 619 475 612 412 612 382 c 2
 612 0 l 1
346 325 m 0
 297 325 297 250 346 250 c 0
 395 250 395 325 346 325 c 0
EndSplineSet
EndChar
StartChar: uni0E06
Encoding: 166 3590 134
Width: 767
Flags: HW
HStem: -5 21G<245 298> 458 85<230 236>
VStem: 276 118<81 154 280 364> 563 116<131 595>
Fore
679 89 m 1
 679 89 l 0
 679 46 659 11 613 0 c 0
 550 -14 520 26 468 83 c 0
 417 138 397 150 394 155 c 1
 394 98 l 2
 394 11 325 -5 271 -5 c 0
 219 -5 166 25 147 78 c 0
 127 136 141 213 189 250 c 0
 221 274 256 281 276 281 c 1
 276 351 l 2
 276 388 302 403 311 443 c 0
 319 478 303 498 293 500 c 0
 267 504 231 458 230 458 c 0
 228 458 216 487 189 506 c 0
 162 523 135 524 121 509 c 0
 110 497 109 483 109 481 c 1
 109 481 126 487 153 477 c 0
 208 457 225 386 198 336 c 0
 164 271 66 274 32 339 c 0
 6 391 18 463 35 507 c 0
 55 558 97 595 144 596 c 0
 196 598 235 543 236 543 c 0
 241 541 273 596 317 596 c 0
 376 596 414 523 417 472 c 0
 418 438 394 395 394 348 c 2
 394 258 l 1
 397 256 428 244 466 213 c 0
 503 182 512 172 544 143 c 0
 561 127 563 127 563 139 c 2
 563 595 l 1
 679 595 l 1
 679 89 l 1
276 107 m 0
 276 198 l 0
 274 198 233 216 222 152 c 0
 213 104 233 78 261 77 c 0
 277 75 276 77 276 107 c 0
150 388 m 0
 150 409 139 428 118 428 c 0
 75 428 77 351 118 349 c 0
 139 349 150 368 150 388 c 0
EndSplineSet
EndChar
StartChar: uni0E07
Encoding: 167 3591 135
Width: 510
Flags: HW
HStem: 379 70<277.357 288> 527 71<276.374 290>
VStem: 300 118<139 379> 325 93<460 487>
Fore
418 152 m 1xe0
 418 152 l 0
 418 103 406 54 354 20 c 0
 308 -11 176 -26 127 74 c 0
 104 123 103 167 75 212 c 0
 55 242 40 236 18 242 c 1
 18 345 l 1
 21 345 90 357 132 307 c 0
 189 236 184 83 258 86 c 0
 296 87 300 116 300 146 c 2
 300 379 l 1xe0
 299 379 262 374 225 395 c 0
 184 422 169 466 179 517 c 0
 192 570 241 598 287 598 c 0
 406 598 418 504 418 460 c 2xd0
 418 152 l 1xe0
325 487 m 0xd0
 325 507 313 527 287 527 c 0
 230 527 236 449 287 449 c 0
 311 448 325 468 325 487 c 0xd0
EndSplineSet
EndChar
StartChar: uni0E08
Encoding: 168 3592 136
Width: 606
Flags: HW
HStem: -3 21G<315.5 387>
VStem: 406 117<137 405>
Fore
523 202 m 1
 523 202 l 0
 523 161 529 97 490 52 c 0
 455 11 417 -3 357 -3 c 0
 274 -3 221 38 210 94 c 0
 199 143 201 193 201 198 c 1
 189 196 149 198 126 212 c 0
 63 247 64 353 130 389 c 0
 181 417 253 406 282 357 c 0
 311 311 302 228 308 175 c 0
 313 124 308 86 357 86 c 0
 394 84 406 100 406 139 c 2
 406 379 l 2
 406 437 395 480 326 501 c 0
 250 524 173 501 135 474 c 0
 97 445 83 435 83 434 c 1
 15 486 l 1
 15 486 26 533 116 572 c 0
 187 604 342 610 422 567 c 0
 517 517 523 461 523 388 c 2
 523 202 l 1
221 299 m 0
 219 319 207 337 182 337 c 0
 133 337 129 264 182 262 c 0
 208 262 221 281 221 299 c 0
EndSplineSet
EndChar
StartChar: uni0E09
Encoding: 169 3593 137
Width: 711
Flags: HW
HStem: 179 68<152 159> 506 98<264 314>
VStem: 159 117<74 179> 445 118<94 162 274 417>
Fore
667 44 m 0
 667 44 l 0
 636 -2 567 -17 504 11 c 0
 449 35 445 72 445 94 c 2
 445 162 l 1
 443 159 414 129 372 61 c 0
 336 5 302 -6 235 -2 c 0
 190 2 159 34 159 74 c 2
 159 179 l 1
 118 179 81 199 66 239 c 0
 43 293 66 379 155 386 c 0
 228 392 276 339 276 276 c 2
 276 124 l 2
 276 116 276 113 285 113 c 0
 303 115 322 149 362 198 c 0
 409 258 440 271 445 274 c 1
 445 389 l 2
 445 468 394 504 302 506 c 0
 138 510 106 431 104 426 c 1
 25 475 l 1
 25 478 81 602 291 604 c 0
 451 605 561 543 563 417 c 1
 563 297 l 1
 567 297 609 294 648 265 c 0
 702 225 707 104 667 44 c 0
618 155 m 0
 618 155 l 0
 607 222 563 219 563 219 c 1
 563 133 l 2
 563 100 558 86 584 86 c 0
 628 86 615 175 618 155 c 0
155 319 m 0
 112 320 110 247 155 247 c 0
 185 247 205 317 155 319 c 0
EndSplineSet
EndChar
StartChar: uni0E0A
Encoding: 170 3594 138
Width: 656
Flags: HW
HStem: 3 78<104 434>
VStem: 175 118<81 235> 448 118<130 328>
Fore
609 561 m 1
 609 561 l 0
 609 559 582 530 530 500 c 0
 501 481 463 469 458 468 c 1
 463 466 503 451 529 418 c 0
 561 380 566 346 566 300 c 2
 566 136 l 2
 566 118 563 72 533 41 c 0
 500 5 458 3 434 3 c 2
 104 3 l 1
 104 81 l 1
 175 81 l 1
 175 225 l 2
 175 281 215 303 250 359 c 0
 279 405 281 437 271 471 c 0
 251 536 192 527 181 527 c 1
 189 523 218 512 224 469 c 0
 233 409 198 348 126 345 c 0
 69 343 20 385 20 457 c 0
 20 530 77 589 156 596 c 0
 254 605 328 576 360 506 c 0
 362 500 365 494 366 487 c 1
 371 490 414 512 477 558 c 0
 553 613 581 668 582 670 c 1
 609 561 l 1
448 138 m 0
 448 325 l 0
 448 351 445 372 428 391 c 0
 402 422 395 422 371 423 c 2
 369 425 l 1
 366 400 359 376 348 357 c 0
 311 293 293 271 293 233 c 2
 293 81 l 1
 395 81 l 2
 412 81 425 84 437 98 c 0
 446 109 448 124 448 138 c 0
121 412 m 0
 169 409 173 489 123 490 c 0
 77 490 75 415 121 412 c 0
EndSplineSet
EndChar
StartChar: uni0E0B
Encoding: 171 3595 139
Width: 694
Flags: HW
HStem: -3 78<147 477> 458 85<236 242>
VStem: 219 117<75 289> 490 119<124 322>
Fore
651 555 m 1
 651 555 l 0
 651 553 625 523 573 492 c 0
 544 474 506 463 501 461 c 1
 506 461 546 446 572 414 c 0
 604 376 609 342 609 294 c 2
 609 130 l 2
 609 112 605 67 576 35 c 0
 543 -2 501 -3 477 -3 c 2
 147 -3 l 1
 147 75 l 1
 219 75 l 1
 219 273 l 2
 219 320 245 348 281 386 c 0
 339 449 310 498 299 500 c 0
 271 504 238 458 236 458 c 0
 235 458 222 487 195 506 c 0
 167 523 141 523 126 509 c 1
 115 497 115 483 115 481 c 1
 115 481 132 487 159 477 c 0
 215 457 230 386 204 336 c 0
 170 271 74 276 38 339 c 0
 11 391 21 463 38 507 c 0
 58 558 103 595 150 596 c 0
 202 598 241 543 242 543 c 0
 247 541 279 596 322 596 c 0
 379 596 402 532 408 481 c 1
 412 483 457 504 521 550 c 0
 587 599 625 662 627 665 c 1
 651 555 l 1
490 132 m 0
 490 320 l 0
 490 345 486 369 471 385 c 1
 446 414 429 420 400 420 c 1
 400 425 l 1
 392 406 380 386 363 363 c 0
 334 322 336 299 336 282 c 2
 336 75 l 1
 438 75 l 2
 455 75 469 78 480 92 c 0
 489 103 490 118 490 132 c 0
158 389 m 0
 158 409 147 426 124 426 c 0
 81 426 83 354 124 353 c 0
 146 353 156 369 158 389 c 0
EndSplineSet
EndChar
StartChar: uni0E0C
Encoding: 172 3596 140
Width: 882
Flags: HW
HStem: -2 59<225 240> 166 0<417 466> 518 81<301 335>
VStem: 109 116<130 284> 443 118<236 428> 676 118<159 595>
Fore
248 356 m 0
 129 357 l 0
 152 386 179 397 179 397 c 1
 179 397 155 423 116 445 c 0
 83 463 51 477 46 478 c 1
 66 506 150 596 320 599 c 0
 501 602 561 506 561 411 c 2
 561 244 l 1
 563 244 595 238 619 221 c 0
 642 204 664 185 676 159 c 1
 676 595 l 1
 794 595 l 1
 794 75 l 2
 794 58 789 28 768 15 c 0
 736 -6 690 -6 671 25 c 1
 655 58 650 83 619 126 c 0
 593 166 564 173 561 175 c 1
 563 172 578 133 569 84 c 0
 556 26 521 -5 464 -5 c 0
 399 -5 339 61 362 156 c 0
 379 230 443 236 443 236 c 1
 443 409 l 2
 443 486 411 518 322 518 c 0
 248 518 205 483 205 483 c 1
 208 481 227 471 259 448 c 0
 287 426 310 402 310 402 c 1
 307 402 277 389 248 356 c 0
466 166 m 0
 466 166 l 0
 417 166 412 66 466 69 c 0
 513 71 515 167 466 166 c 0
132 357 m 0
 251 356 l 0
 228 326 225 291 225 276 c 2
 225 202 l 1
 228 202 323 205 331 113 c 0
 339 25 273 -2 225 -2 c 0
 153 -2 109 46 109 130 c 2
 109 276 l 2
 109 287 112 330 132 357 c 0
238 57 m 0
 285 57 285 136 238 136 c 0
 193 136 193 57 238 57 c 0
EndSplineSet
EndChar
StartChar: uni0E0D
Encoding: 173 3597 141
Width: 882
Flags: HW
HStem: -288 64<518 556> -2 59<225 242> 0 78<406 699> 136 66<225 242> 518 81<304 338>
VStem: 109 116<130 289> 446 118<78 417> 679 118<111 595>
Fore
797 147 m 1xbf
 797 147 l 0
 797 118 797 75 776 48 c 0
 760 26 733 0 699 0 c 2
 406 0 l 1
 406 78 l 1
 446 78 l 1xbf
 446 409 l 2
 446 486 414 518 325 518 c 0
 251 518 208 483 208 483 c 1
 212 481 230 471 262 448 c 0
 290 426 313 402 313 402 c 1
 310 402 279 389 251 356 c 0
 228 326 225 291 225 276 c 2
 225 202 l 1
 228 202 323 205 331 113 c 0
 339 25 273 -2 225 -2 c 0xdf
 153 -2 109 46 109 130 c 2
 109 276 l 2
 109 287 112 330 132 357 c 0
 155 386 182 397 182 397 c 1
 182 397 158 423 120 445 c 0
 86 463 54 477 49 478 c 1
 69 506 153 599 322 599 c 0
 504 599 564 506 564 411 c 2
 564 78 l 1
 633 78 l 2
 647 78 656 77 670 89 c 0
 682 101 679 113 679 123 c 2
 679 595 l 1
 797 595 l 1
 797 147 l 1xbf
789 -72 m 1
 789 -72 l 1
 789 -72 792 -156 740 -215 c 0
 700 -261 642 -287 556 -288 c 0
 471 -290 382 -259 372 -173 c 0
 368 -126 392 -69 466 -67 c 0
 533 -64 567 -123 556 -178 c 0
 549 -216 520 -224 518 -224 c 0
 520 -224 543 -228 579 -224 c 0
 619 -218 651 -195 670 -161 c 0
 687 -126 684 -74 684 -74 c 1
 789 -72 l 1
238 57 m 0xdf
 238 57 l 0
 285 57 285 136 238 136 c 0
 193 136 193 57 238 57 c 0xdf
434 -159 m 0
 434 -178 446 -195 469 -195 c 0
 515 -195 517 -124 471 -124 c 0
 446 -124 435 -141 434 -159 c 0
EndSplineSet
Substitution: 0 65534 'nds1' uni0E0D.descless
Substitution: 0 65534 'nds0' uni0E0D.descless
Substitution: 0 65534 'ndsc' uni0E0D.descless
EndChar
StartChar: uni0E0E
Encoding: 174 3598 142
Width: 680
Flags: HW
HStem: -316 126<422 423.921> -210 175<270 316> -3 64<134 151> 520 81<335 383>
VStem: 475 118<-134 421>
AnchorPoint: "BelowBase" 593 -309 basechar 0
Fore
593 -133 m 1xb8
 593 -133 l 0
 593 -136 572 -192 523 -239 c 0
 475 -285 423 -316 422 -316 c 1xb8
 418 -311 392 -281 365 -253 c 0
 346 -235 316 -210 314 -210 c 1
 314 -212 288 -290 213 -308 c 0
 89 -336 34 -230 58 -159 c 0
 100 -34 258 -90 259 -90 c 1
 259 -90 262 -78 265 -64 c 0
 267 -48 270 -35 270 -35 c 1
 356 -35 l 1x78
 356 -37 353 -63 349 -81 c 0
 345 -110 337 -124 337 -124 c 1
 337 -124 368 -141 380 -153 c 0
 403 -173 418 -185 422 -190 c 1
 425 -190 431 -184 451 -169 c 0
 466 -155 475 -133 475 -133 c 1
 475 409 l 2
 475 486 446 520 359 520 c 0
 277 521 235 483 235 483 c 1
 238 481 258 471 288 448 c 0
 316 426 339 402 339 402 c 1
 336 402 307 389 277 356 c 0
 254 326 253 291 253 276 c 2
 253 112 l 2
 253 48 219 -3 149 -3 c 0
 77 -3 29 51 46 124 c 0
 63 202 135 198 135 198 c 1
 135 276 l 2
 135 287 138 330 159 357 c 0
 182 386 210 397 210 397 c 1
 210 397 184 423 146 445 c 0
 113 463 80 477 75 478 c 1
 95 506 187 601 356 601 c 0
 536 601 593 506 593 411 c 2
 593 -133 l 1xb8
241 -159 m 0
 241 -159 l 0
 238 -155 176 -129 144 -167 c 0
 116 -201 136 -239 178 -238 c 0
 233 -236 242 -162 241 -159 c 0
143 135 m 0
 100 135 98 61 143 61 c 0
 185 61 185 135 143 135 c 0
EndSplineSet
EndChar
StartChar: uni0E0F
Encoding: 175 3599 143
Width: 689
Flags: HW
HStem: -311 133<449 452> -3 61<143 161> 521 78<344 385>
VStem: 167 64<-219 -162> 181 81<-86 -35> 483 118<-134 426>
AnchorPoint: "BelowBase" 602 -309 basechar 0
Fore
601 -133 m 1xf4
 601 -133 l 1
 601 -133 589 -182 550 -231 c 0
 513 -277 455 -311 452 -311 c 1
 368 -193 l 1
 297 -307 l 1
 231 -219 l 1xf4
 231 -224 208 -293 150 -303 c 0
 72 -317 14 -235 38 -147 c 0
 71 -34 179 -86 181 -86 c 1
 181 -35 l 1
 262 -35 l 1
 262 -37 264 -58 262 -80 c 0xec
 259 -97 258 -124 258 -124 c 1
 291 -175 l 1
 363 -66 l 1
 449 -178 l 1
 451 -178 460 -172 471 -159 c 0
 480 -147 483 -133 483 -133 c 1
 483 409 l 2
 483 486 454 521 366 521 c 0
 285 523 242 483 242 483 c 1
 245 481 265 471 296 448 c 0
 323 426 346 402 346 402 c 1
 343 402 314 389 285 356 c 0
 262 326 261 291 261 276 c 2
 261 112 l 2
 261 48 225 -3 156 -3 c 0
 84 -3 41 49 55 124 c 0
 69 199 143 198 143 198 c 1
 143 276 l 2
 143 287 146 330 167 357 c 0
 189 386 218 397 218 397 c 1
 218 397 192 423 153 445 c 0
 121 463 87 477 83 478 c 1
 103 506 204 599 363 599 c 0
 544 599 601 507 601 412 c 2
 601 -133 l 1xf4
167 -162 m 0
 167 -162 l 0
 164 -158 144 -126 113 -152 c 0
 87 -173 97 -238 133 -233 c 0
 172 -228 167 -164 167 -162 c 0
152 132 m 0
 107 132 107 58 152 58 c 0
 195 58 195 132 152 132 c 0
EndSplineSet
EndChar
StartChar: uni0E10
Encoding: 176 3600 144
Width: 608
Flags: HW
HStem: -236 58<416 423> -110 56<422 431> 445 45<46 175> 495 74<464 476>
VStem: 144 63<-193 -141>
Fore
570 532 m 1
 570 532 l 0
 567 530 536 494 464 495 c 0
 379 497 333 538 248 532 c 0
 190 527 176 490 175 490 c 0
 179 490 250 490 343 461 c 0
 438 431 483 402 506 353 c 0
 521 320 518 300 517 273 c 1
 507 133 l 1
 504 80 484 37 431 12 c 0
 377 -14 279 -9 244 15 c 0
 208 38 195 57 189 110 c 1
 182 170 l 1
 124 158 55 195 58 271 c 0
 61 336 112 380 182 372 c 0
 250 366 285 325 290 247 c 2
 297 115 l 2
 299 89 308 69 345 69 c 0
 379 69 391 86 392 112 c 1
 403 279 l 1
 405 310 403 322 379 349 c 0
 353 380 281 408 198 422 c 0
 113 437 48 445 46 445 c 1
 46 448 49 507 118 561 c 0
 181 612 271 604 319 596 c 0
 379 587 423 566 474 569 c 0
 521 570 535 598 535 598 c 1
 570 532 l 1
521 -213 m 1
 521 -213 l 0
 521 -227 517 -276 494 -302 c 0
 463 -337 420 -346 372 -342 c 0
 310 -337 273 -284 273 -284 c 1
 218 -343 l 1
 172 -271 l 1
 172 -271 138 -349 77 -349 c 0
 11 -349 -26 -279 -18 -218 c 0
 -12 -170 15 -127 63 -121 c 0
 109 -115 144 -141 144 -141 c 1
 144 -139 152 -127 155 -104 c 0
 158 -77 159 -61 159 -60 c 1
 238 -60 l 1
 238 -61 236 -98 227 -133 c 0
 219 -172 207 -192 207 -193 c 1
 235 -238 l 1
 277 -196 l 1
 277 -199 296 -227 322 -247 c 0
 339 -261 357 -271 380 -270 c 0
 420 -265 418 -236 418 -236 c 1
 414 -236 342 -231 330 -167 c 0
 320 -110 354 -52 422 -54 c 0
 507 -54 521 -116 521 -176 c 2
 521 -213 l 1
162 233 m 0
 162 233 l 0
 210 233 210 305 162 305 c 0
 113 305 113 233 162 233 c 0
118 -213 m 0
 118 -213 l 1
 118 -213 71 -156 49 -205 c 0
 34 -239 51 -285 81 -276 c 0
 112 -268 118 -215 118 -213 c 0
423 -110 m 0
 377 -110 377 -178 423 -178 c 0
 468 -178 468 -110 423 -110 c 0
EndSplineSet
Substitution: 0 65534 'nds1' uni0E10.descless
Substitution: 0 65534 'nds0' uni0E10.descless
Substitution: 0 65534 'ndsc' uni0E10.descless
EndChar
StartChar: uni0E11
Encoding: 177 3601 145
Width: 832
Flags: HW
HStem: 0 21G<271 391> 451 89<225 231>
VStem: 271 115<0 372> 628 118<2 409 409.032 438.692>
Fore
746 0 m 1
 628 2 l 0
 628 109 628 377 628 409 c 0
 627 446 630 457 601 466 c 0
 556 481 500 354 449 231 c 0
 411 136 391 6 391 0 c 1
 271 0 l 1
 271 317 l 2
 271 339 273 368 291 405 c 0
 328 477 314 498 291 500 c 0
 265 501 227 451 225 451 c 0
 224 451 219 474 187 498 c 0
 164 517 139 517 124 500 c 0
 110 483 112 463 112 461 c 1
 112 461 133 468 161 458 c 0
 215 440 231 372 205 316 c 0
 175 251 74 256 40 320 c 0
 14 372 21 457 41 504 c 0
 63 555 101 596 150 596 c 0
 202 596 230 540 231 540 c 0
 236 538 267 595 313 596 c 0
 374 598 420 532 409 471 c 0
 399 412 386 409 386 372 c 2
 386 287 l 2
 386 294 423 399 464 469 c 0
 520 563 579 610 651 595 c 0
 734 578 746 497 746 468 c 2
 746 0 l 1
159 368 m 0
 159 388 149 406 127 406 c 0
 84 406 84 331 127 330 c 0
 147 330 159 346 159 368 c 0
EndSplineSet
EndChar
StartChar: uni0E12
Encoding: 178 3602 146
Width: 924
Flags: HW
HStem: -11 77<529 531> 176 78<609 620>
VStem: 490 119<230 422> 716 116<195 595>
Fore
832 104 m 1
 832 104 l 0
 832 84 837 44 819 18 c 0
 808 5 794 0 777 0 c 2
 727 0 l 1
 727 2 717 71 684 123 c 0
 650 175 616 176 615 176 c 1
 618 169 645 129 632 75 c 0
 621 31 592 -11 529 -11 c 0
 463 -11 415 38 418 124 c 0
 422 213 489 230 490 230 c 1
 490 389 l 2
 490 417 490 446 477 472 c 0
 460 506 429 506 426 504 c 2
 336 455 l 1
 251 503 l 1
 251 503 196 498 176 409 c 0
 164 348 175 281 193 231 c 0
 224 155 227 112 227 112 c 1
 236 130 236 130 247 152 c 0
 264 185 279 215 279 215 c 1
 279 215 222 225 224 311 c 0
 225 379 288 426 357 402 c 0
 426 376 432 296 392 224 c 0
 366 178 366 170 326 98 c 0
 305 61 277 2 277 0 c 1
 133 0 l 1
 133 5 133 41 116 116 c 0
 87 236 41 322 67 432 c 0
 101 582 225 599 230 598 c 2
 334 547 l 1
 425 598 l 2
 428 599 495 596 546 550 c 0
 590 510 609 466 609 405 c 2
 609 254 l 1
 615 254 641 251 667 238 c 0
 699 221 714 198 716 195 c 1
 716 595 l 1
 832 595 l 1
 832 104 l 1
354 303 m 0
 354 303 l 0
 354 328 342 342 322 342 c 0
 276 342 276 265 325 265 c 0
 343 265 354 279 354 303 c 0
563 110 m 0
 561 179 494 179 492 112 c 0
 490 84 503 66 529 66 c 0
 550 66 564 83 563 110 c 0
EndSplineSet
EndChar
StartChar: uni0E13
Encoding: 179 3603 147
Width: 958
Flags: HW
HStem: -2 62<224 239> 139 63<224 239> 520 78<301 335>
VStem: 106 118<130 289> 443 118<0 425> 676 118<287 595>
Fore
927 225 m 0
 927 225 l 0
 963 147 941 11 828 -5 c 0
 725 -18 679 32 679 106 c 2
 679 175 l 1
 679 175 644 158 612 92 c 0
 581 31 570 0 569 0 c 2
 443 0 l 1
 443 403 l 2
 443 480 411 520 322 520 c 0
 248 520 205 483 205 483 c 1
 208 481 227 471 259 448 c 0
 287 426 313 397 313 397 c 1
 308 397 271 395 247 363 c 0
 225 333 224 291 224 276 c 2
 224 202 l 1
 225 202 322 204 328 113 c 0
 336 26 270 -2 224 -2 c 0
 150 -2 106 46 106 130 c 2
 106 276 l 2
 106 287 109 330 129 357 c 0
 152 386 179 397 179 397 c 1
 179 397 155 423 116 445 c 0
 83 463 51 477 46 478 c 1
 66 506 153 599 320 598 c 0
 501 596 561 506 561 411 c 2
 561 172 l 1
 575 199 595 219 616 239 c 1
 641 265 676 284 676 287 c 2
 676 595 l 1
 794 595 l 1
 794 311 l 2
 794 305 886 317 927 225 c 0
861 98 m 0
 861 98 l 0
 875 138 868 190 838 215 c 0
 815 231 802 230 794 230 c 1
 794 109 l 2
 794 58 848 63 861 98 c 0
235 139 m 0
 192 139 190 60 235 60 c 0
 282 60 282 139 235 139 c 0
EndSplineSet
EndChar
StartChar: uni0E14
Encoding: 180 3604 148
Width: 702
Flags: HW
HStem: 0 21G<144 270 498 618> 225 57<299 333> 512 93<318 368>
VStem: 498 120<0 401>
Fore
618 0 m 1
 498 0 l 1
 498 383 l 2
 498 464 457 512 345 512 c 0
 225 513 181 452 176 385 c 0
 170 313 187 300 207 228 c 0
 222 173 228 123 228 121 c 1
 230 123 251 155 265 175 c 0
 279 193 297 222 299 225 c 1
 297 225 204 259 233 362 c 0
 247 406 296 434 346 429 c 0
 397 425 443 395 445 323 c 0
 446 241 408 204 345 113 c 0
 294 40 270 2 270 0 c 2
 144 0 l 1
 144 0 136 83 115 159 c 0
 87 254 49 307 69 414 c 0
 89 526 181 605 343 605 c 0
 515 605 618 521 618 389 c 2
 618 0 l 1
294 322 m 0
 294 302 307 282 333 282 c 0
 386 282 388 362 334 362 c 0
 308 362 294 342 294 322 c 0
EndSplineSet
EndChar
StartChar: uni0E15
Encoding: 181 3605 149
Width: 717
Flags: HW
HStem: 0 21G<152 302 518 635>
VStem: 231 68<315 326> 518 117<0 429>
Fore
635 0 m 1
 518 0 l 1
 518 385 l 2
 518 412 521 440 506 468 c 0
 487 501 457 507 454 506 c 2
 356 457 l 1
 259 506 l 1
 259 506 205 497 184 412 c 0
 169 345 178 294 205 230 c 0
 238 155 251 98 251 98 c 1
 262 124 264 138 279 164 c 0
 297 195 307 219 307 219 c 1
 307 219 230 242 231 326 c 0
 233 394 297 443 376 422 c 0
 455 399 460 299 425 238 c 0
 394 179 392 184 356 113 c 0
 333 69 320 48 302 0 c 1
 152 0 l 1
 152 5 153 55 135 116 c 0
 101 236 43 296 78 432 c 0
 118 581 250 601 254 599 c 2
 354 553 l 1
 455 599 l 2
 458 599 520 596 575 550 c 0
 619 513 635 464 635 405 c 2
 635 0 l 1
379 323 m 0
 377 379 297 376 299 320 c 0
 300 267 380 267 379 323 c 0
EndSplineSet
EndChar
StartChar: uni0E16
Encoding: 182 3606 150
Width: 663
Flags: HW
HStem: 0 21G<466 582> 141 69<224 241> 520 81<309 353>
VStem: 107 117<139 286> 466 116<0 413>
Fore
582 0 m 1
 466 0 l 1
 466 409 l 2
 466 486 418 520 330 520 c 0
 270 520 222 494 207 478 c 1
 210 477 228 471 261 448 c 0
 288 426 311 402 311 402 c 1
 308 402 277 389 250 356 c 0
 227 326 224 291 224 276 c 2
 224 210 l 1
 227 210 334 219 339 104 c 0
 342 25 279 -6 222 -3 c 0
 139 2 107 57 107 139 c 2
 107 276 l 2
 107 287 110 330 130 357 c 0
 153 386 181 397 181 397 c 1
 181 397 156 423 118 445 c 0
 84 463 52 477 48 478 c 1
 67 506 159 601 326 601 c 0
 509 601 582 506 582 411 c 2
 582 0 l 1
236 141 m 0
 185 141 185 63 236 63 c 0
 288 63 288 141 236 141 c 0
EndSplineSet
EndChar
StartChar: uni0E17
Encoding: 183 3607 151
Width: 721
Flags: HW
HStem: 0 21G<159 277 518 635> 377 72<144 159> 527 69<144 159>
VStem: 159 118<0 17.6768 0 458> 187 89<458 487> 518 117<0 455>
Fore
635 0 m 1xf4
 518 0 l 1
 518 423 l 2
 518 458 512 503 478 503 c 0
 414 503 365 379 331 267 c 0
 285 113 277 18 277 0 c 1
 159 0 l 1
 159 377 l 1xf4
 158 377 121 372 84 394 c 0
 43 420 28 464 38 515 c 0
 51 569 100 596 146 596 c 0
 265 596 276 503 276 458 c 2
 276 368 l 1xec
 277 331 l 1
 282 359 288 417 342 500 c 0
 397 584 441 601 507 598 c 0
 602 595 635 523 635 455 c 2
 635 0 l 1xf4
187 487 m 0xec
 187 507 175 527 149 527 c 0
 92 527 98 449 149 449 c 0
 173 448 187 468 187 487 c 0xec
EndSplineSet
EndChar
StartChar: uni0E18
Encoding: 184 3608 152
Width: 646
Flags: HW
HStem: 0 78<78 457>
VStem: 192 118<78 377> 438 118<127 305>
Fore
193 399 m 1
 193 399 l 0
 133 406 77 426 74 426 c 1
 74 434 100 593 274 598 c 0
 362 601 418 549 497 563 c 0
 544 570 559 596 563 598 c 1
 598 523 l 1
 598 523 569 486 518 481 c 0
 415 474 371 526 279 520 c 0
 218 517 204 478 204 477 c 1
 207 477 300 461 357 445 c 0
 423 426 480 405 521 371 c 1
 558 337 556 310 556 282 c 2
 556 130 l 2
 556 95 553 67 535 38 c 0
 520 15 489 0 457 0 c 2
 78 0 l 1
 78 78 l 1
 192 78 l 1
 193 399 l 1
310 377 m 1
 310 78 l 1
 374 78 l 2
 391 78 408 80 420 89 c 0
 435 101 438 123 438 143 c 2
 438 265 l 2
 438 302 446 326 395 348 c 0
 366 360 340 369 310 377 c 1
EndSplineSet
EndChar
StartChar: uni0E19
Encoding: 185 3609 153
Width: 741
Flags: HW
HStem: 0 21G<155 273> 377 72<141 156> 527 69<141 146>
VStem: 155 118<0 0 0 458> 182 91<458 487> 463 116<108 235 339 595>
Fore
697 75 m 0xf4
 697 75 l 0
 665 -6 572 -28 509 20 c 0
 477 43 463 83 463 129 c 2
 463 236 l 1
 460 235 422 225 363 152 c 0
 313 90 273 11 273 0 c 1
 155 0 l 1
 156 377 l 1
 155 377 118 372 81 394 c 0
 40 420 25 464 35 515 c 0
 48 569 97 596 143 596 c 0
 262 596 273 503 273 458 c 2
 273 190 l 1
 273 190 299 222 360 274 c 0
 405 311 460 339 463 339 c 1
 463 595 l 1
 579 595 l 1
 581 345 l 1
 584 345 644 331 679 287 c 0
 717 236 727 152 697 75 c 0xf4
639 204 m 0
 639 204 l 0
 633 228 612 259 581 254 c 1
 579 109 l 1
 579 75 613 63 632 101 c 0
 650 136 645 178 639 204 c 0
182 487 m 0xec
 182 507 170 527 144 527 c 0
 87 527 94 449 144 449 c 0
 169 448 182 468 182 487 c 0xec
EndSplineSet
EndChar
StartChar: uni0E1A
Encoding: 186 3610 154
Width: 718
Flags: HW
HStem: 0 81<100 530> 377 71<156 172> 526 70<147.775 161>
VStem: 172 116<81 458> 198 90<458 486> 515 117<116.102 595>
Fore
632 103 m 1xf4
 632 103 l 0
 632 81 625 46 602 26 c 0
 579 8 555 0 530 0 c 2
 100 0 l 1
 100 81 l 1
 172 81 l 1
 172 377 l 1
 170 377 132 372 97 394 c 0
 55 420 40 464 51 515 c 0
 61 569 112 596 158 596 c 0
 276 596 288 503 288 458 c 2
 288 81 l 1
 461 81 l 2
 477 81 494 81 504 94 c 0
 518 110 515 129 515 146 c 2
 515 595 l 1
 632 595 l 5
 632 103 l 1xf4
198 486 m 0xec
 198 506 184 526 158 526 c 0
 103 526 109 448 158 448 c 0
 184 446 198 466 198 486 c 0xec
EndSplineSet
EndChar
StartChar: uni0E1B
Encoding: 187 3611 155
Width: 718
Flags: HW
HStem: 0 81<100 530> 377 72<156 172> 527 69<147.775 161>
VStem: 172 116<81 458> 198 90<458 487> 515 117<116.102 884>
AnchorPoint: "AboveBase" 465 613 basechar 0
Fore
632 103 m 1xf4
 632 103 l 0
 632 81 625 46 602 26 c 0
 579 8 555 0 530 0 c 2
 100 0 l 1
 100 81 l 1
 172 81 l 1
 172 377 l 1
 170 377 132 372 97 394 c 0
 55 420 40 464 51 515 c 0
 61 569 112 596 158 596 c 0
 276 596 288 503 288 458 c 2
 288 81 l 1
 461 81 l 2
 477 81 494 81 504 94 c 0
 518 110 515 129 515 146 c 2
 515 884 l 1
 632 884 l 1
 632 103 l 1xf4
198 487 m 0xec
 198 507 184 527 158 527 c 0
 103 527 109 449 158 449 c 0
 184 448 198 468 198 487 c 0xec
EndSplineSet
EndChar
StartChar: uni0E1C
Encoding: 188 3612 156
Width: 674
Flags: HW
HStem: 0 21G<92 212 471 589> 377 72<210 226> 527 69<224 226>
VStem: 92 118<0 377> 471 118<172 595>
Fore
589 0 m 1
 471 0 l 0
 463 25 441 74 412 120 c 0
 377 173 342 207 340 210 c 1
 313 179 300 170 270 120 c 0
 244 80 219 25 212 0 c 1
 92 0 l 1
 92 458 l 2
 92 503 104 596 224 596 c 0
 270 596 319 569 330 515 c 0
 340 464 325 420 284 394 c 0
 248 372 212 377 210 377 c 1
 210 172 l 2
 210 173 242 221 270 253 c 0
 302 291 314 300 340 323 c 1
 343 322 380 290 414 253 c 0
 441 221 471 173 471 172 c 2
 471 595 l 1
 589 595 l 1
 589 0 l 1
224 527 m 0
 172 527 172 449 224 449 c 0
 274 449 274 527 224 527 c 0
EndSplineSet
EndChar
StartChar: uni0E1D
Encoding: 189 3613 157
Width: 674
Flags: HW
HStem: 0 21G<92 212 471 589> 377 74<210 237> 529 67<219 237>
VStem: 92 118<0 377> 471 118<175 889>
AnchorPoint: "AboveBase" 421 613 basechar 0
Fore
589 0 m 1
 471 0 l 0
 463 25 440 78 412 120 c 0
 377 172 342 207 340 210 c 1
 313 179 303 172 270 120 c 0
 241 78 219 25 212 0 c 1
 92 0 l 1
 92 458 l 2
 92 503 104 596 224 596 c 0
 270 596 319 569 330 515 c 0
 340 464 325 420 284 394 c 0
 248 372 212 377 210 377 c 1
 210 173 l 2
 210 175 244 221 270 251 c 0
 302 290 314 300 340 323 c 1
 343 322 380 291 412 253 c 0
 437 222 471 176 471 175 c 2
 471 889 l 1
 589 889 l 1
 589 0 l 1
227 529 m 0
 175 529 175 451 227 451 c 0
 277 451 277 529 227 529 c 0
EndSplineSet
EndChar
StartChar: uni0E1E
Encoding: 190 3614 158
Width: 746
Flags: HW
HStem: 0 21G<158 276 547 664> 530 66<141 148>
VStem: 158 116<0 464> 546 118<268 593>
Fore
664 0 m 1
 547 0 l 1
 409 448 l 1
 276 0 l 1
 158 0 l 1
 158 383 l 1
 158 383 132 377 94 392 c 0
 52 409 26 460 37 512 c 0
 49 566 87 596 146 596 c 0
 248 596 274 526 274 464 c 2
 274 268 l 1
 371 595 l 1
 443 595 l 1
 546 268 l 1
 546 593 l 1
 664 593 l 1
 664 0 l 1
144 530 m 0
 94 530 94 452 144 452 c 0
 195 452 195 530 144 530 c 0
EndSplineSet
EndChar
StartChar: uni0E1F
Encoding: 191 3615 159
Width: 752
Flags: HW
HStem: 0 21G<156 274 546 662> 530 66<131.41 146> 921 20G<544 662>
VStem: 156 117<0 464> 544 118<268 941>
AnchorPoint: "AboveBase" 499 613 basechar 0
Fore
662 0 m 1
 546 0 l 1
 408 448 l 1
 274 0 l 1
 156 0 l 1
 156 383 l 1
 156 383 130 377 92 392 c 0
 51 409 25 460 35 512 c 0
 48 566 86 596 144 596 c 0
 247 596 273 526 273 464 c 2
 273 268 l 1
 369 595 l 1
 441 595 l 1
 544 268 l 1
 544 941 l 1
 662 941 l 1
 662 0 l 1
141 530 m 0
 90 530 90 452 141 452 c 0
 192 452 192 530 141 530 c 0
EndSplineSet
EndChar
StartChar: uni0E20
Encoding: 192 3616 160
Width: 680
Flags: HW
HStem: -3 63<144 154> 521 78<336 386>
VStem: 478 118<0 430>
Fore
596 0 m 1
 478 0 l 1
 478 409 l 2
 478 486 449 521 362 521 c 0
 281 523 238 483 238 483 c 1
 241 481 261 471 291 448 c 0
 319 426 342 402 342 402 c 1
 339 402 310 389 281 356 c 0
 258 326 256 291 256 276 c 2
 256 112 l 2
 256 48 222 -3 152 -3 c 0
 80 -3 37 49 52 124 c 0
 67 201 138 198 138 198 c 1
 138 276 l 2
 138 287 141 330 162 357 c 0
 184 386 213 397 213 397 c 1
 213 397 187 423 149 445 c 0
 116 463 83 477 78 478 c 1
 98 506 189 599 359 599 c 0
 540 599 596 506 596 411 c 2
 596 0 l 1
149 133 m 0
 106 133 104 60 149 60 c 0
 192 60 192 133 149 133 c 0
EndSplineSet
EndChar
StartChar: uni0E21
Encoding: 193 3617 161
Width: 718
Flags: HW
HStem: 529 67<183 201>
VStem: 207 116<115 204 316 464> 517 116<144 595>
Fore
633 107 m 1
 633 107 l 0
 633 67 624 28 586 11 c 0
 547 -8 507 -9 469 14 c 0
 445 29 423 60 405 95 c 0
 357 189 326 198 323 204 c 1
 323 118 l 1
 325 75 314 41 273 18 c 0
 230 -8 152 -18 101 28 c 0
 51 74 38 190 87 256 c 0
 133 316 205 317 207 317 c 1
 207 383 l 1
 207 383 181 377 143 392 c 0
 101 409 75 460 86 512 c 0
 98 566 136 596 195 596 c 0
 297 596 323 526 323 464 c 2
 323 310 l 1
 323 310 362 308 418 236 c 0
 458 182 471 152 500 123 c 0
 501 123 517 127 517 156 c 2
 517 595 l 1
 633 595 l 1
 633 107 l 1
207 115 m 0
 207 228 l 0
 204 228 164 247 146 189 c 0
 133 149 136 78 178 78 c 0
 199 78 207 97 207 115 c 0
192 529 m 0
 141 529 141 451 192 451 c 0
 242 451 242 529 192 529 c 0
EndSplineSet
EndChar
StartChar: uni0E22
Encoding: 194 3618 162
Width: 657
Flags: HW
HStem: 0 81<218 446> 228 75<281 347> 526 70<218 236>
VStem: 100 118<0 161> 458 117<136 595>
Fore
575 126 m 1
 575 126 l 0
 575 94 564 49 533 26 c 0
 507 6 480 0 446 0 c 2
 100 0 l 1
 100 149 l 2
 100 189 110 215 143 244 c 0
 161 261 182 270 210 271 c 1
 173 273 141 290 121 316 c 1
 100 339 90 371 90 408 c 2
 90 458 l 2
 90 503 118 596 227 596 c 0
 277 596 323 566 334 515 c 0
 345 466 333 415 288 394 c 0
 242 371 205 383 205 383 c 1
 204 357 208 342 233 323 c 0
 251 310 270 303 291 303 c 2
 348 303 l 1
 348 228 l 1
 287 228 l 2
 262 228 242 218 228 198 c 0
 216 178 218 162 218 138 c 2
 218 81 l 1
 388 81 l 2
 411 81 429 84 443 101 c 0
 454 115 458 126 458 144 c 2
 458 595 l 1
 575 595 l 1
 575 126 l 1
228 526 m 0
 178 526 178 448 228 448 c 0
 281 448 281 526 228 526 c 0
EndSplineSet
EndChar
StartChar: uni0E23
Encoding: 195 3619 163
Width: 551
Flags: HW
HStem: -2 68<331 333>
Fore
529 518 m 1
 529 518 l 0
 523 515 494 484 443 486 c 0
 368 489 323 523 245 527 c 0
 182 532 170 494 161 487 c 1
 164 487 251 481 326 449 c 0
 388 423 461 395 461 326 c 2
 461 130 l 2
 461 69 428 -2 331 -2 c 0
 276 -2 231 26 222 83 c 0
 213 149 250 189 279 202 c 0
 314 218 343 212 343 212 c 1
 343 293 l 2
 343 325 342 351 308 371 c 0
 273 392 219 408 156 420 c 0
 86 432 46 428 38 428 c 1
 38 428 44 550 172 590 c 0
 290 627 359 558 438 567 c 0
 477 570 487 595 492 598 c 1
 529 518 l 1
331 144 m 0
 281 144 281 66 331 66 c 0
 383 66 383 144 331 144 c 0
EndSplineSet
EndChar
StartChar: uni0E24
Encoding: 196 3620 164
Width: 677
Flags: HW
HStem: 141 69<227 244> 523 76<312 356>
VStem: 110 117<139 278> 469 117<-218 423>
Fore
586 -218 m 1
 469 -218 l 1
 469 409 l 2
 469 486 422 523 333 523 c 0
 253 523 210 483 210 483 c 1
 213 481 231 471 264 448 c 0
 291 426 314 402 314 402 c 1
 311 402 281 389 253 356 c 0
 228 326 227 291 227 276 c 2
 227 210 l 1
 230 210 337 219 342 104 c 0
 345 25 282 -6 224 -3 c 0
 143 2 110 57 110 139 c 2
 110 276 l 2
 110 287 113 330 133 357 c 0
 156 386 184 397 184 397 c 1
 184 397 159 423 121 445 c 0
 87 463 55 477 51 478 c 1
 71 506 172 599 330 599 c 0
 512 599 586 506 586 411 c 2
 586 -218 l 1
238 141 m 0
 187 141 187 63 238 63 c 0
 290 63 290 141 238 141 c 0
EndSplineSet
EndChar
StartChar: uni0E25
Encoding: 197 3621 165
Width: 660
Flags: HW
HStem: 0 21G<451 569>
VStem: 451 118<0 395>
Fore
569 0 m 1
 451 0 l 1
 451 48 l 2
 451 78 426 147 391 218 c 0
 356 287 313 333 259 331 c 0
 216 331 210 294 210 256 c 2
 210 208 l 1
 250 216 311 201 333 143 c 0
 353 94 336 31 287 8 c 0
 236 -17 175 -6 138 28 c 0
 103 61 90 123 94 218 c 0
 98 334 144 392 205 412 c 0
 259 429 322 425 372 385 c 0
 409 356 451 288 451 285 c 2
 451 385 l 2
 451 458 428 515 320 520 c 0
 175 527 133 458 126 443 c 1
 52 489 l 1
 55 494 75 546 159 579 c 0
 230 610 376 616 454 579 c 0
 570 526 569 451 569 365 c 2
 569 0 l 1
228 141 m 0
 176 141 176 61 228 61 c 0
 282 61 282 141 228 141 c 0
EndSplineSet
EndChar
StartChar: uni0E26
Encoding: 198 3622 166
Width: 689
Flags: HW
HStem: -3 64<150 160> 523 78<346 392>
VStem: 484 118<-228 429>
Fore
602 -228 m 1
 484 -228 l 1
 484 409 l 2
 484 486 455 523 368 523 c 0
 287 524 244 481 244 481 c 1
 247 480 267 471 297 448 c 0
 325 426 348 402 348 402 c 1
 345 402 316 389 287 356 c 0
 264 326 262 291 262 276 c 2
 262 112 l 2
 262 48 227 -3 158 -3 c 0
 86 -3 43 49 58 124 c 0
 74 201 144 198 144 198 c 1
 144 276 l 2
 144 287 147 330 169 357 c 0
 190 386 219 397 219 397 c 1
 219 397 193 423 155 445 c 0
 123 463 89 477 84 478 c 1
 104 506 205 601 365 601 c 0
 546 601 602 506 602 411 c 2
 602 -228 l 1
155 135 m 0
 110 135 110 61 155 61 c 0
 198 61 198 135 155 135 c 0
EndSplineSet
EndChar
StartChar: uni0E27
Encoding: 199 3623 167
Width: 593
Flags: HW
VStem: 397 118<212 399>
Fore
515 130 m 1
 515 130 l 0
 515 69 481 -8 385 -2 c 0
 326 2 288 29 276 83 c 0
 265 133 291 185 333 202 c 0
 371 218 397 212 397 212 c 1
 397 369 l 2
 397 437 388 518 265 515 c 0
 181 515 139 486 123 422 c 1
 23 461 l 1
 23 463 32 512 97 556 c 0
 187 618 351 605 420 570 c 0
 507 523 515 461 515 380 c 2
 515 130 l 1
383 143 m 0
 333 143 333 64 383 64 c 0
 435 64 435 143 383 143 c 0
EndSplineSet
EndChar
StartChar: uni0E28
Encoding: 200 3624 168
Width: 700
Flags: HW
HStem: 0 21G<143 267 503 619> 351 69<354 360>
VStem: 143 124<0 19.3176> 503 116<0 401>
Fore
500 575 m 1
 500 575 l 1
 501 575 l 1
 500 575 l 1
356 420 m 1
 356 420 l 0
 362 425 368 429 372 435 c 0
 432 507 443 504 443 504 c 1
 418 515 385 520 337 518 c 0
 221 515 184 448 178 380 c 0
 173 308 210 173 213 169 c 1
 213 173 221 296 253 354 c 0
 271 388 294 420 356 420 c 1
 356 420 l 1
691 656 m 1
 691 656 l 0
 691 655 682 613 641 567 c 0
 613 535 584 517 584 517 c 1
 586 513 605 492 613 461 c 0
 622 420 619 406 619 380 c 2
 619 0 l 1
 503 0 l 1
 503 374 l 2
 503 397 504 383 501 415 c 0
 498 440 492 451 490 454 c 1
 429 399 l 1
 451 382 458 360 463 337 c 0
 471 290 455 241 399 219 c 0
 346 199 307 225 307 225 c 1
 302 212 291 172 285 130 c 0
 277 78 267 31 267 0 c 1
 143 0 l 1
 143 21 l 2
 143 43 135 104 121 144 c 0
 101 199 64 284 71 380 c 0
 77 504 164 598 343 601 c 0
 449 602 486 576 500 575 c 1
 504 576 520 584 540 612 c 0
 553 630 563 655 563 656 c 1
 691 656 l 1
360 351 m 0
 310 351 310 277 360 277 c 0
 409 277 409 351 360 351 c 0
EndSplineSet
EndChar
StartChar: uni0E29
Encoding: 201 3625 169
Width: 748
Flags: HW
HStem: 0 81<101 532> 377 72<156 173> 527 69<147.775 161>
VStem: 173 117<81 458> 198 92<458 487> 517 116<116.102 193 273 595>
Fore
782 351 m 1xf4
 782 351 l 1
 782 351 773 305 713 258 c 0
 676 228 636 213 633 213 c 1
 633 103 l 2
 633 81 627 46 604 26 c 0
 581 8 556 0 532 0 c 2
 101 0 l 1
 101 81 l 1
 173 81 l 1
 173 377 l 1
 172 377 133 372 98 394 c 0
 57 420 41 464 52 515 c 0
 63 569 113 596 159 596 c 0
 277 596 290 503 290 458 c 2
 290 81 l 1
 463 81 l 2
 478 81 495 81 506 94 c 0
 520 110 517 129 517 146 c 2
 517 193 l 1
 510 192 422 192 371 224 c 0
 310 264 285 356 348 405 c 0
 389 437 468 425 489 377 c 0
 518 317 478 276 478 276 c 1
 478 276 484 273 497 273 c 0
 509 271 515 273 517 273 c 1
 517 595 l 1
 633 595 l 1
 633 307 l 1
 636 307 659 319 677 340 c 0
 700 366 704 394 704 400 c 1
 782 351 l 1xf4
198 487 m 0xec
 198 487 l 0
 198 507 184 527 158 527 c 0
 103 527 109 449 158 449 c 0
 184 448 198 468 198 487 c 0xec
409 365 m 0
 362 365 362 294 409 294 c 0
 455 294 455 365 409 365 c 0
EndSplineSet
EndChar
StartChar: uni0E2A
Encoding: 202 3626 170
Width: 657
Flags: HW
HStem: 0 21G<452 570>
VStem: 94 118<213 239> 451 119<0 415>
Fore
619 655 m 1
 619 655 l 0
 613 624 605 607 584 579 c 0
 556 543 527 521 527 521 c 1
 529 518 555 492 561 469 c 0
 573 418 570 385 570 365 c 2
 570 0 l 1
 452 0 l 1
 451 43 l 1
 449 74 432 143 397 213 c 0
 362 282 314 348 261 346 c 0
 218 346 212 294 212 256 c 2
 212 213 l 1
 251 221 313 205 334 147 c 0
 354 98 337 35 288 12 c 0
 238 -12 176 -2 139 32 c 0
 104 66 92 124 94 222 c 0
 95 346 143 391 207 412 c 0
 233 420 279 435 319 455 c 0
 366 478 400 501 403 503 c 1
 371 517 351 524 285 520 c 0
 172 515 139 455 129 441 c 1
 52 490 l 1
 55 495 83 547 167 578 c 0
 231 602 322 604 388 593 c 0
 449 584 469 567 469 567 c 1
 469 567 484 582 497 610 c 0
 507 635 506 650 506 655 c 1
 619 655 l 1
452 282 m 0
 452 385 l 0
 452 402 452 403 451 422 c 0
 449 449 443 448 443 448 c 1
 440 446 417 422 388 409 c 0
 362 397 349 392 349 392 c 2
 351 392 371 385 397 356 c 0
 423 326 451 285 452 282 c 0
235 146 m 0
 182 146 182 66 235 66 c 0
 288 66 288 146 235 146 c 0
EndSplineSet
EndChar
StartChar: uni0E2B
Encoding: 203 3627 171
Width: 715
Flags: HW
HStem: 0 21G<155 273 513 630> 377 68<139 155> 523 73<139 157>
VStem: 155 118<0 458> 182 91<458 483> 513 117<0 305>
Fore
630 0 m 1xf4
 513 0 l 1
 513 274 l 2
 513 293 517 317 501 325 c 0
 472 337 460 319 457 316 c 0
 449 310 412 265 369 193 c 1
 325 124 290 78 273 0 c 1
 155 0 l 1
 155 377 l 1
 153 377 116 372 80 394 c 0
 38 420 23 464 34 515 c 0
 46 569 95 596 141 596 c 0
 261 596 273 503 273 458 c 2
 273 225 l 1
 273 225 308 287 340 325 c 0
 386 382 423 402 423 402 c 1
 420 402 377 446 399 520 c 0
 412 566 454 599 515 599 c 0
 582 599 628 553 633 501 c 0
 642 411 582 388 579 386 c 1
 582 385 598 376 610 359 c 0
 627 333 630 314 630 285 c 2
 630 0 l 1xf4
182 483 m 0xec
 182 483 l 0
 182 518 167 523 144 523 c 0
 87 523 94 445 144 445 c 0
 169 443 182 463 182 483 c 0xec
517 526 m 0
 457 526 457 435 517 435 c 0
 576 435 576 526 517 526 c 0
EndSplineSet
EndChar
StartChar: uni0E2C
Encoding: 204 3628 172
Width: 754
Flags: HW
HStem: 0 21G<156 274 546 662> 474 44<470 544> 530 66<139 146>
VStem: 156 117<0 464> 544 118<190 521>
Fore
757 656 m 1
 757 656 l 0
 757 653 739 612 713 575 c 0
 690 544 662 521 662 521 c 1
 662 0 l 1
 546 0 l 1
 408 290 l 1
 274 0 l 1
 156 0 l 1
 156 383 l 1
 156 383 130 377 92 392 c 0
 51 409 25 460 35 512 c 0
 48 566 86 596 144 596 c 0
 247 596 273 526 273 464 c 2
 273 190 l 1
 369 418 l 1
 441 418 l 1
 544 190 l 1
 544 474 l 1
 543 474 481 445 395 474 c 0
 336 495 320 563 357 616 c 0
 376 642 434 673 521 659 c 0
 581 648 612 610 612 610 c 1
 612 610 628 624 641 644 c 0
 655 667 658 687 658 687 c 1
 757 656 l 1
544 561 m 0
 544 561 l 0
 544 587 509 602 478 602 c 0
 446 602 409 590 409 561 c 0
 409 529 448 518 478 518 c 0
 509 518 544 533 544 561 c 0
143 530 m 0
 92 530 92 452 143 452 c 0
 193 452 193 530 143 530 c 0
EndSplineSet
EndChar
StartChar: uni0E2D
Encoding: 205 3629 173
Width: 669
Flags: HW
HStem: 0 81<260.167 419> 342 67<231 243>
VStem: 104 118<111 195> 463 116<127 417>
Fore
579 133 m 1
 579 133 l 0
 579 90 570 57 538 29 c 0
 510 6 472 0 440 0 c 2
 235 0 l 2
 196 0 169 6 136 34 c 0
 123 48 104 80 104 113 c 2
 104 276 l 2
 104 339 136 409 233 409 c 0
 288 409 331 377 342 323 c 0
 353 273 326 221 285 205 c 0
 247 190 222 196 222 196 c 1
 222 133 l 2
 222 116 221 104 235 92 c 0
 245 83 262 81 276 81 c 2
 402 81 l 2
 428 81 438 84 451 98 c 0
 464 113 463 129 463 150 c 2
 463 403 l 2
 463 458 440 510 331 515 c 0
 181 524 150 446 143 431 c 1
 66 486 l 1
 69 490 77 530 159 572 c 0
 231 607 385 610 466 575 c 0
 581 526 579 446 579 403 c 2
 579 133 l 1
236 342 m 0
 185 342 185 264 236 264 c 0
 288 264 288 342 236 342 c 0
EndSplineSet
EndChar
StartChar: uni0E2E
Encoding: 206 3630 174
Width: 656
Flags: HW
HStem: 0 81<256 429> 302 69<211.188 226> 417 61<256 308> 540 62<299 322>
VStem: 90 118<113 158> 452 118<125 433>
Fore
605 598 m 1
 605 598 l 0
 605 596 596 569 579 540 c 0
 566 517 546 498 543 497 c 1
 544 494 556 484 564 458 c 0
 572 429 570 414 570 400 c 2
 570 133 l 2
 570 90 559 57 527 29 c 0
 500 6 463 0 429 0 c 2
 221 0 l 2
 182 0 155 6 123 34 c 0
 109 48 90 80 90 113 c 2
 90 238 l 2
 90 300 123 371 221 371 c 0
 274 371 320 339 331 285 c 0
 342 233 314 182 271 167 c 0
 233 152 208 158 208 158 c 1
 208 127 l 2
 208 113 213 100 221 92 c 0
 231 83 248 81 264 81 c 2
 391 81 l 2
 418 81 428 84 440 98 c 0
 454 113 452 129 452 150 c 2
 452 409 l 2
 452 418 452 420 451 431 c 0
 451 437 445 443 445 443 c 1
 420 432 342 418 277 417 c 0
 204 417 81 438 81 503 c 0
 81 566 184 599 299 602 c 0
 423 605 475 561 475 561 c 2
 477 561 486 566 495 582 c 0
 504 599 507 628 507 630 c 1
 605 598 l 1
418 512 m 0
 418 512 l 0
 414 513 386 538 305 540 c 0
 259 540 190 535 192 506 c 0
 193 477 262 478 308 478 c 0
 408 481 417 512 418 512 c 0
221 302 m 0
 169 302 169 225 221 225 c 0
 271 225 271 302 221 302 c 0
EndSplineSet
EndChar
StartChar: uni0E2F
Encoding: 207 3631 175
Width: 623
Flags: HW
HStem: -6 83<328 380> 425 52<208 215> 543 53<207.063 208>
VStem: 441 117<137 391>
Fore
558 179 m 1
 558 179 l 0
 558 113 556 58 492 21 c 0
 440 -9 382 -6 380 -6 c 1
 328 77 l 1
 330 77 395 72 431 110 c 0
 446 129 441 169 441 190 c 2
 441 391 l 2
 441 389 399 331 291 328 c 0
 196 326 110 374 98 464 c 0
 89 526 123 593 207 596 c 0
 284 598 317 540 302 486 c 0
 287 426 219 425 213 425 c 2
 213 425 242 391 307 405 c 0
 376 418 395 449 418 487 c 0
 441 526 445 590 445 595 c 1
 445 595 509 602 544 561 c 1
 561 538 558 510 558 480 c 2
 558 179 l 1
208 543 m 0
 166 543 166 477 208 477 c 0
 251 477 251 543 208 543 c 0
EndSplineSet
EndChar
StartChar: uni0E30
Encoding: 208 3632 176
Width: 531
Flags: HW
Fore
273 432 m 0
 273 432 l 1
 273 432 319 438 372 475 c 0
 441 523 471 587 471 587 c 1
 471 457 l 2
 471 454 432 403 353 372 c 0
 277 343 224 331 152 349 c 0
 77 368 25 451 74 526 c 0
 107 576 184 587 231 559 c 0
 308 513 273 435 273 432 c 0
273 106 m 0
 273 106 l 1
 273 106 319 112 372 149 c 0
 441 195 471 261 471 261 c 1
 471 129 l 2
 471 126 432 75 353 44 c 0
 277 15 224 5 152 23 c 0
 77 40 25 124 74 199 c 0
 107 250 184 261 231 231 c 0
 308 185 273 109 273 106 c 0
172 90 m 0
 172 90 l 0
 235 90 233 187 170 187 c 0
 106 187 107 90 172 90 c 0
172 418 m 0
 235 418 233 515 170 515 c 0
 106 515 107 418 172 418 c 0
EndSplineSet
EndChar
StartChar: uni0E31
Encoding: 209 3633 177
Width: 0
Flags: HW
AnchorPoint: "AboveMark" -170 988 basemark 0
AnchorPoint: "AboveBase" -87 613 mark 0
Fore
35 786 m 1
 35 786 l 0
 34 786 -5 734 -106 700 c 0
 -210 665 -326 688 -372 707 c 0
 -481 750 -474 874 -409 914 c 0
 -345 952 -251 920 -239 846 c 0
 -230 791 -265 760 -265 760 c 1
 -259 760 -182 750 -106 786 c 0
 -9 834 35 914 35 914 c 1
 35 786 l 1
-303 828 m 0
 -305 889 -397 887 -395 826 c 0
 -394 765 -302 766 -303 828 c 0
EndSplineSet
EndChar
StartChar: uni0E32
Encoding: 210 3634 178
Width: 493
Flags: HW
HStem: 0 21G<314 432> 507 91<205 223>
VStem: 14 87<449 478> 314 118<0 385>
Fore
101 449 m 1
 14 478 l 1
 14 480 26 598 221 598 c 0
 391 598 432 477 432 371 c 2
 432 0 l 1
 314 0 l 1
 314 360 l 2
 314 426 300 507 208 507 c 0
 113 506 101 451 101 449 c 1
EndSplineSet
EndChar
StartChar: uni0E33
Encoding: 211 3635 179
Width: 493
Flags: HW
HStem: 0 21G<310 428> 507 91<199 218> 681 65<-182.141 -167> 861 69<-182.141 -167>
VStem: 9 88<449 478> 310 118<0 385>
Fore
-170 930 m 0
 -170 930 l 0
 -3 930 -3 681 -170 681 c 0
 -337 681 -337 930 -170 930 c 0
-170 746 m 0
 -170 746 l 0
 -94 746 -94 861 -170 861 c 0
 -248 861 -248 746 -170 746 c 0
97 449 m 1
 9 478 l 1
 9 480 21 598 216 598 c 0
 386 598 428 477 428 371 c 2
 428 0 l 1
 310 0 l 1
 310 360 l 2
 310 426 296 507 204 507 c 0
 109 506 97 451 97 449 c 1
EndSplineSet
MultipleSubs: 0 65534 'G016' uni0E4B uni0E32
MultipleSubs: 0 65534 'G015' uni0E4A uni0E32
MultipleSubs: 0 65534 'G014' uni0E49 uni0E32
MultipleSubs: 0 65534 'G013' uni0E48 uni0E32
EndChar
StartChar: uni0E34
Encoding: 212 3636 180
Width: 0
Flags: HW
HStem: 848 66<-352.64 -326.125 -326 -309.441>
AnchorPoint: "AboveMark" -147 988 basemark 0
AnchorPoint: "AboveBase" -87 613 mark 0
Fore
-326 914 m 0
 -326 914 l 0
 -133 912 -71 694 -75 638 c 1
 -75 638 -159 710 -340 717 c 0
 -490 725 -570 682 -572 682 c 1
 -566 792 -489 915 -326 914 c 0
-326 848 m 0
 -441 851 -461 766 -461 766 c 1
 -461 766 -409 780 -333 777 c 0
 -251 774 -181 748 -181 748 c 1
 -181 748 -213 846 -326 848 c 0
EndSplineSet
EndChar
StartChar: uni0E35
Encoding: 213 3637 181
Width: 0
Flags: HW
HStem: 918 20G<-204 -89>
AnchorPoint: "AboveMark" -147 988 basemark 0
AnchorPoint: "AboveBase" -87 613 mark 0
Fore
-570 665 m 1
 -570 665 l 0
 -569 776 -489 868 -394 889 c 0
 -319 907 -248 889 -204 863 c 1
 -204 938 l 1
 -89 938 l 1
 -89 705 l 1
 -89 705 -84 688 -80 667 c 0
 -75 644 -74 624 -74 621 c 1
 -74 621 -158 693 -339 700 c 0
 -489 708 -570 665 -570 665 c 1
-325 831 m 0
 -440 834 -460 750 -460 750 c 1
 -460 750 -408 763 -331 760 c 0
 -250 757 -179 731 -179 731 c 1
 -179 731 -212 829 -325 831 c 0
EndSplineSet
EndChar
StartChar: uni0E36
Encoding: 214 3638 182
Width: 0
Flags: HW
AnchorPoint: "AboveMark" -156 988 basemark 0
AnchorPoint: "AboveBase" -87 613 mark 0
Fore
-572 664 m 0
 -572 664 l 0
 -572 716 -541 814 -461 861 c 0
 -386 906 -299 898 -258 884 c 1
 -258 887 -250 915 -210 943 c 0
 -170 969 -115 961 -86 937 c 0
 -55 910 -48 872 -58 835 c 0
 -69 796 -87 780 -120 765 c 1
 -107 743 -98 728 -90 704 c 0
 -81 674 -81 691 -80 635 c 1
 -80 635 -159 691 -340 699 c 0
 -490 707 -570 664 -572 664 c 0
-326 829 m 0
 -326 829 l 0
 -441 832 -461 748 -461 748 c 1
 -461 748 -409 762 -333 759 c 0
 -251 756 -181 730 -181 730 c 1
 -181 730 -213 828 -326 829 c 0
-153 814 m 0
 -89 806 -84 912 -156 907 c 0
 -205 904 -215 820 -153 814 c 0
EndSplineSet
EndChar
StartChar: uni0E37
Encoding: 215 3639 183
Width: 0
Flags: HW
HStem: 842 15<-339 -195> 842 65<-339 -337.014> 842 111<-339 -327>
AnchorPoint: "AboveMark" -216 988 basemark 0
AnchorPoint: "AboveBase" -87 613 mark 0
Fore
-584 676 m 0x20
 -584 676 l 0
 -584 681 -582 768 -517 838 c 1
 -443 914 -351 907 -337 907 c 1x40
 -337 953 l 1
 -245 953 l 1x20
 -245 894 l 1
 -236 892 -225 887 -216 880 c 0
 -205 872 -196 857 -195 857 c 1x80
 -195 953 l 1
 -95 953 l 1
 -95 684 l 1
 -86 632 l 1
 -86 632 -172 704 -353 711 c 0
 -503 719 -582 676 -584 676 c 0x20
-339 842 m 0x80
 -454 845 -472 760 -472 760 c 1
 -472 760 -422 774 -345 771 c 0
 -264 768 -193 742 -193 742 c 1
 -193 742 -224 840 -339 842 c 0x80
EndSplineSet
EndChar
StartChar: uni0E38
Encoding: 216 3640 184
Width: 0
Flags: HW
VStem: -193 106<-308 -143>
AnchorPoint: "BelowBase" -87 -26 mark 0
Fore
-87 -308 m 5
 -193 -308 l 1
 -193 -195 l 1
 -208 -198 -225 -196 -247 -181 c 0
 -287 -153 -293 -98 -264 -58 c 0
 -238 -26 -181 -23 -152 -32 c 0
 -97 -51 -87 -95 -87 -143 c 2
 -87 -308 l 5
-170 -109 m 0
 -170 -95 -172 -83 -199 -83 c 0
 -238 -83 -231 -136 -201 -136 c 0
 -167 -136 -170 -123 -170 -109 c 0
EndSplineSet
EndChar
StartChar: uni0E39
Encoding: 217 3641 185
Width: 0
Flags: HW
VStem: -357 101<-296 -149> -196 115<-179 -31.0001>
AnchorPoint: "BelowBase" -87 -26 mark 0
Fore
-235 -227 m 1
 -235 -227 l 1
 -235 -227 -216 -225 -222 -225 c 0
 -227 -225 -213 -224 -204 -212 c 0
 -195 -198 -195 -176 -196 -179 c 0
 -196 -193 -198 -31 -196 -31 c 2
 -80 -31 l 1
 -80 -31 -81 -225 -81 -227 c 0
 -81 -228 -84 -250 -100 -265 c 0
 -115 -281 -129 -294 -152 -296 c 0
 -162 -296 -190 -296 -190 -296 c 1
 -357 -296 l 1
 -357 -219 l 1
 -411 -224 -458 -202 -460 -126 c 0
 -461 -69 -418 -23 -354 -26 c 0
 -281 -31 -256 -86 -256 -149 c 2
 -256 -225 l 1
 -235 -227 l 1
-366 -155 m 0
 -322 -155 -328 -83 -369 -84 c 0
 -411 -86 -409 -155 -366 -155 c 0
EndSplineSet
EndChar
StartChar: uni0E3A
Encoding: 218 3642 186
Width: 0
Flags: HW
HStem: -261 21G<-215.5 -99.5>
AnchorPoint: "BelowBase" -87 -26 mark 0
Fore
-158 -86 m 0
 -41 -86 -41 -261 -158 -261 c 0
 -273 -261 -273 -86 -158 -86 c 0
EndSplineSet
EndChar
StartChar: uni0E4D.high
Encoding: 219 63262 187
Width: 0
Flags: W
TeX: 0 0 0 0
HStem: 995 66<-281.5 -114.5> 1176 69<-281.5 4.9811e-33>
AnchorPoint: "AboveMark" -197 988 mark 0
Fore
-198 1245 m 0
 -31 1245 -31 995 -198 995 c 0
 -365 995 -365 1245 -198 1245 c 0
-198 1061 m 0
 -121 1061 -121 1176 -198 1176 c 0
 -274 1176 -274 1061 -198 1061 c 0
EndSplineSet
EndChar
StartChar: dottedcircle
Encoding: 221 9676 188
Width: 718
Flags: HW
HStem: -14 75<371 373> 23 75<222 231> 34 75<500 502> 115 75<123 132> 127 74<582 584> 256 75<618 626> 264 75<86 94> 391 75<582 584> 481 75<487 489> 489 75<231 233> 523 75<369 373>
VStem: 49 75<300 307> 86 75<152 154> 94 73<435 437> 184 75<61 67> 195 75<526 531> 334 75<23 25 561 567> 451 75<518 527> 463 75<71 73> 546 73<164 166 429 437> 581 75<294 302>
Fore
120 452 m 6
221 543 m 6
210 78 m 6
112 169 m 6
489 87 m 6
570 181 m 6
570 446 m 6
477 535 m 6
607 311 m 6
75 317 m 6
359 578 m 6
130 472 m 4,11,12
 152 472 167 455 167 435 c 4,13,14
 167 414 152 397 130 397 c 4,15,16
 110 397 94 414 94 435 c 4,17,18
 94 455 110 472 130 472 c 4,11,12
130 435 m 4,19,-1
 130 435 l 4,20,-1
 130 435 l 4,21,-1
 130 435 l 4,22,-1
 130 435 l 4,19,-1
231 564 m 4,23,24
 253 564 270 547 270 526 c 4,25,26
 270 506 253 489 231 489 c 4,27,28
 212 489 195 506 195 526 c 4,29,30
 195 547 212 564 231 564 c 4,23,24
231 526 m 4,31,-1
 231 526 l 4,32,-1
 231 526 l 4,33,-1
 231 526 l 4,34,-1
 231 526 l 4,31,-1
222 98 m 4,35,36
 242 98 259 81 259 61 c 4,37,38
 259 40 242 23 222 23 c 4,39,40
 201 23 184 40 184 61 c 4,41,42
 184 81 201 98 222 98 c 4,35,36
222 61 m 4,43,-1
 222 61 l 4,44,-1
 222 61 l 4,45,-1
 222 61 l 4,46,-1
 222 61 l 4,43,-1
123 190 m 4,47,48
 144 190 161 173 161 152 c 4,49,50
 161 132 144 115 123 115 c 4,51,52
 103 115 86 132 86 152 c 4,53,54
 86 173 103 190 123 190 c 4,47,48
123 152 m 4,55,-1
 123 152 l 4,56,-1
 123 152 l 4,57,-1
 123 152 l 4,58,-1
 123 152 l 4,55,-1
500 109 m 4,59,60
 521 109 538 92 538 71 c 4,61,62
 538 51 521 34 500 34 c 4,63,64
 480 34 463 51 463 71 c 4,65,66
 463 92 480 109 500 109 c 4,59,60
500 71 m 4,67,-1
 500 71 l 4,68,-1
 500 71 l 4,69,-1
 500 71 l 4,70,-1
 500 71 l 4,67,-1
582 201 m 4,71,72
 602 201 619 184 619 164 c 4,73,74
 619 143 602 127 582 127 c 4,75,76
 561 127 546 143 546 164 c 4,77,78
 546 184 561 201 582 201 c 4,71,72
582 164 m 4,79,-1
 582 164 l 4,80,-1
 582 164 l 4,81,-1
 582 164 l 4,82,-1
 582 164 l 4,79,-1
582 466 m 4,83,84
 602 466 619 449 619 429 c 4,85,86
 619 408 602 391 582 391 c 4,87,88
 561 391 546 408 546 429 c 4,89,90
 546 449 561 466 582 466 c 4,83,84
582 429 m 4,91,-1
 582 429 l 4,92,-1
 582 429 l 4,93,-1
 582 429 l 4,94,-1
 582 429 l 4,91,-1
487 556 m 4,95,96
 509 556 526 540 526 518 c 4,97,98
 526 498 509 481 487 481 c 4,99,100
 468 481 451 498 451 518 c 4,101,102
 451 540 468 556 487 556 c 4,95,96
487 518 m 4,103,-1
 487 518 l 4,104,-1
 487 518 l 4,105,-1
 487 518 l 4,106,-1
 487 518 l 4,103,-1
618 331 m 4,107,108
 639 331 656 314 656 294 c 4,109,110
 656 273 639 256 618 256 c 4,111,112
 598 256 581 273 581 294 c 4,113,114
 581 314 598 331 618 331 c 4,107,108
618 294 m 4,115,-1
 618 294 l 4,116,-1
 618 294 l 4,117,-1
 618 294 l 4,118,-1
 618 294 l 4,115,-1
86 339 m 4,119,120
 107 339 124 322 124 300 c 4,121,122
 124 281 107 264 86 264 c 4,123,124
 66 264 49 281 49 300 c 4,125,126
 49 322 66 339 86 339 c 4,119,120
86 300 m 4,127,-1
 86 300 l 4,128,-1
 86 300 l 4,129,-1
 86 300 l 4,130,-1
 86 300 l 4,127,-1
371 61 m 4,131,132
 392 61 409 44 409 23 c 4,133,134
 409 3 392 -14 371 -14 c 4,135,136
 351 -14 334 3 334 23 c 4,137,138
 334 44 351 61 371 61 c 4,131,132
371 23 m 4,139,-1
 371 23 l 4,140,-1
 371 23 l 4,141,-1
 371 23 l 4,142,-1
 371 23 l 4,139,-1
369 598 m 4,143,144
 391 598 408 581 408 561 c 4,145,146
 408 540 391 523 369 523 c 4,147,148
 349 523 333 540 333 561 c 4,149,150
 333 581 349 598 369 598 c 4,143,144
369 561 m 4,151,-1
 369 561 l 4,152,-1
 369 561 l 4,153,-1
 369 561 l 4,154,-1
 369 561 l 4,151,-1
EndSplineSet
EndChar
StartChar: uni0E3F
Encoding: 223 3647 189
Width: 646
Flags: HW
HStem: -17 20G<83 273> 612 92<83 273>
VStem: 83 119<3 319 3 612> 273 96<-121 3 100 317 409 612 704 817> 458 124<513 531> 472 129<182 213>
Fore
273 409 m 1xf0
 273 612 l 1
 202 612 l 1
 202 409 l 1
 273 409 l 1xf0
273 100 m 1
 273 319 l 1
 202 319 l 1
 202 100 l 1
 273 100 l 1
369 317 m 0
 369 101 l 0
 391 103 411 107 429 120 c 0
 457 139 472 176 472 213 c 0xf4
 472 248 454 284 425 302 c 0
 409 313 389 316 369 317 c 0
369 612 m 0
 369 411 l 0
 388 412 406 418 422 431 c 0
 446 451 458 483 458 515 c 0xf8
 458 547 445 581 415 599 c 0
 403 607 386 610 369 612 c 0
273 817 m 1
 369 817 l 1
 369 704 l 1
 417 704 468 704 510 674 c 0
 558 641 582 592 582 529 c 0xf8
 582 457 535 392 457 369 c 1
 455 360 l 1
 544 340 601 268 601 182 c 0xf4
 601 126 570 75 527 40 c 0
 484 5 428 3 369 3 c 1
 369 -121 l 1
 273 -121 l 1
 273 3 l 1
 83 3 l 1
 83 704 l 1
 273 704 l 1
 273 817 l 1
EndSplineSet
EndChar
StartChar: uni0E40
Encoding: 224 3648 190
Width: 360
Flags: HW
HStem: 144 68<210 222>
VStem: 92 118<130 595>
Fore
330 83 m 0
 330 83 l 0
 320 31 282 2 222 -2 c 0
 120 -6 92 69 92 130 c 2
 92 595 l 1
 210 595 l 1
 210 212 l 1
 212 212 235 218 273 201 c 0
 313 184 340 139 330 83 c 0
222 144 m 0
 170 144 170 66 222 66 c 0
 273 66 273 144 222 144 c 0
EndSplineSet
EndChar
StartChar: uni0E41
Encoding: 225 3649 191
Width: 649
Flags: HW
HStem: 143 69<205 224 500 512>
VStem: 87 118<130 595> 382 118<130 595>
Fore
619 83 m 0
 619 83 l 0
 610 31 572 2 512 -2 c 0
 409 -6 382 69 382 130 c 2
 382 595 l 1
 500 595 l 1
 500 212 l 1
 501 212 524 218 564 201 c 0
 602 184 632 139 619 83 c 0
325 83 m 0
 325 83 l 0
 316 31 277 2 218 -2 c 0
 115 -6 87 69 87 130 c 2
 87 595 l 1
 205 595 l 1
 205 212 l 1
 207 212 230 218 270 201 c 0
 308 184 336 139 325 83 c 0
504 143 m 0
 504 143 l 0
 454 143 454 64 504 64 c 0
 555 64 555 143 504 143 c 0
224 143 m 0
 173 143 173 64 224 64 c 0
 276 64 276 143 224 143 c 0
EndSplineSet
EndChar
StartChar: uni0E42
Encoding: 226 3650 192
Width: 389
Flags: HW
HStem: 143 69<238 251> 869 55<-40 86>
VStem: 121 117<130 783>
Fore
489 975 m 1
 489 975 l 0
 487 975 466 943 400 941 c 0
 322 938 222 1013 141 984 c 0
 95 969 86 924 86 924 c 1
 87 924 153 910 190 883 c 0
 241 846 238 819 238 773 c 2
 238 212 l 1
 239 212 264 218 302 201 c 0
 340 184 369 139 359 83 c 0
 348 31 311 2 250 -2 c 0
 147 -6 121 69 121 130 c 2
 121 773 l 2
 121 802 115 828 89 842 c 0
 31 872 -37 869 -40 869 c 1
 -40 874 -41 995 72 1042 c 0
 198 1096 259 1030 382 1021 c 0
 435 1018 448 1053 454 1056 c 1
 489 975 l 1
251 143 m 0
 201 143 201 64 251 64 c 0
 302 64 302 143 251 143 c 0
EndSplineSet
EndChar
StartChar: uni0E43
Encoding: 227 3651 193
Width: 452
Flags: HW
HStem: 143 69<305 320> 881 48<40 69>
VStem: 187 118<130 687>
Fore
425 83 m 0
 425 83 l 0
 415 31 377 2 317 -2 c 0
 215 -6 187 69 187 130 c 2
 187 670 l 2
 187 719 196 750 218 785 c 0
 256 851 270 987 176 1004 c 0
 58 1025 40 932 40 929 c 1
 43 929 74 941 124 917 c 0
 173 891 179 774 129 740 c 0
 52 688 -35 765 -43 842 c 0
 -57 972 12 1068 144 1074 c 0
 231 1079 300 1042 330 975 c 0
 357 915 340 849 323 802 c 0
 307 753 305 725 305 677 c 2
 305 212 l 1
 307 212 330 218 369 201 c 0
 408 184 435 139 425 83 c 0
77 776 m 0
 77 776 l 0
 129 776 121 881 69 881 c 0
 17 881 25 776 77 776 c 0
320 143 m 0
 268 143 268 64 320 64 c 0
 371 64 371 143 320 143 c 0
EndSplineSet
EndChar
StartChar: uni0E44
Encoding: 228 3652 194
Width: 458
Flags: HW
HStem: 144 68<297 311> 950 126<-49 -25>
VStem: 179 118<130 719>
Fore
418 83 m 0
 418 83 l 0
 408 31 371 2 310 -2 c 0
 207 -6 179 69 179 130 c 1
 181 710 l 1
 181 751 192 776 210 815 c 0
 231 864 254 927 227 940 c 0
 201 952 187 923 159 878 c 0
 138 846 113 788 80 791 c 0
 37 794 38 861 -9 937 c 0
 -21 956 -44 950 -49 950 c 1
 -25 1076 l 1
 -21 1076 15 1082 41 1047 c 0
 69 1010 71 937 95 933 c 0
 135 929 166 1082 267 1059 c 0
 323 1045 348 1012 345 946 c 0
 342 881 319 842 307 782 c 0
 299 746 297 736 297 708 c 2
 297 212 l 1
 299 212 322 218 362 201 c 0
 400 184 429 139 418 83 c 0
311 144 m 0
 259 144 259 66 311 66 c 0
 362 66 362 144 311 144 c 0
EndSplineSet
EndChar
StartChar: uni0E45
Encoding: 229 3653 195
Width: 308
Flags: HW
HStem: 504 91<12 31>
VStem: -179 87<446 475> 121 118<-192 385>
Fore
-92 446 m 1
 -179 475 l 1
 -179 477 -167 595 29 595 c 0
 198 595 239 474 239 368 c 2
 239 -192 l 1
 121 -192 l 1
 121 357 l 2
 121 423 107 504 15 504 c 0
 -78 503 -92 448 -92 446 c 1
EndSplineSet
EndChar
StartChar: uni0E46
Encoding: 230 3654 196
Width: 675
Flags: HW
HStem: -236 81<346 422> 520 78<438 443>
VStem: 484 118<-13 453>
Fore
602 84 m 1
 602 84 l 0
 602 -18 609 -104 543 -172 c 0
 483 -231 423 -236 422 -236 c 1
 346 -155 l 1
 351 -155 420 -138 449 -109 c 0
 481 -75 484 -41 484 2 c 2
 484 431 l 2
 484 454 484 474 472 490 c 0
 457 512 440 520 438 520 c 2
 351 463 l 1
 268 515 l 2
 267 515 241 506 233 478 c 0
 224 445 231 434 231 431 c 1
 236 432 290 452 328 403 c 0
 363 360 340 271 265 264 c 0
 144 250 104 379 129 472 c 0
 146 541 195 587 265 598 c 1
 351 544 l 1
 443 598 l 1
 449 598 504 598 546 566 c 0
 609 517 602 461 602 434 c 2
 602 84 l 1
253 385 m 0
 215 385 215 326 253 326 c 0
 291 326 291 385 253 385 c 0
EndSplineSet
EndChar
StartChar: uni0E47
Encoding: 231 3655 197
Width: 0
Flags: HW
HStem: 673 113<-400 -365> 808 60<-185.938 -178.063>
AnchorPoint: "AboveMark" -309 659 mark 0
AnchorPoint: "AboveBase" -87 613 mark 0
Fore
-25 1093 m 1
 -25 1093 l 1
 -25 1093 -20 949 -133 930 c 0
 -222 915 -273 946 -359 941 c 0
 -411 937 -432 891 -432 845 c 0
 -432 802 -402 786 -400 786 c 1
 -400 789 -395 840 -354 851 c 0
 -311 863 -261 805 -261 805 c 1
 -261 805 -248 869 -178 868 c 0
 -124 866 -90 820 -97 754 c 0
 -101 705 -135 676 -178 674 c 0
 -256 671 -287 762 -330 759 c 0
 -379 756 -365 674 -365 673 c 1
 -429 674 -487 704 -510 765 c 0
 -543 855 -518 972 -422 1002 c 0
 -343 1029 -233 992 -161 1012 c 0
 -123 1022 -129 1061 -124 1093 c 1
 -25 1093 l 1
-178 808 m 0
 -215 809 -222 737 -176 737 c 0
 -135 737 -141 806 -178 808 c 0
EndSplineSet
EndChar
StartChar: uni0E48
Encoding: 232 3656 198
Width: 0
Flags: HW
VStem: -201 111<992 1194>
AnchorPoint: "AboveMark" -145 988 mark 0
Fore
-201 992 m 1
 -201 1194 l 1
 -90 1194 l 1
 -90 992 l 1
 -201 992 l 1
EndSplineSet
Substitution: 0 65534 'low0' uni0E48.low
Substitution: 0 65534 'amn0' uni0E4D
Substitution: 0 65534 'low0' uni0E48.low
Substitution: 0 65534 'loww' uni0E48.low
Substitution: 0 65534 'amni' uni0E4D
EndChar
StartChar: uni0E49
Encoding: 233 3657 199
Width: 0
Flags: HW
HStem: 1058 47<-309 -299> 1185 49<-307 -294>
AnchorPoint: "AboveMark" -196 988 mark 0
Fore
-330 1021 m 0
 -330 1021 l 0
 -310 1047 -307 1058 -307 1058 c 1
 -331 1058 -369 1071 -383 1104 c 0
 -406 1156 -377 1231 -307 1234 c 0
 -248 1235 -207 1205 -199 1156 c 0
 -190 1099 -221 1055 -239 1042 c 1
 -210 1045 -182 1055 -152 1070 c 0
 -115 1087 -97 1102 -74 1124 c 0
 -28 1166 -2 1222 -2 1222 c 1
 -2 1088 l 1
 -2 1088 -55 1033 -146 1004 c 0
 -224 979 -328 973 -377 979 c 1
 -377 979 -349 995 -330 1021 c 0
-299 1105 m 0
 -247 1105 -248 1185 -302 1185 c 0
 -354 1185 -351 1105 -299 1105 c 0
EndSplineSet
Substitution: 0 65534 'low0' uni0E49.low
Substitution: 0 65534 'amn0' uni0E4D
Substitution: 0 65534 'low0' uni0E49.low
Substitution: 0 65534 'loww' uni0E49.low
Substitution: 0 65534 'amni' uni0E4D
EndChar
StartChar: uni0E4A
Encoding: 234 3658 200
Width: 0
Flags: HW
HStem: 1090 27<-342 -309> 1151 55<-241 -238> 1177 65<-184 -159>
AnchorPoint: "AboveMark" -223 988 mark 0
Fore
-337 1153 m 0xc0
 -337 1153 l 0
 -345 1136 -342 1120 -342 1117 c 1
 -340 1117 -310 1133 -277 1117 c 0
 -238 1097 -236 1033 -265 1007 c 0
 -307 969 -372 993 -394 1039 c 0
 -423 1104 -403 1225 -330 1239 c 0
 -271 1251 -239 1206 -238 1206 c 0xc0
 -236 1206 -202 1242 -159 1242 c 0
 -120 1242 -80 1214 -75 1156 c 0
 -69 1108 -92 1068 -92 1068 c 1
 -87 1070 -55 1087 -32 1128 c 0
 -11 1168 -6 1217 -6 1235 c 1
 75 1194 l 1
 75 1194 52 1088 -38 1036 c 0
 -97 1004 -182 992 -207 992 c 1
 -202 993 -156 1022 -146 1087 c 0
 -138 1131 -146 1177 -184 1177 c 0xa0
 -207 1177 -241 1151 -241 1151 c 2
 -242 1151 -270 1179 -303 1179 c 0
 -322 1179 -331 1166 -337 1153 c 0xc0
-317 1024 m 0
 -273 1024 -273 1090 -317 1090 c 0
 -362 1090 -362 1024 -317 1024 c 0
EndSplineSet
Substitution: 0 65534 'low0' uni0E4A.low
Substitution: 0 65534 'amn0' uni0E4D
Substitution: 0 65534 'low0' uni0E4A.low
Substitution: 0 65534 'loww' uni0E4A.low
Substitution: 0 65534 'amni' uni0E4D
EndChar
StartChar: uni0E4B
Encoding: 235 3659 201
Width: 0
Flags: HW
HStem: 1064 69<-303 -202 -89 12>
VStem: -202 113<984 1064 1133 1226>
AnchorPoint: "AboveMark" -145 988 mark 0
Fore
-202 1226 m 1
 -89 1226 l 1
 -89 1133 l 1
 12 1133 l 1
 12 1064 l 1
 -89 1064 l 1
 -89 984 l 1
 -202 984 l 1
 -202 1064 l 1
 -303 1064 l 1
 -303 1133 l 1
 -202 1133 l 1
 -202 1226 l 1
EndSplineSet
Substitution: 0 65534 'low0' uni0E4B.low
Substitution: 0 65534 'amn0' uni0E4D
Substitution: 0 65534 'low0' uni0E4B.low
Substitution: 0 65534 'loww' uni0E4B.low
Substitution: 0 65534 'amni' uni0E4D
EndChar
StartChar: uni0E4C
Encoding: 236 3660 202
Width: 0
Flags: HW
HStem: 1009 39<-126 -118>
AnchorPoint: "AboveMark" -119 919 mark 0
Fore
-72 1076 m 0
 -72 1076 l 0
 -123 1071 -126 1048 -126 1048 c 1
 -123 1048 -35 1048 -35 958 c 0
 -37 881 -149 858 -195 915 c 0
 -235 963 -224 1052 -169 1090 c 0
 -113 1128 -66 1116 -21 1150 c 0
 2 1165 2 1209 2 1214 c 1
 83 1214 l 1
 83 1209 77 1151 52 1125 c 1
 26 1101 -3 1082 -72 1076 c 0
-120 924 m 0
 -64 924 -64 1009 -120 1009 c 0
 -173 1009 -173 924 -120 924 c 0
EndSplineSet
Substitution: 0 65534 'low0' uni0E4C.low
Substitution: 0 65534 'low0' uni0E4C.low
Substitution: 0 65534 'loww' uni0E4C.low
EndChar
StartChar: uni0E4D
Encoding: 237 3661 203
Width: 0
Flags: HW
HStem: 696 66<-209.853 -195> 877 69<-209.853 -195>
AnchorPoint: "AboveMark" -197 988 basemark 0
AnchorPoint: "AboveBase" -87 613 mark 0
Fore
-198 946 m 0
 -198 946 l 0
 -31 946 -31 696 -198 696 c 0
 -365 696 -365 946 -198 946 c 0
-198 762 m 0
 -121 762 -121 877 -198 877 c 0
 -274 877 -274 762 -198 762 c 0
EndSplineSet
Substitution: 0 65534 'hig0' uni0E4D.high
Substitution: 0 65534 'high' uni0E4D.high
Substitution: 0 65534 'G006' uni0E4B
Substitution: 0 65534 'G005' uni0E4A
Substitution: 0 65534 'G004' uni0E49
Substitution: 0 65534 'G003' uni0E48
EndChar
StartChar: uni0E4E
Encoding: 238 3662 204
Width: 0
Flags: HW
HStem: 717 69<-198 -167> 878 63<-83 -74> 1018 61<-78 -58>
VStem: -317 113<807 817> -238 105<971 983>
AnchorPoint: "AboveBase" -87 613 mark 0
Fore
-210 926 m 1xf0
 -228 940 -238 958 -238 983 c 2
 -238 984 l 1
 -221 1061 -124 1078 -58 1079 c 0
 -17 1081 5 1073 41 1056 c 1
 -18 1010 l 1
 -23 1010 l 2
 -25 1010 -32 1010 -43 1013 c 0
 -49 1015 -55 1016 -64 1018 c 0
 -90 1018 -129 1006 -133 973 c 0xe8
 -133 966 -129 958 -118 952 c 0
 -106 946 -90 941 -74 941 c 2
 -52 941 l 1
 -81 878 l 1
 -90 878 l 2
 -126 878 -204 866 -204 815 c 0
 -204 796 -185 786 -167 786 c 0
 -138 786 -127 792 -109 812 c 1
 -52 766 l 1
 -98 728 -138 717 -198 717 c 0
 -258 717 -317 739 -317 808 c 0
 -317 869 -265 914 -210 926 c 1xf0
EndSplineSet
EndChar
StartChar: uni0E4F
Encoding: 239 3663 205
Width: 596
Flags: HW
HStem: 0 34<296 317> 109 35<283 301> 360 37<283 301> 472 34<296 317>
Fore
296 506 m 0
 296 506 l 0
 633 506 633 0 296 0 c 0
 -40 0 -40 506 296 506 c 0
296 34 m 0
 296 34 l 0
 587 34 587 472 296 472 c 0
 6 472 6 34 296 34 c 0
296 397 m 0
 296 397 l 0
 104 397 104 109 296 109 c 0
 489 109 489 397 296 397 c 0
299 360 m 0
 443 360 443 144 299 144 c 0
 155 144 155 360 299 360 c 0
EndSplineSet
EndChar
StartChar: uni0E50
Encoding: 240 3664 206
Width: 697
Flags: HW
HStem: -9 76<329 347> 353 76<339 347>
VStem: 74 111<198 216> 492 113<198 216>
Fore
74 212 m 0
 74 212 l 0
 74 343 169 429 339 429 c 0
 507 429 605 343 605 212 c 0
 605 77 510 -11 339 -9 c 0
 166 -8 74 77 74 212 c 0
339 353 m 0
 233 353 185 290 185 210 c 0
 185 130 236 67 336 67 c 0
 441 67 492 127 492 210 c 0
 492 290 446 353 339 353 c 0
EndSplineSet
EndChar
StartChar: uni0E51
Encoding: 241 3665 207
Width: 697
Flags: HW
HStem: 356 67<369 374>
Fore
641 204 m 0
 641 204 l 0
 645 81 573 -20 498 -55 c 1
 434 -6 l 1
 437 -5 538 18 527 204 c 0
 523 281 484 354 369 356 c 0
 270 356 213 290 207 204 c 0
 202 146 228 58 302 61 c 0
 326 63 325 67 340 77 c 1
 300 83 271 118 271 158 c 0
 271 205 307 245 365 242 c 0
 435 239 458 182 452 126 c 0
 445 64 385 -9 277 -3 c 0
 172 3 98 74 101 205 c 0
 104 331 189 423 369 423 c 0
 559 423 636 325 641 204 c 0
359 189 m 0
 317 189 317 126 359 126 c 0
 402 126 402 189 359 189 c 0
EndSplineSet
EndChar
StartChar: uni0E52
Encoding: 242 3666 208
Width: 697
Flags: HW
HStem: 0 77<292 540>
VStem: 124 117<125.937 433> 547 118<131 317>
Fore
665 144 m 1
 665 144 l 0
 665 109 662 74 636 43 c 0
 612 14 581 0 540 0 c 2
 267 0 l 2
 225 0 195 9 164 37 c 0
 133 66 124 103 124 146 c 2
 124 403 l 2
 124 431 124 468 98 492 c 0
 63 527 8 524 5 524 c 1
 69 612 l 1
 112 610 147 592 181 566 c 0
 231 524 241 471 241 405 c 2
 241 173 l 2
 241 147 235 127 248 107 c 0
 261 89 281 77 302 77 c 2
 468 77 l 2
 490 77 509 78 530 97 c 0
 543 109 547 127 547 147 c 2
 547 296 l 2
 547 319 544 353 523 353 c 0
 503 353 486 330 487 311 c 1
 446 311 l 1
 448 331 429 351 408 351 c 0
 385 351 379 331 376 314 c 0
 371 288 376 270 376 268 c 1
 400 277 426 273 451 258 c 0
 487 233 486 152 435 130 c 0
 357 98 282 162 287 282 c 0
 291 369 328 417 394 422 c 0
 452 426 471 383 469 383 c 0
 464 380 487 425 561 422 c 0
 627 422 665 368 665 300 c 2
 665 144 l 1
400 224 m 0
 366 224 366 172 400 172 c 0
 435 172 435 224 400 224 c 0
EndSplineSet
EndChar
StartChar: uni0E53
Encoding: 243 3667 209
Width: 697
Flags: HW
HStem: -3 51<206 213> 113 51<213 219> 337 86<260 270>
VStem: 95 121<163 208> 326 100<0 270> 533 118<162 202>
Fore
651 202 m 0
 651 202 l 0
 651 63 621 5 619 0 c 1
 503 0 l 1
 509 12 533 75 533 195 c 0
 535 253 524 334 474 336 c 0
 435 337 426 290 426 256 c 2
 426 0 l 1
 326 0 l 1
 326 256 l 2
 326 293 307 339 270 337 c 0
 227 337 216 291 213 239 c 0
 210 190 216 166 216 164 c 1
 218 164 293 169 297 86 c 0
 300 25 258 -5 210 -3 c 0
 110 -2 95 92 95 208 c 0
 97 333 152 426 261 423 c 0
 330 423 354 389 377 340 c 1
 403 391 429 425 501 423 c 0
 605 423 651 323 651 202 c 0
213 113 m 0
 170 113 170 48 213 48 c 0
 256 48 256 113 213 113 c 0
EndSplineSet
EndChar
StartChar: uni0E54
Encoding: 244 3668 210
Width: 697
Flags: HW
HStem: 84 101<369 386> 242 57<368 371>
Fore
679 544 m 1
 679 544 l 0
 679 474 650 395 582 362 c 0
 510 323 434 345 340 348 c 0
 213 353 170 281 173 195 c 0
 176 126 212 35 323 72 c 0
 362 83 385 84 386 84 c 0
 382 84 288 118 282 201 c 0
 279 236 297 297 368 299 c 0
 423 300 451 262 452 218 c 0
 452 159 406 146 406 146 c 1
 408 143 414 116 452 104 c 0
 487 92 506 92 536 84 c 0
 575 75 589 54 590 54 c 1
 546 -6 l 1
 546 -6 518 18 458 20 c 0
 366 21 264 -34 167 12 c 0
 113 37 64 77 61 185 c 0
 57 311 121 395 204 415 c 0
 320 443 417 400 497 422 c 0
 572 441 582 521 587 595 c 1
 679 544 l 1
369 242 m 0
 333 242 333 185 369 185 c 0
 408 185 408 242 369 242 c 0
EndSplineSet
EndChar
StartChar: uni0E55
Encoding: 245 3669 211
Width: 697
Flags: HW
HStem: 86 101<343 353> 244 55<340 345> 546 55<342 360>
Fore
685 553 m 1
 685 553 l 0
 685 550 676 480 636 440 c 0
 546 349 406 388 402 389 c 1
 402 389 386 360 311 357 c 0
 178 353 144 284 149 196 c 0
 150 127 184 35 297 72 c 0
 334 83 351 86 353 86 c 0
 348 86 261 118 254 201 c 0
 253 236 268 297 340 299 c 0
 397 300 425 262 425 218 c 0
 426 159 379 146 379 146 c 1
 380 143 388 116 425 104 c 0
 460 92 478 92 509 86 c 0
 552 78 563 55 564 55 c 1
 518 -5 l 1
 518 -5 475 18 431 20 c 0
 339 20 238 -35 139 9 c 0
 84 34 37 78 34 187 c 0
 29 307 75 379 156 406 c 0
 218 426 265 425 273 425 c 1
 273 425 224 458 244 526 c 0
 259 581 307 602 360 601 c 0
 412 599 451 575 463 532 c 0
 478 483 455 458 455 458 c 1
 460 458 524 445 559 490 c 0
 592 532 590 601 590 601 c 1
 685 553 l 1
353 448 m 0
 353 448 l 0
 418 448 418 546 353 546 c 0
 288 546 288 448 353 448 c 0
343 244 m 0
 305 244 305 187 343 187 c 0
 380 187 380 244 343 244 c 0
EndSplineSet
EndChar
StartChar: uni0E56
Encoding: 246 3670 212
Width: 697
Flags: HW
HStem: -3 127<296 415> 189 55<290 305>
Fore
655 124 m 0
 655 124 l 0
 612 23 527 -5 415 -3 c 0
 319 -2 212 34 202 133 c 0
 196 185 225 245 303 244 c 0
 363 244 391 199 391 149 c 0
 389 97 353 78 353 78 c 1
 357 77 434 41 506 87 c 0
 558 121 567 205 553 262 c 0
 538 316 494 366 395 363 c 0
 331 360 279 340 242 293 c 1
 184 293 l 1
 184 293 178 412 139 471 c 0
 84 550 35 556 35 556 c 1
 130 619 l 1
 133 619 185 589 221 517 c 0
 258 443 256 385 256 383 c 1
 259 386 308 435 457 426 c 0
 682 414 691 208 655 124 c 0
296 189 m 0
 251 189 251 124 296 124 c 0
 339 124 339 189 296 189 c 0
EndSplineSet
EndChar
StartChar: uni0E57
Encoding: 247 3671 213
Width: 697
Flags: HW
HStem: 113 39<112 165> 270 84<258 258.299>
Fore
739 570 m 1
 739 570 l 1
 739 570 696 555 687 469 c 0
 674 343 687 253 632 150 c 0
 564 23 461 -3 331 -3 c 1
 331 -2 376 44 399 181 c 0
 408 233 405 354 343 354 c 0
 294 353 284 273 284 270 c 1
 230 270 l 1
 230 273 224 353 166 354 c 0
 126 356 103 302 100 259 c 0
 94 181 112 153 112 152 c 1
 113 152 155 182 207 158 c 0
 268 129 267 11 173 -3 c 0
 64 -18 2 81 -6 210 c 0
 -11 313 35 417 143 422 c 0
 235 426 256 359 258 354 c 1
 258 354 276 420 346 423 c 0
 446 429 492 360 500 284 c 0
 513 146 463 101 463 101 c 1
 468 104 526 104 556 210 c 0
 586 310 575 372 582 481 c 0
 592 596 648 624 650 627 c 1
 739 570 l 1
159 113 m 0
 118 113 118 51 159 51 c 0
 199 51 199 113 159 113 c 0
EndSplineSet
EndChar
StartChar: uni0E58
Encoding: 248 3672 214
Width: 697
Flags: HW
HStem: 87 57<532 547>
Fore
704 559 m 1
 704 559 l 1
 704 559 690 399 569 357 c 0
 468 322 349 369 270 340 c 0
 216 320 193 267 193 196 c 0
 193 106 228 90 228 90 c 1
 228 94 231 172 291 176 c 0
 357 182 377 116 466 71 c 0
 513 44 529 87 532 87 c 0
 529 87 455 106 452 170 c 0
 449 225 503 288 581 261 c 0
 664 230 659 127 621 71 c 0
 584 12 518 -15 452 3 c 0
 372 25 351 90 307 81 c 0
 268 75 277 2 277 0 c 1
 274 0 173 -31 106 75 c 0
 54 158 60 359 199 408 c 0
 305 445 377 402 489 422 c 0
 610 441 605 622 605 624 c 1
 704 559 l 1
547 213 m 0
 503 213 503 144 547 144 c 0
 592 144 592 213 547 213 c 0
EndSplineSet
EndChar
StartChar: uni0E59
Encoding: 249 3673 215
Width: 697
Flags: HW
Fore
719 587 m 1
 719 587 l 1
 719 587 739 374 644 330 c 0
 576 299 529 360 497 336 c 0
 471 317 469 244 492 195 c 0
 538 94 587 74 592 72 c 1
 535 -3 l 1
 535 -3 469 18 420 155 c 0
 383 253 337 365 238 360 c 0
 164 357 141 284 138 233 c 0
 135 161 144 106 181 77 c 0
 216 51 231 72 235 72 c 1
 202 92 190 129 196 170 c 0
 204 213 235 238 279 236 c 0
 348 236 366 169 357 110 c 0
 345 40 297 -6 215 -3 c 0
 101 0 26 89 29 224 c 0
 32 334 106 412 195 423 c 0
 369 448 415 320 415 320 c 1
 415 323 403 405 457 422 c 0
 507 435 556 388 596 402 c 0
 627 412 625 475 625 523 c 0
 627 586 618 624 618 627 c 1
 719 587 l 1
303 147 m 0
 305 193 250 196 248 150 c 0
 248 104 303 101 303 147 c 0
EndSplineSet
EndChar
StartChar: uni0E5A
Encoding: 250 3674 216
Width: 797
Flags: HW
HStem: -6 86<268 322> 339 75<216 232>
VStem: 31 79<478 529> 193 52<518 531> 386 120<157 403> 609 114<182 473.104>
Fore
152 570 m 0
 152 570 l 0
 138 570 129 567 121 558 c 0
 115 550 112 541 110 529 c 0
 110 518 113 509 121 500 c 0
 129 492 138 489 152 487 c 0
 164 487 175 492 182 500 c 0
 190 509 193 518 193 529 c 0
 193 541 190 550 182 558 c 0
 176 566 166 570 152 570 c 0
723 494 m 0
 723 461 727 176 720 116 c 0
 716 55 685 26 645 3 c 0
 604 -20 556 -18 556 -18 c 1
 510 64 l 1
 510 64 563 61 589 95 c 0
 610 123 609 182 609 182 c 1
 609 296 612 414 610 478 c 0
 609 503 587 517 558 517 c 0
 535 517 518 497 506 484 c 1
 506 185 l 2
 506 143 501 109 494 84 c 0
 486 61 469 38 437 21 c 0
 402 3 363 -5 322 -6 c 1
 268 80 l 1
 319 80 354 90 374 113 c 0
 382 123 386 138 386 161 c 0
 386 166 386 172 385 179 c 1
 385 196 l 1
 385 403 l 2
 385 402 379 395 366 383 c 1
 354 374 337 363 314 354 c 0
 293 345 264 339 230 339 c 0
 178 337 133 353 97 376 c 0
 58 400 37 434 31 478 c 1
 31 518 40 550 60 575 c 0
 78 599 106 613 144 615 c 0
 176 616 201 605 219 589 c 0
 236 572 245 552 245 526 c 0
 245 520 245 512 242 501 c 0
 236 475 222 458 202 451 c 0
 182 443 164 440 150 438 c 1
 153 435 159 431 172 423 c 0
 182 417 196 414 216 414 c 0
 222 414 231 414 247 417 c 0
 279 423 302 432 317 446 c 0
 333 460 343 469 357 494 c 0
 368 510 374 526 379 553 c 0
 383 576 383 575 388 595 c 1
 405 638 490 622 494 582 c 1
 549 613 550 615 592 619 c 1
 746 615 723 506 723 494 c 0
EndSplineSet
EndChar
StartChar: uni0E5B
Encoding: 251 3675 217
Width: 1109
Flags: HW
HStem: 38 74<235 243> 230 66<887 915 898 1011> 483 73<212 227>
VStem: 18 72<277 322> 126 56<300 313> 221 56<300 313> 310 72<357 375>
Fore
265 250 m 0
 265 250 l 0
 297 274 310 326 310 365 c 0
 310 431 281 483 212 483 c 0
 185 483 158 469 130 431 c 0
 104 395 90 351 90 299 c 0
 90 244 106 199 135 164 c 0
 166 129 198 112 235 112 c 0
 300 112 345 158 369 219 c 0
 402 294 432 441 455 521 c 1
 495 521 l 1
 541 320 l 1
 572 498 l 1
 613 498 l 1
 653 313 l 1
 705 478 l 1
 757 325 l 1
 794 443 l 1
 803 423 866 296 889 296 c 0
 918 296 935 293 952 294 c 0
 995 294 1027 294 1048 294 c 2
 1099 294 l 1
 1099 235 l 1
 1099 235 1079 233 1029 233 c 0
 995 231 981 231 975 231 c 2
 967 231 l 1
 963 231 l 2
 949 230 935 230 898 230 c 0
 866 230 842 233 820 259 c 2
 819 261 l 2
 817 262 820 264 822 265 c 1
 817 265 812 268 811 271 c 1
 756 95 l 1
 708 258 l 1
 651 89 l 1
 598 254 l 1
 566 72 l 1
 524 72 l 1
 474 308 l 1
 437 182 395 38 235 38 c 0
 90 38 18 178 18 300 c 0
 18 371 37 431 72 480 c 0
 109 530 156 556 212 556 c 0
 326 556 382 466 382 363 c 0
 382 285 345 172 241 172 c 0
 205 172 176 189 155 218 c 0
 136 245 126 274 126 300 c 0
 126 423 277 414 277 300 c 0
 277 284 274 265 265 250 c 0
182 300 m 0
 182 279 192 254 207 254 c 0
 221 254 221 279 221 300 c 0
 221 323 213 340 202 340 c 0
 192 340 182 323 182 300 c 0
EndSplineSet
EndChar
StartChar: uni0E38.low
Encoding: 252 63256 218
Width: 0
Flags: HW
VStem: -193 106<-598 -425>
Fore
-193 -598 m 1
 -193 -477 l 0
 -208 -480 -225 -478 -247 -463 c 0
 -287 -437 -293 -380 -264 -340 c 0
 -238 -308 -181 -305 -152 -314 c 0
 -97 -333 -87 -377 -87 -425 c 2
 -87 -598 l 5
 -193 -598 l 1
-199 -420 m 0
 -156 -420 -155 -354 -199 -354 c 0
 -244 -354 -245 -420 -199 -420 c 0
EndSplineSet
EndChar
StartChar: uni0E39.low
Encoding: 253 63257 219
Width: 0
Flags: HW
VStem: -357 101<-575 -423> -196 115<-500 -305>
Fore
-235 -500 m 1
 -235 -500 l 1
 -235 -500 -216 -500 -222 -500 c 0
 -227 -500 -213 -498 -204 -484 c 0
 -195 -472 -195 -449 -196 -452 c 0
 -196 -468 -198 -305 -196 -305 c 2
 -80 -305 l 1
 -80 -305 -81 -498 -81 -500 c 0
 -81 -501 -84 -527 -100 -543 c 0
 -115 -559 -129 -573 -152 -573 c 0
 -162 -575 -190 -573 -190 -573 c 1
 -357 -575 l 1
 -357 -494 l 1
 -411 -497 -458 -477 -460 -400 c 0
 -461 -343 -418 -297 -354 -300 c 0
 -281 -303 -256 -360 -256 -423 c 2
 -256 -500 l 1
 -235 -500 l 1
-366 -429 m 0
 -322 -429 -328 -357 -369 -359 c 0
 -411 -360 -409 -429 -366 -429 c 0
EndSplineSet
EndChar
StartChar: uni0E3A.low
Encoding: 254 63258 220
Width: 0
Flags: HW
Fore
-158 -282 m 0
 -48 -282 -48 -449 -158 -449 c 0
 -268 -449 -268 -282 -158 -282 c 0
EndSplineSet
EndChar
StartChar: DEL
Encoding: 255 63259 221
Width: 0
VWidth: 2048
Flags: HW
HStem: 0 21G<-460 0>
VStem: -460 460<0 766>
Fore
-460 766 m 1
 0 766 l 1
 0 0 l 1
 -460 0 l 1
 -460 766 l 1
EndSplineSet
EndChar
StartChar: exclamdown
Encoding: 256 161 222
Width: 332
VWidth: 2048
Flags: HW
HStem: 382 136<101 239>
VStem: 95 149<-199 -31>
Fore
239 518 m 1
 239 382 l 1
 101 382 l 1
 101 518 l 1
 239 518 l 1
208 331 m 1
 244 -31 l 1
 244 -199 l 1
 95 -199 l 1
 95 -31 l 1
 130 331 l 1
 208 331 l 1
EndSplineSet
EndChar
StartChar: cent
Encoding: 257 162 223
Width: 556
VWidth: 2048
Flags: HW
HStem: -12 21G<284 357>
VStem: 41 141<251 285>
Fore
363 397 m 1
 274 101 l 1
 296 100 l 2
 349 97 382 130 395 199 c 1
 530 176 l 1
 503 51 423 -12 291 -12 c 0
 277 -12 261 -11 242 -8 c 1
 184 -196 l 1
 126 -181 l 1
 181 8 l 1
 87 52 41 136 41 261 c 0
 41 441 133 530 319 530 c 1
 328 529 334 529 339 527 c 1
 394 711 l 1
 454 694 l 1
 399 513 l 1
 461 489 503 440 524 365 c 1
 388 342 l 1
 385 363 377 382 363 397 c 1
307 422 m 1
 294 423 l 2
 219 428 182 376 182 268 c 0
 182 205 195 159 219 132 c 1
 307 422 l 1
EndSplineSet
EndChar
StartChar: sterling
Encoding: 258 163 224
Width: 556
VWidth: 2048
Flags: HW
HStem: -11 123<386 406> 303 109<6 107 221 372> 619 111<277 295>
VStem: 63 133<515 541>
Fore
487 139 m 1
 541 23 l 1
 494 0 449 -11 406 -11 c 0
 380 -11 342 -5 291 9 c 0
 241 23 204 31 181 31 c 0
 141 31 100 15 58 -12 c 1
 6 106 l 1
 80 159 115 216 110 276 c 1
 107 303 l 1
 6 303 l 1
 6 412 l 1
 83 412 l 1
 69 451 63 489 63 529 c 0
 63 589 86 639 132 676 c 0
 176 711 228 730 291 730 c 0
 422 730 495 667 513 541 c 1
 382 521 l 1
 371 586 340 619 287 619 c 0
 261 619 239 610 222 593 c 0
 205 575 196 553 196 527 c 0
 196 494 204 455 221 412 c 1
 372 412 l 1
 372 303 l 1
 244 303 l 1
 244 282 l 2
 245 238 221 185 170 126 c 1
 192 135 213 139 238 138 c 2
 268 136 l 2
 271 136 285 133 308 127 c 0
 348 116 374 112 388 112 c 0
 414 112 448 121 487 139 c 1
EndSplineSet
EndChar
StartChar: currency
Encoding: 259 164 225
Width: 556
VWidth: 2048
Flags: HW
HStem: 139 117<262.985 280> 454 119<260 279>
VStem: 60 118<356 358> 376 118<341.152 359>
Fore
87 460 m 1
 21 524 l 1
 103 610 l 1
 170 544 l 1
 201 563 236 573 276 573 c 0
 316 573 351 563 383 544 c 1
 448 610 l 1
 530 527 l 1
 466 463 l 1
 484 428 494 392 494 356 c 0
 494 317 484 281 466 250 c 1
 532 184 l 1
 449 101 l 1
 383 167 l 1
 346 149 311 139 277 139 c 0
 238 139 202 149 172 167 c 1
 107 103 l 1
 25 185 l 1
 89 250 l 1
 69 284 60 319 60 356 c 0
 60 395 69 431 87 460 c 1
178 356 m 0
 178 328 187 305 207 285 c 0
 227 267 250 256 277 256 c 0
 305 256 328 267 346 287 c 0
 366 305 376 328 376 356 c 0
 376 383 366 406 346 426 c 0
 328 445 305 454 277 454 c 0
 248 454 225 445 207 426 c 0
 187 406 178 383 178 356 c 0
EndSplineSet
EndChar
StartChar: yen
Encoding: 260 165 226
Width: 556
VWidth: 2048
Flags: HW
HStem: 0 21G<207 343> 133 109<25 207 343 527> 300 108<25 207 399 527>
VStem: 207 136<0 133 242 300>
Fore
207 133 m 1
 25 133 l 1
 25 242 l 1
 207 242 l 1
 207 300 l 1
 25 300 l 1
 25 408 l 1
 153 408 l 1
 0 716 l 1
 152 716 l 1
 248 509 l 2
 261 481 270 458 276 440 c 1
 281 458 290 481 302 509 c 2
 402 716 l 1
 552 716 l 1
 399 408 l 1
 527 408 l 1
 527 300 l 1
 343 300 l 1
 343 242 l 1
 527 242 l 1
 527 133 l 1
 343 133 l 1
 343 0 l 1
 207 0 l 1
 207 133 l 1
EndSplineSet
EndChar
StartChar: brokenbar
Encoding: 261 166 227
Width: 278
VWidth: 2048
Flags: HW
VStem: 86 109<-210 176 343 730>
Fore
86 343 m 1
 86 730 l 1
 195 730 l 1
 195 343 l 1
 86 343 l 1
86 -210 m 1
 86 176 l 1
 195 176 l 1
 195 -210 l 1
 86 -210 l 1
EndSplineSet
EndChar
StartChar: section
Encoding: 262 167 228
Width: 556
VWidth: 2048
Flags: HW
HStem: -210 104<271 302> 624 106<255 290>
VStem: 29 124<305 333> 69 139<570 580> 356 136<-51 -40> 402 119<215 238>
Fore
481 564 m 1xd0
 348 550 l 1
 348 599 322 624 273 624 c 0
 230 624 208 609 208 578 c 0
 208 558 224 535 256 510 c 0
 261 507 285 492 330 463 c 0
 392 423 435 392 457 372 c 0
 500 331 521 285 521 238 c 0xd4
 521 178 492 126 434 84 c 1
 472 46 492 5 492 -40 c 0
 492 -95 471 -139 426 -170 c 0
 388 -196 340 -210 282 -210 c 0
 149 -210 72 -152 57 -32 c 1
 190 -17 l 1
 202 -77 235 -106 287 -106 c 0
 333 -106 356 -86 356 -48 c 0
 356 -26 336 -2 294 28 c 1
 267 46 238 64 208 83 c 0xd8
 149 120 109 150 87 172 c 0
 49 212 29 256 29 305 c 0xe0
 29 376 60 428 120 461 c 1
 86 498 69 535 69 572 c 0
 69 622 90 662 132 691 c 0
 167 716 213 730 267 730 c 0
 391 730 463 674 481 564 c 1xd0
359 143 m 1
 388 169 402 192 402 215 c 0
 402 238 377 267 328 302 c 2
 195 399 l 1
 167 380 153 357 153 333 c 0xe4
 153 300 175 268 219 239 c 2
 359 143 l 1
EndSplineSet
EndChar
StartChar: dieresis
Encoding: 263 168 229
Width: 332
VWidth: 2048
Flags: HW
HStem: 610 120<2 121 213 331>
VStem: 2 119<610 730> 213 118<610 730>
Fore
2 610 m 1
 2 730 l 1
 121 730 l 1
 121 610 l 1
 2 610 l 1
213 610 m 1
 213 730 l 1
 331 730 l 1
 331 610 l 1
 213 610 l 1
EndSplineSet
EndChar
StartChar: copyright
Encoding: 264 169 230
Width: 735
VWidth: 2048
Flags: HW
HStem: -18 75<369 396> 147 71<362 380> 495 69<362 379> 658 73<369 396>
VStem: -5 74<357 383> 187 86<333 367> 671 74<357 383>
Fore
369 731 m 0
 475 731 563 694 636 622 c 0
 708 550 745 461 745 357 c 0
 745 253 708 166 635 92 c 0
 563 18 474 -18 369 -18 c 0
 267 -18 178 18 104 92 c 0
 32 166 -5 253 -5 357 c 0
 -5 461 32 550 104 622 c 0
 176 694 265 731 369 731 c 0
369 658 m 0
 285 658 215 628 156 570 c 0
 98 512 69 441 69 357 c 0
 69 273 98 202 156 144 c 0
 215 86 287 57 369 57 c 0
 454 57 524 86 582 144 c 0
 641 202 671 274 671 357 c 0
 671 441 641 512 582 570 c 0
 524 628 454 658 369 658 c 0
461 300 m 1
 540 274 l 1
 513 190 458 147 376 147 c 0
 316 147 268 167 235 205 c 0
 202 242 187 291 187 353 c 0
 187 415 202 466 233 504 c 0
 267 544 316 564 377 564 c 0
 457 564 512 524 540 446 c 1
 460 426 l 1
 443 472 414 495 374 495 c 0
 307 495 273 449 273 356 c 0
 273 264 303 218 366 218 c 0
 412 218 445 245 461 300 c 1
EndSplineSet
EndChar
StartChar: ordfeminine
Encoding: 265 170 231
Width: 369
VWidth: 2048
Flags: HW
HStem: 363 74<136 167> 651 79<168 195>
VStem: 18 102<467 479> 231 100<506 590 590 610>
Fore
124 612 m 1
 32 630 l 1
 46 696 95 730 179 730 c 0
 238 730 277 720 297 704 c 0
 320 685 331 647 331 590 c 2
 331 474 l 2
 331 420 336 385 346 372 c 1
 253 372 l 1
 248 380 245 392 242 406 c 1
 213 377 178 363 136 363 c 0
 57 363 18 399 18 469 c 0
 18 507 34 536 67 553 c 0
 84 563 118 573 170 584 c 0
 198 589 218 595 231 601 c 1
 231 610 l 2
 230 638 213 651 182 651 c 0
 152 651 133 639 124 612 c 1
231 535 m 1
 218 529 205 526 193 523 c 0
 144 513 120 498 120 477 c 0
 120 449 135 437 167 437 c 0
 210 437 231 463 231 515 c 2
 231 535 l 1
EndSplineSet
EndChar
StartChar: guillemotleft
Encoding: 266 171 232
Width: 556
VWidth: 2048
Flags: HW
Fore
310 480 m 1
 182 259 l 1
 310 34 l 1
 201 34 l 1
 48 259 l 1
 201 480 l 1
 310 480 l 1
501 480 m 1
 374 259 l 1
 501 34 l 1
 392 34 l 1
 239 259 l 1
 392 480 l 1
 501 480 l 1
EndSplineSet
EndChar
StartChar: logicalnot
Encoding: 267 172 233
Width: 583
VWidth: 2048
Flags: HW
HStem: 400 124<41 417>
VStem: 417 126<184 524>
Fore
417 184 m 1
 417 400 l 1
 41 400 l 1
 41 524 l 1
 543 524 l 1
 543 184 l 1
 417 184 l 1
EndSplineSet
EndChar
StartChar: minus
Encoding: 268 173 234
AltUni: 8722
Width: 332
VWidth: 2048
Flags: HW
HStem: 192 136<32 302>
Fore
32 192 m 1
 32 328 l 1
 302 328 l 1
 302 192 l 1
 32 192 l 1
EndSplineSet
EndChar
StartChar: registered
Encoding: 269 174 235
Width: 735
VWidth: 2048
Flags: HW
HStem: -18 73<346 396> 490 63<201 348> 658 73<346 396>
VStem: -5 74<357 383> 201 81<156 319 156 490> 437 86<429 447> 671 74<357 383>
Fore
369 731 m 0
 475 731 564 696 636 622 c 0
 708 550 745 463 745 357 c 0
 745 253 708 166 635 92 c 0
 563 18 474 -18 369 -18 c 0
 267 -18 178 18 104 92 c 0
 32 166 -5 253 -5 357 c 0
 -5 463 32 550 104 622 c 0
 176 696 265 731 369 731 c 0
371 658 m 0
 287 658 216 628 158 570 c 0
 100 512 69 440 69 357 c 0
 69 274 100 202 158 144 c 0
 216 84 287 55 371 55 c 0
 455 55 526 84 584 143 c 0
 642 201 671 273 671 357 c 0
 671 441 642 512 584 570 c 0
 526 628 455 658 371 658 c 0
201 156 m 1
 201 553 l 1
 409 553 l 2
 441 553 469 543 490 523 c 0
 512 501 523 475 523 441 c 0
 523 380 487 342 415 330 c 1
 434 325 451 311 471 285 c 1
 500 236 l 1
 547 156 l 1
 448 156 l 1
 414 221 l 2
 397 254 383 277 372 288 c 0
 353 310 330 319 302 319 c 2
 282 319 l 1
 282 156 l 1
 201 156 l 1
282 383 m 1
 314 383 l 2
 356 383 382 383 392 386 c 0
 422 392 437 409 437 437 c 0
 437 449 434 458 428 466 c 1
 422 483 383 490 314 490 c 2
 282 490 l 1
 282 383 l 1
EndSplineSet
EndChar
StartChar: macron
Encoding: 270 175 236
AltUni: 713
Width: 551
VWidth: 2048
Flags: HW
HStem: 759 89<-9 561>
Fore
-9 759 m 1
 -9 848 l 1
 561 848 l 1
 561 759 l 1
 -9 759 l 1
EndSplineSet
EndChar
StartChar: degree
Encoding: 271 176 237
Width: 400
VWidth: 2048
Flags: HW
HStem: 417 81<185.791 201> 647 83<198 202>
VStem: 41 83<573 578> 273 81<573 578>
Fore
41 573 m 0
 41 616 57 653 87 684 c 0
 118 714 155 730 198 730 c 0
 242 730 279 714 308 684 c 0
 339 653 354 616 354 573 c 0
 354 529 339 492 308 461 c 0
 279 432 242 417 198 417 c 0
 153 417 116 432 87 461 c 0
 57 492 41 529 41 573 c 0
124 573 m 0
 124 552 130 535 146 520 c 0
 159 506 178 498 198 498 c 0
 219 498 236 504 251 520 c 0
 265 533 273 552 273 573 c 0
 273 593 265 610 250 625 c 0
 236 641 218 647 198 647 c 0
 178 647 159 641 146 625 c 0
 130 610 124 593 124 573 c 0
EndSplineSet
EndChar
StartChar: plusminus
Encoding: 272 177 238
Width: 548
VWidth: 2048
Flags: HW
HStem: 0 129<25 526> 360 129<25 212 337 526>
VStem: 212 125<173 360 489 674>
Fore
212 173 m 1
 212 360 l 1
 25 360 l 1
 25 489 l 1
 212 489 l 1
 212 674 l 1
 337 674 l 1
 337 489 l 1
 526 489 l 1
 526 360 l 1
 337 360 l 1
 337 173 l 1
 212 173 l 1
25 0 m 1
 25 129 l 1
 526 129 l 1
 526 0 l 1
 25 0 l 1
EndSplineSet
EndChar
StartChar: twosuperior
Encoding: 273 178 239
Width: 332
VWidth: 2048
Flags: HW
HStem: 356 76<156 310> 656 69<155 173>
VStem: 216 94<608 623>
Fore
310 432 m 1
 310 356 l 1
 12 356 l 1
 15 405 57 460 133 520 c 0
 189 563 216 595 216 616 c 0
 216 642 199 656 167 656 c 0
 136 656 120 638 115 599 c 1
 21 607 l 1
 29 685 78 725 169 725 c 0
 205 725 238 717 264 702 c 0
 294 682 310 656 310 621 c 0
 310 595 302 572 287 550 c 0
 276 535 245 507 196 466 c 2
 156 432 l 1
 310 432 l 1
EndSplineSet
EndChar
StartChar: threesuperior
Encoding: 274 179 240
Width: 332
VWidth: 2048
Flags: HW
HStem: 349 69<164 170> 520 64<135 167> 656 69<148.26 170>
VStem: 201 93<619 627> 218 96<460 478>
Fore
20 463 m 1xe8
 109 472 l 1
 115 437 133 418 164 418 c 0
 201 418 218 437 218 472 c 0xe8
 218 504 201 520 167 520 c 0
 158 520 143 518 124 513 c 1
 135 584 l 1
 179 584 201 598 201 624 c 0
 201 645 187 656 159 656 c 0
 132 656 116 639 112 607 c 1
 25 621 l 1
 40 690 86 725 162 725 c 0
 195 725 224 717 250 702 c 0
 279 682 294 658 294 625 c 0xf0
 294 598 279 575 247 555 c 1
 291 538 314 509 314 468 c 0
 314 431 297 402 264 380 c 0
 235 360 202 349 164 349 c 0
 81 349 32 388 20 463 c 1xe8
EndSplineSet
EndChar
StartChar: acute
Encoding: 275 180 241
Width: 332
VWidth: 2048
Flags: HW
Fore
92 582 m 1
 159 730 l 1
 313 730 l 1
 178 582 l 1
 92 582 l 1
EndSplineSet
EndChar
StartChar: mu
Encoding: 276 181 242
AltUni: 956
Width: 576
VWidth: 2048
Flags: HW
HStem: -12 110<286 296>
VStem: 54 138<-199 63 -199 518> 399 127<0 518>
Fore
54 518 m 1
 192 518 l 1
 192 284 l 2
 192 159 224 98 288 98 c 0
 354 98 388 159 388 282 c 2
 388 518 l 1
 526 518 l 1
 526 0 l 1
 399 0 l 1
 399 63 l 1
 372 12 337 -12 294 -12 c 0
 251 -12 216 12 192 63 c 1
 192 -199 l 1
 54 -199 l 1
 54 518 l 1
EndSplineSet
EndChar
StartChar: paragraph
Encoding: 277 182 243
Width: 556
VWidth: 2048
Flags: HW
HStem: 589 127<259 382 259 552>
VStem: 192 119<-196 589> 382 115<-196 589>
Fore
311 -196 m 1
 192 -196 l 1
 192 316 l 1
 133 316 86 334 52 371 c 0
 17 408 0 455 0 513 c 0
 0 556 9 593 29 627 c 0
 51 664 81 688 120 700 c 0
 150 711 198 716 259 716 c 2
 552 716 l 1
 552 589 l 1
 497 589 l 1
 497 -196 l 1
 382 -196 l 1
 382 589 l 1
 311 589 l 1
 311 -196 l 1
EndSplineSet
EndChar
StartChar: periodcentered
Encoding: 278 183 244
AltUni: 8729
Width: 277
VWidth: 2048
Flags: HW
HStem: 281 136<72 208>
VStem: 72 136<281 417>
Fore
72 281 m 1
 72 417 l 1
 208 417 l 1
 208 281 l 1
 72 281 l 1
EndSplineSet
EndChar
StartChar: cedilla
Encoding: 279 184 245
Width: 332
VWidth: 2048
Flags: HW
HStem: -205 61<76 131> -58 52<129 159>
VStem: 192 93<-107.596 -92>
Fore
18 -196 m 1
 18 -139 l 1
 49 -143 80 -144 110 -144 c 0
 164 -144 192 -129 192 -98 c 0
 192 -72 170 -58 129 -58 c 0
 109 -58 87 -61 66 -67 c 1
 78 -18 l 1
 104 -11 132 -6 159 -6 c 0
 244 -6 285 -37 285 -98 c 0
 285 -170 228 -205 113 -205 c 0
 74 -205 41 -202 18 -196 c 1
EndSplineSet
EndChar
StartChar: onesuperior
Encoding: 280 185 246
Width: 332
VWidth: 2048
Flags: HW
VStem: 149 93<356 725>
Fore
242 356 m 1
 149 356 l 1
 149 607 l 1
 120 586 86 570 44 558 c 1
 44 635 l 1
 109 655 149 685 167 725 c 1
 242 725 l 1
 242 356 l 1
EndSplineSet
EndChar
StartChar: ordmasculine
Encoding: 281 186 247
Width: 364
VWidth: 2048
Flags: HW
HStem: 362 83<171 189> 642 88<171 189>
VStem: 12 104<544 555> 247 104<544 555>
Fore
12 544 m 0
 12 601 28 644 55 677 c 0
 86 711 129 730 182 730 c 0
 236 730 277 711 308 676 c 0
 337 644 351 599 351 544 c 0
 351 489 337 445 310 412 c 0
 281 379 238 362 182 362 c 0
 129 362 86 379 57 414 c 0
 28 446 12 490 12 544 c 0
116 544 m 0
 116 478 138 445 181 445 c 0
 224 445 247 478 247 544 c 0
 247 610 224 642 181 642 c 0
 138 642 116 610 116 544 c 0
EndSplineSet
EndChar
StartChar: guillemotright
Encoding: 282 187 248
Width: 556
VWidth: 2048
Flags: HW
Fore
244 34 m 1
 371 256 l 1
 244 480 l 1
 351 480 l 1
 506 256 l 1
 351 34 l 1
 244 34 l 1
52 34 m 1
 179 256 l 1
 52 480 l 1
 159 480 l 1
 314 256 l 1
 159 34 l 1
 52 34 l 1
EndSplineSet
EndChar
StartChar: onequarter
Encoding: 283 188 249
Width: 833
VWidth: 2048
Flags: HW
HStem: -20 21G<685 773> 51 72<596 685 773 825>
VStem: 150 92<356 725> 685 88<-20 51 123 349>
Fore
242 356 m 1
 150 356 l 1
 150 607 l 1
 120 586 84 569 44 558 c 1
 44 635 l 1
 110 655 150 685 167 725 c 1
 242 725 l 1
 242 356 l 1
244 -26 m 1
 166 -26 l 1
 590 725 l 1
 668 725 l 1
 244 -26 l 1
685 -20 m 1
 685 51 l 1
 510 51 l 1
 510 120 l 1
 697 349 l 1
 773 349 l 1
 773 123 l 1
 825 123 l 1
 825 51 l 1
 773 51 l 1
 773 -20 l 1
 685 -20 l 1
685 123 m 1
 685 231 l 1
 596 123 l 1
 685 123 l 1
EndSplineSet
EndChar
StartChar: onehalf
Encoding: 284 189 250
Width: 833
VWidth: 2048
Flags: HW
HStem: -20 77<656 809> 281 68<655 672>
VStem: 150 92<356 725> 716 93<239 246>
Fore
242 356 m 1
 150 356 l 1
 150 607 l 1
 120 586 84 569 44 558 c 1
 44 635 l 1
 110 655 150 685 167 725 c 1
 242 725 l 1
 242 356 l 1
244 -26 m 1
 166 -26 l 1
 590 725 l 1
 668 725 l 1
 244 -26 l 1
809 57 m 1
 809 -20 l 1
 512 -20 l 1
 515 28 556 83 635 144 c 0
 690 187 716 219 716 241 c 0
 716 267 700 281 667 281 c 0
 636 281 619 261 615 224 c 1
 523 231 l 1
 532 310 581 349 670 349 c 0
 707 349 737 342 763 325 c 0
 794 307 809 279 809 244 c 0
 809 213 797 184 771 156 c 0
 762 144 736 123 696 90 c 0
 679 77 665 66 656 57 c 1
 809 57 l 1
EndSplineSet
EndChar
StartChar: threequarters
Encoding: 285 190 251
Width: 833
VWidth: 2048
Flags: HW
HStem: -20 21G<685 773> 51 72<596 685 773 825> 349 69<164 178> 520 64<135 167> 656 69<148.26 170>
VStem: 201 93<619 631> 218 96<461 474> 685 88<-20 51 123 349>
Fore
20 463 m 1xfb
 109 472 l 1
 115 437 133 418 164 418 c 0
 201 418 218 437 218 472 c 0xfb
 218 504 201 520 167 520 c 0
 158 520 143 518 124 513 c 1
 135 584 l 1
 179 584 201 598 201 624 c 0
 201 645 187 656 159 656 c 0
 132 656 116 639 112 607 c 1
 25 621 l 1
 40 690 86 725 162 725 c 0
 195 725 224 717 250 702 c 0
 279 682 294 658 294 625 c 0xfd
 294 598 279 575 247 555 c 1
 291 538 314 509 314 468 c 0
 314 431 297 402 264 380 c 0
 235 360 202 349 164 349 c 0
 81 349 32 388 20 463 c 1xfb
256 -26 m 1
 178 -26 l 1
 602 725 l 1
 679 725 l 1
 256 -26 l 1
685 -20 m 1
 685 51 l 1
 509 51 l 1
 509 120 l 1
 696 349 l 1
 773 349 l 1
 773 123 l 1
 825 123 l 1
 825 51 l 1
 773 51 l 1
 773 -20 l 1
 685 -20 l 1
685 123 m 1
 685 231 l 1
 596 123 l 1
 685 123 l 1
EndSplineSet
EndChar
StartChar: questiondown
Encoding: 286 191 252
Width: 610
VWidth: 2048
Flags: HW
HStem: -205 105<288 322> 382 136<236 372>
VStem: 49 135<-14 8> 236 136<382 518>
Fore
372 518 m 1
 372 382 l 1
 236 382 l 1
 236 518 l 1
 372 518 l 1
248 334 m 1
 372 334 l 1
 374 297 l 1
 377 233 342 170 270 110 c 0
 238 86 219 69 213 61 c 0
 193 40 184 18 184 -5 c 0
 184 -35 196 -58 222 -77 c 0
 245 -92 271 -100 302 -100 c 0
 374 -100 420 -60 438 20 c 1
 564 5 l 1
 543 -135 457 -205 308 -205 c 0
 241 -205 184 -189 133 -155 c 0
 78 -116 49 -64 49 0 c 0
 49 38 64 75 95 112 c 0
 112 133 143 161 185 198 c 0
 215 221 233 241 239 256 c 0
 245 270 248 296 248 334 c 1
EndSplineSet
EndChar
StartChar: AE
Encoding: 293 198 259
Width: 999
VWidth: 2048
Flags: HW
HStem: 0 121<584 953> 169 124<245 440> 316 119<584 912> 595 121<291 940> 607 109<291 441>
VStem: 440 144<0 316 293 595>
Fore
-41 0 m 1xf4
 291 716 l 1
 940 716 l 1
 940 595 l 1
 584 595 l 1
 584 435 l 1
 912 435 l 1
 912 316 l 1
 584 316 l 1
 584 121 l 1
 953 121 l 1
 953 0 l 1
 440 0 l 1
 440 169 l 1
 192 169 l 1
 118 0 l 1
 -41 0 l 1xf4
245 293 m 1
 441 293 l 1
 441 607 l 1
 385 607 l 1xec
 245 293 l 1
EndSplineSet
EndChar
StartChar: Eth
Encoding: 303 208 269
Width: 721
VWidth: 2048
Flags: HW
HStem: 0 121<218 351> 313 90<-2 72 218 371> 595 121<72 327>
VStem: 72 146<0 313 403 595> 524 149<313 385>
CounterMasks: 1 00
Fore
72 716 m 1
 337 716 l 2
 408 716 463 708 503 691 c 0
 552 671 592 635 624 579 c 0
 658 523 673 446 673 349 c 0
 673 116 564 0 345 0 c 2
 72 0 l 1
 72 313 l 1
 -2 313 l 1
 -2 403 l 1
 72 403 l 1
 72 716 l 1
218 595 m 1
 218 403 l 1
 371 403 l 1
 371 313 l 1
 218 313 l 1
 218 121 l 1
 325 121 l 2
 406 121 461 139 489 178 c 0
 512 210 524 268 524 354 c 0
 524 478 494 553 434 578 c 0
 405 590 356 595 282 595 c 2
 218 595 l 1
EndSplineSet
EndChar
StartChar: multiply
Encoding: 310 215 276
Width: 583
VWidth: 2048
Flags: HW
Fore
54 205 m 1
 202 353 l 1
 54 501 l 1
 144 592 l 1
 293 445 l 1
 440 592 l 1
 529 503 l 1
 382 354 l 1
 530 205 l 1
 440 115 l 1
 290 264 l 1
 143 116 l 1
 54 205 l 1
EndSplineSet
EndChar
StartChar: Oslash
Encoding: 311 216 277
Width: 777
VWidth: 2048
Flags: HW
HStem: -12 116<382 400> 605 125<366 400>
VStem: 43 149<327 393> 589 148<327 377>
Fore
605 664 m 1
 682 751 l 1
 751 691 l 1
 670 599 l 1
 714 533 737 452 737 354 c 0
 737 245 708 158 648 92 c 0
 587 23 503 -12 394 -12 c 0
 303 -12 233 8 179 49 c 1
 100 -40 l 1
 31 20 l 1
 115 115 l 1
 66 178 43 261 43 363 c 0
 43 472 74 561 133 627 c 0
 196 694 281 730 389 730 c 0
 475 730 547 707 605 664 c 1
515 564 m 1
 483 592 440 605 391 605 c 0
 259 605 192 523 192 359 c 0
 192 307 199 262 215 225 c 1
 515 564 l 1
569 486 m 1
 268 149 l 1
 302 120 342 104 389 104 c 0
 457 104 509 130 543 182 c 0
 573 227 589 285 589 356 c 0
 589 411 582 454 569 486 c 1
EndSplineSet
EndChar
StartChar: Thorn
Encoding: 317 222 283
Width: 666
VWidth: 2048
Flags: HW
HStem: 0 21G<72 218>
VStem: 72 146<0 135 0 460 0 716> 472 150<360 369>
Fore
72 0 m 1
 72 716 l 1
 218 716 l 1
 218 581 l 1
 305 581 l 2
 383 581 432 579 454 575 c 0
 506 567 547 543 578 504 c 0
 607 468 622 420 622 360 c 0
 622 259 579 190 497 158 c 0
 460 143 399 135 313 135 c 2
 218 135 l 1
 218 0 l 1
 72 0 l 1
218 460 m 1
 218 256 l 1
 296 256 l 2
 354 256 394 261 415 268 c 0
 454 284 472 314 472 360 c 0
 472 408 452 437 411 451 c 0
 391 457 349 460 288 460 c 2
 218 460 l 1
EndSplineSet
EndChar
StartChar: germandbls
Encoding: 318 223 284
Width: 610
VWidth: 2048
Flags: HW
HStem: -12 110<386 403> 621 109<272 292>
VStem: 67 138<0 501> 274 144<382 412> 340 140<563 583> 438 138<134 157>
Fore
67 0 m 1xe8
 67 466 l 2
 67 553 81 618 109 658 c 0
 141 705 199 730 282 730 c 0
 337 730 382 719 417 697 c 0
 460 670 480 632 480 581 c 0xe8
 480 552 472 521 454 489 c 0
 437 460 428 441 423 431 c 1
 418 412 l 1
 418 400 423 388 432 379 c 0
 438 369 457 349 490 316 c 0
 547 256 576 202 576 155 c 0xf4
 576 106 559 66 526 35 c 0
 492 3 451 -12 403 -12 c 0
 331 -12 279 18 244 81 c 1
 340 136 l 1xe8
 354 110 371 98 391 98 c 0
 423 98 438 115 438 149 c 0
 438 169 411 205 356 258 c 0
 302 310 274 351 274 382 c 0xf4
 274 400 285 432 307 478 c 0
 330 524 340 553 340 570 c 0
 340 604 320 621 281 621 c 0
 244 621 221 602 212 566 c 0
 207 550 205 517 205 466 c 2
 205 0 l 1
 67 0 l 1xe8
EndSplineSet
EndChar
StartChar: ae
Encoding: 325 230 291
Width: 889
VWidth: 2048
Flags: HW
HStem: -12 98<219 256> -12 106<593 620> 219 86<500 843> 426 104<266 296 586 620>
VStem: 43 138<137 155> 363 137<305 351> 707 136<219 305>
Fore
702 166 m 1x7e
 835 141 l 1
 799 40 722 -12 607 -12 c 0x7e
 532 -12 471 12 422 60 c 1
 362 12 294 -12 219 -12 c 0xbe
 169 -12 127 0 95 26 c 0
 60 54 43 92 43 141 c 0
 43 201 69 244 120 271 c 0
 146 285 199 300 279 316 c 0
 311 322 339 330 363 337 c 1
 363 351 l 2
 363 402 334 426 277 426 c 0
 227 426 196 405 182 360 c 1
 58 385 l 1
 87 481 167 530 294 530 c 0
 363 530 417 515 454 483 c 1
 492 515 540 530 595 530 c 0
 760 530 843 426 843 219 c 1
 498 219 l 1
 509 135 544 94 605 94 c 0
 653 94 685 116 702 166 c 1x7e
707 305 m 1
 707 385 671 426 601 426 c 0
 570 426 544 414 526 388 c 0
 509 365 500 337 500 305 c 1
 707 305 l 1
362 248 m 1
 287 228 245 218 239 215 c 1
 199 202 181 182 181 153 c 0
 181 107 205 86 256 86 c 0xbe
 302 86 333 103 348 136 c 0
 357 158 362 196 362 248 c 1
EndSplineSet
EndChar
StartChar: eth
Encoding: 335 240 301
Width: 610
VWidth: 2048
Flags: HW
HStem: -12 112<295 313> 411 107<268 305>
VStem: 40 144<243 277> 432 143<243 277>
Fore
162 716 m 1
 305 716 l 1
 359 673 l 1
 448 716 l 1
 469 668 l 1
 399 636 l 1
 515 518 575 394 575 267 c 0
 575 184 550 118 503 66 c 0
 452 14 386 -12 305 -12 c 0
 225 -12 162 14 113 66 c 0
 64 116 40 181 40 261 c 0
 40 328 61 388 103 438 c 0
 147 492 202 518 268 518 c 0
 305 518 340 507 377 484 c 1
 372 492 366 503 360 513 c 0
 353 526 334 552 305 592 c 1
 184 533 l 1
 162 579 l 1
 268 630 l 1
 236 659 201 688 162 716 c 1
184 259 m 0
 184 216 193 179 212 150 c 0
 233 116 265 100 307 100 c 0
 345 100 377 116 400 149 c 0
 422 178 432 213 432 254 c 0
 432 296 422 331 400 360 c 0
 377 394 345 411 305 411 c 0
 265 411 235 395 213 363 c 0
 193 336 184 300 184 259 c 0
EndSplineSet
EndChar
StartChar: divide
Encoding: 342 247 308
Width: 548
VWidth: 2048
Flags: HW
HStem: 90 137<205 343> 290 127<25 524> 480 136<205 343>
VStem: 205 138<90 227 480 616>
Fore
205 480 m 1
 205 616 l 1
 343 616 l 1
 343 480 l 1
 205 480 l 1
25 290 m 1
 25 417 l 1
 524 417 l 1
 524 290 l 1
 25 290 l 1
205 90 m 1
 205 227 l 1
 343 227 l 1
 343 90 l 1
 205 90 l 1
EndSplineSet
EndChar
StartChar: oslash
Encoding: 343 248 309
Width: 610
VWidth: 2048
Flags: HW
HStem: -12 107<310 316> 426 104<298 316>
VStem: 43 136<252 286> 441 137<236 270>
Fore
463 487 m 1
 513 547 l 1
 569 503 l 1
 515 441 l 1
 556 391 578 330 578 259 c 0
 578 181 553 115 503 64 c 0
 452 14 388 -12 310 -12 c 0
 254 -12 204 2 159 29 c 1
 103 -35 l 1
 49 11 l 1
 106 77 l 1
 64 127 43 190 43 262 c 0
 43 342 67 406 116 457 c 0
 166 506 230 530 310 530 c 0
 368 530 418 517 463 487 c 1
385 400 m 1
 363 417 339 426 311 426 c 0
 268 426 235 409 212 376 c 0
 190 345 179 308 179 264 c 0
 179 233 184 202 192 176 c 1
 385 400 l 1
428 340 m 1
 236 118 l 1
 256 103 281 95 310 95 c 0
 353 95 386 112 411 144 c 0
 431 173 441 212 441 256 c 0
 441 287 437 314 428 340 c 1
EndSplineSet
EndChar
StartChar: thorn
Encoding: 349 254 315
Width: 610
VWidth: 2048
Flags: HW
HStem: -12 109<325 357> 426 104<319 357>
VStem: 67 138<-198 64 -198 299 -198 716> 434 141<233 283>
Fore
67 716 m 1
 205 716 l 1
 205 458 l 1
 253 507 303 530 357 530 c 0
 428 530 483 503 521 446 c 0
 556 397 575 336 575 262 c 0
 575 189 556 126 523 75 c 0
 483 17 428 -12 357 -12 c 0
 300 -12 250 14 205 64 c 1
 205 -198 l 1
 67 -198 l 1
 67 716 l 1
204 271 m 0
 204 155 245 97 325 97 c 0
 397 97 434 150 434 258 c 0
 434 369 395 426 319 426 c 0
 242 426 204 374 204 271 c 0
EndSplineSet
EndChar
StartChar: dotlessi
Encoding: 351 305 317
Width: 277
VWidth: 2048
Flags: HW
HStem: 0 21G<72 208>
VStem: 72 136<0 518>
Fore
72 0 m 1
 72 518 l 1
 208 518 l 1
 208 0 l 1
 72 0 l 1
EndSplineSet
EndChar
StartChar: OE
Encoding: 352 338 318
Width: 999
VWidth: 2048
Flags: HW
HStem: 0 123<635 970> 316 119<635 929> 595 121<509 956> 605 125<316 343>
VStem: 35 149<339 389>
Fore
970 123 m 1xe8
 970 0 l 1
 509 0 l 1
 509 84 l 1
 472 20 409 -12 322 -12 c 0
 207 -12 124 41 75 147 c 0
 49 202 35 274 35 359 c 0
 35 461 55 546 97 612 c 0
 146 690 218 730 316 730 c 0xd8
 399 730 463 699 509 638 c 1
 509 716 l 1
 956 716 l 1
 956 595 l 1
 635 595 l 1
 635 435 l 1
 929 435 l 1
 929 316 l 1
 635 316 l 1
 635 123 l 1
 970 123 l 1xe8
343 605 m 0
 238 605 184 526 184 369 c 0
 184 199 238 115 343 115 c 0
 448 115 501 199 501 366 c 0
 501 526 448 605 343 605 c 0
EndSplineSet
EndChar
StartChar: oe
Encoding: 353 339 319
Width: 944
VWidth: 2048
Flags: HW
HStem: -12 106<671 684> -12 113<307 316> 219 86<564 903> 429 101<650 673>
VStem: 43 141<243 277>
Fore
763 167 m 1xb8
 897 146 l 1
 861 40 786 -12 671 -12 c 0xb8
 598 -12 536 12 487 61 c 1
 437 12 376 -12 307 -12 c 0x78
 228 -12 166 14 116 64 c 0
 67 116 43 181 43 258 c 0
 43 340 67 405 115 455 c 0
 162 506 227 530 308 530 c 0
 380 530 441 507 489 458 c 1
 535 507 592 530 662 530 c 0
 823 530 903 426 903 219 c 1
 563 219 l 1
 563 184 572 155 590 132 c 0
 610 106 638 94 671 94 c 0
 716 94 746 118 763 167 c 1xb8
771 305 m 1
 771 339 763 368 745 391 c 0
 725 417 699 429 665 429 c 0
 632 429 607 417 589 391 c 0
 572 368 564 339 564 305 c 1
 771 305 l 1
184 251 m 0
 184 213 195 179 216 150 c 0
 239 118 270 101 307 101 c 0x78
 348 101 379 120 400 155 c 0
 418 184 426 221 426 264 c 0
 426 307 417 342 399 369 c 0
 379 402 348 417 307 417 c 0
 225 417 184 362 184 251 c 0
EndSplineSet
EndChar
StartChar: florin
Encoding: 357 402 323
Width: 556
VWidth: 2048
Flags: HW
HStem: -210 115<98 127> 415 103<152 233 389 472> 612 118<428 454>
Fore
135 415 m 1
 153 518 l 1
 251 518 l 1
 259 563 l 2
 270 625 285 667 303 690 c 0
 328 716 368 730 428 730 c 0
 471 730 515 722 558 708 c 1
 532 598 l 1
 500 607 474 612 454 612 c 0
 423 612 403 590 394 546 c 2
 389 518 l 1
 490 518 l 1
 472 415 l 1
 372 415 l 1
 288 -63 l 2
 279 -116 264 -153 242 -175 c 0
 218 -199 179 -210 127 -210 c 0
 75 -210 29 -204 -9 -192 c 1
 18 -83 l 1
 54 -90 81 -95 100 -95 c 0
 123 -95 138 -86 146 -67 c 0
 150 -60 155 -40 159 -11 c 1
 233 415 l 1
 135 415 l 1
EndSplineSet
EndChar
StartChar: circumflex
Encoding: 358 710 324
Width: 332
VWidth: 2048
Flags: HW
HStem: 584 146<103 112 104 333>
Fore
2 584 m 1
 104 730 l 1
 231 730 l 1
 333 584 l 1
 222 584 l 1
 166 658 l 1
 112 584 l 1
 2 584 l 1
EndSplineSet
EndChar
StartChar: caron
Encoding: 359 711 325
Width: 332
VWidth: 2048
Flags: HW
HStem: 584 146<2 231>
Fore
2 730 m 1
 112 730 l 1
 166 656 l 1
 222 730 l 1
 333 730 l 1
 231 584 l 1
 104 584 l 1
 2 730 l 1
EndSplineSet
EndChar
StartChar: ring
Encoding: 361 730 326
Width: 332
VWidth: 2048
Flags: HW
HStem: 559 53<154.989 170> 699 52<154.634 170>
VStem: 71 53<643.57 659> 210 52<643.57 659>
Fore
262 656 m 0
 262 628 253 607 235 589 c 0
 215 569 193 559 167 559 c 0
 139 559 116 569 98 587 c 0
 80 605 71 628 71 656 c 0
 71 682 80 705 98 723 c 0
 116 742 139 751 167 751 c 0
 193 751 216 742 235 723 c 0
 253 705 262 682 262 656 c 0
210 656 m 0
 210 685 196 699 167 699 c 0
 138 699 124 685 124 656 c 0
 124 627 138 612 167 612 c 0
 196 612 210 627 210 656 c 0
EndSplineSet
EndChar
StartChar: tilde
Encoding: 362 732 327
Width: 332
VWidth: 2048
Flags: HW
VStem: -6 63<589 603.277>
Fore
57 589 m 1
 -6 589 l 1
 -6 607 l 2
 -6 677 23 713 83 713 c 0
 103 713 132 705 167 688 c 0
 192 677 212 671 228 671 c 0
 251 671 265 685 268 713 c 1
 331 713 l 1
 331 632 302 590 245 590 c 0
 236 590 225 592 212 595 c 1
 156 615 l 2
 124 625 103 632 90 632 c 0
 67 632 57 618 57 589 c 1
EndSplineSet
EndChar
StartChar: quotesinglbase
Encoding: 365 8218 328
Width: 277
VWidth: 2048
Flags: HW
HStem: -20 20G<67 135>
Fore
67 136 m 1
 205 136 l 1
 205 38 l 2
 205 -15 198 -57 182 -84 c 0
 164 -116 132 -141 84 -159 c 1
 57 -103 l 1
 109 -87 135 -54 135 0 c 1
 67 0 l 1
 67 136 l 1
EndSplineSet
EndChar
StartChar: quotedblbase
Encoding: 366 8222 329
Width: 499
VWidth: 2048
Flags: HW
HStem: -20 20G<80 146 310 376>
VStem: 80 136<0 136> 146 70<0 38> 310 138<0 136> 376 72<0 38>
Fore
310 136 m 1x90
 448 136 l 1
 448 38 l 2x90
 448 -15 438 -57 423 -86 c 0
 405 -118 372 -143 325 -159 c 1
 299 -103 l 1
 349 -87 376 -52 376 0 c 1x88
 310 0 l 1
 310 136 l 1x90
80 136 m 1xc0
 216 136 l 1
 216 38 l 2xc0
 216 -15 208 -57 192 -86 c 0
 173 -118 141 -143 95 -159 c 1
 67 -103 l 1
 120 -86 146 -52 146 0 c 1xa0
 80 0 l 1
 80 136 l 1xc0
EndSplineSet
EndChar
StartChar: dagger
Encoding: 367 8224 330
Width: 556
VWidth: 2048
Flags: HW
HStem: 406 112<32 212 340 518> 688 20G<212 340>
VStem: 212 128<-172 406 518 708>
Fore
212 -172 m 1
 212 406 l 1
 32 406 l 1
 32 518 l 1
 212 518 l 1
 212 708 l 1
 340 708 l 1
 340 518 l 1
 518 518 l 1
 518 406 l 1
 340 406 l 1
 340 -172 l 1
 212 -172 l 1
EndSplineSet
EndChar
StartChar: daggerdbl
Encoding: 368 8225 331
Width: 556
VWidth: 2048
Flags: HW
HStem: -8 114<32 213 342 518> 426 115<32 213 342 518> 688 20G<213 342>
VStem: 213 129<-172 -8 106 426 541 708>
Fore
213 -172 m 1
 213 -8 l 1
 32 -8 l 1
 32 106 l 1
 213 106 l 1
 213 426 l 1
 32 426 l 1
 32 541 l 1
 213 541 l 1
 213 708 l 1
 342 708 l 1
 342 541 l 1
 518 541 l 1
 518 426 l 1
 342 426 l 1
 342 106 l 1
 518 106 l 1
 518 -8 l 1
 342 -8 l 1
 342 -172 l 1
 213 -172 l 1
EndSplineSet
EndChar
StartChar: perthousand
Encoding: 369 8240 332
Width: 999
VWidth: 2048
Flags: HW
HStem: -29 77<527 534 858 865> 271 77<527 534 856 865> 353 76<141 145> 653 77<134 145>
VStem: 0 95<530 564> 187 97<530 564> 391 93<146 180> 576 97<146 180> 717 97<146 180> 903 98<146 180>
Fore
0 547 m 0
 0 668 48 730 143 730 c 0
 236 730 284 668 284 546 c 0
 284 417 236 353 141 353 c 0
 48 353 0 418 0 547 c 0
118 437 m 0
 126 432 133 429 141 429 c 0
 172 429 187 468 187 541 c 0
 187 616 172 653 141 653 c 0
 110 653 95 616 95 541 c 0
 95 483 103 449 118 437 c 0
136 -26 m 1
 437 730 l 1
 532 730 l 1
 233 -26 l 1
 136 -26 l 1
391 166 m 0
 391 287 438 348 532 348 c 0
 625 348 673 287 673 164 c 0
 673 35 625 -29 532 -29 c 0
 437 -29 391 35 391 166 c 0
509 55 m 1
 517 51 524 48 530 48 c 0
 561 48 576 86 576 159 c 0
 576 235 561 271 530 271 c 0
 500 271 484 235 484 159 c 0
 484 104 492 69 509 55 c 1
717 166 m 0
 717 287 765 348 860 348 c 0
 953 348 1001 287 1001 164 c 0
 1001 35 953 -29 858 -29 c 0
 765 -29 717 35 717 166 c 0
897 236 m 1
 887 259 875 271 858 271 c 0
 829 271 814 235 814 159 c 0
 814 84 828 48 858 48 c 0
 887 48 903 84 903 159 c 0
 903 193 901 219 897 236 c 1
EndSplineSet
EndChar
StartChar: guilsinglleft
Encoding: 370 8249 333
Width: 332
VWidth: 2048
Flags: HW
Fore
299 480 m 1
 172 259 l 1
 299 34 l 1
 192 34 l 1
 37 259 l 1
 192 480 l 1
 299 480 l 1
EndSplineSet
EndChar
StartChar: guilsinglright
Encoding: 371 8250 334
Width: 332
VWidth: 2048
Flags: HW
Fore
37 34 m 1
 164 256 l 1
 37 480 l 1
 144 480 l 1
 299 256 l 1
 144 34 l 1
 37 34 l 1
EndSplineSet
EndChar
StartChar: trademark
Encoding: 372 8482 335
Width: 999
VWidth: 2048
Flags: HW
HStem: 647 69<106 228 106 431>
VStem: 228 83<316 647> 478 77<316 636> 800 78<316 716>
Fore
228 316 m 1
 228 647 l 1
 106 647 l 1
 106 716 l 1
 431 716 l 1
 431 647 l 1
 311 647 l 1
 311 316 l 1
 228 316 l 1
478 316 m 1
 478 716 l 1
 605 716 l 1
 677 441 l 1
 751 716 l 1
 878 716 l 1
 878 316 l 1
 800 316 l 1
 800 636 l 1
 714 316 l 1
 641 316 l 1
 555 636 l 1
 555 316 l 1
 478 316 l 1
EndSplineSet
EndChar
StartChar: uniF71C
Encoding: 375 63260 336
Width: 338
VWidth: 2048
Flags: HW
HStem: -20 20G<0 2>
Fore
0 0 m 1
 0 2 l 1
 2 0 l 1
 0 0 l 1
EndSplineSet
EndChar
StartChar: uniF71D
Encoding: 376 63261 337
Width: 338
VWidth: 2048
Flags: HW
HStem: -118 115<29 253>
VStem: 253 60<-162 -3>
Fore
253 -162 m 1
 253 -118 l 1
 92 -118 l 1
 92 -162 l 1
 29 -162 l 1
 29 -3 l 1
 313 -3 l 1
 313 -162 l 1
 253 -162 l 1
EndSplineSet
EndChar
